<?xml version="1.0" encoding="utf-8" ?>
<svg xmlns="http://www.w3.org/2000/svg" xmlns:xlink="http://www.w3.org/1999/xlink" width="31" height="31">
	<defs>
		<clipPath id="clip_0">
			<rect x="-1015.9805" y="-775.44" width="1338.6801" height="1857.0999" clip-rule="evenodd"/>
		</clipPath>
	</defs>
	<g clip-path="url(#clip_0)">
		<path fill="rgb(255,255,255)" stroke="none" transform="matrix(-0.0171033 0.979851 0.979851 0.0171033 1.51563 0.465759)" d="M15 30C23.2843 30 30 23.2843 30 15C30 6.71573 23.2843 0 15 0C6.71573 0 0 6.71573 0 15C0 23.2843 6.71573 30 15 30Z"/>
	</g>
	<defs>
		<clipPath id="clip_1">
			<path d="M15.7003 30.1178C23.8176 30.2595 30.5129 23.794 30.6546 15.6766C30.7963 7.55927 24.3307 0.863997 16.2134 0.722309C8.09604 0.58062 1.40076 7.04617 1.25908 15.1635C1.11739 23.2809 7.58294 29.9761 15.7003 30.1178Z" clip-rule="evenodd"/>
		</clipPath>
	</defs>
	<g clip-path="url(#clip_1)">
		<path fill="none" stroke="rgb(198,205,211)" stroke-width="2" stroke-linecap="square" stroke-miterlimit="4" transform="matrix(-0.0171033 0.979851 0.979851 0.0171033 1.51563 0.465759)" d="M15 30C23.2843 30 30 23.2843 30 15C30 6.71573 23.2843 0 15 0C6.71573 0 0 6.71573 0 15C0 23.2843 6.71573 30 15 30Z"/>
	</g>
	<defs>
		<clipPath id="clip_2">
			<rect x="-1015.9805" y="-775.44" width="1338.6801" height="1857.0999" clip-rule="evenodd"/>
		</clipPath>
	</defs>
	<g clip-path="url(#clip_2)">
		<path fill="rgb(85,121,243)" stroke="none" transform="matrix(0.979851 0.0171033 -0.0171033 0.979851 10.4609 12.4229)" d="M5.47629 0.000560158C5.2885 0.00490186 5.10901 0.0779764 4.97258 0.205638L0.231639 4.70565C-0.0695941 4.99394 -0.0781397 5.46886 0.212531 5.76755C0.503202 6.06625 0.983506 6.07613 1.28648 5.78963L5.5 1.78768L9.71352 5.78963C10.0165 6.07613 10.4968 6.06625 10.7875 5.76755C11.0781 5.46886 11.0696 4.99394 10.7684 4.70565L6.02742 0.205638C5.87913 0.0666961 5.68044 -0.00724035 5.47629 0.000560158Z"/>
	</g>

</svg>