<?xml version="1.0" encoding="UTF-8"?>
<svg width="23px" height="23px" viewBox="0 0 23 23" version="1.1" xmlns="http://www.w3.org/2000/svg" xmlns:xlink="http://www.w3.org/1999/xlink">
    <!-- Generator: Sketch 53.2 (72643) - https://sketchapp.com -->
    <title>instagram</title>
    <desc>Created with Sketch.</desc>
    <g id="iOS-11" stroke="none" stroke-width="1" fill="none" fill-rule="evenodd">
        <g transform="translate(-111.000000, -1902.000000)" fill="#798192" fill-rule="nonzero" id="instagram">
            <g transform="translate(111.000000, 1902.000000)">
                <path d="M16.7741089,0 L6.22589111,0 C2.7928772,0 0,2.7928772 0,6.22589111 L0,16.7742844 C0,20.2071228 2.7928772,23 6.22589111,23 L16.7742844,23 C20.2071228,23 23,20.2071228 23,16.7742844 L23,6.22589111 C23,2.7928772 20.2071228,1.27675648e-15 16.7741089,0 Z M11.5,17.788887 C8.03224184,17.788887 5.21111296,14.9677582 5.21111296,11.5 C5.21111296,8.03224184 8.03224184,5.21111296 11.5,5.21111296 C14.9677582,5.21111296 17.788887,8.03224184 17.788887,11.5 C17.788887,14.9677582 14.9677582,17.788887 11.5,17.788887 L11.5,17.788887 Z M17.93927,6.69423674 C16.9144897,6.69423674 16.0809784,5.86072541 16.0809784,4.83594514 C16.0809784,3.81116487 16.9144897,2.97747803 17.93927,2.97747803 C18.9640503,2.97747803 19.7977371,3.81116487 19.7977371,4.83594514 C19.7977371,5.86072541 18.9640503,6.69423674 17.93927,6.69423674 Z" id="Shape"></path>
                <path d="M11.5,6.55947112 C8.77590942,6.55947112 6.55947112,8.77573396 6.55947112,11.5 C6.55947112,14.2240906 8.77590942,16.4405289 11.5,16.4405289 C14.224266,16.4405289 16.4405289,14.2240906 16.4405289,11.5 C16.4405289,8.77573396 14.224266,6.55947112 11.5,6.55947112 Z" id="Path"></path>
                <path d="M17.93927,4.32601165 C17.6581574,4.32601165 17.4293366,4.55483245 17.4293366,4.83594514 C17.4293366,5.11705779 17.6581574,5.34587859 17.93927,5.34587859 C18.2205582,5.34587859 18.449379,5.11723325 18.449379,4.83594514 C18.449379,4.55465698 18.2205582,4.32601165 17.93927,4.32601165 Z" id="Path"></path>
            </g>
        </g>
    </g>
</svg>