<?xml version="1.0" encoding="UTF-8"?>
<svg width="25px" height="25px" viewBox="0 0 25 25" version="1.1" xmlns="http://www.w3.org/2000/svg" xmlns:xlink="http://www.w3.org/1999/xlink">
    <!-- Generator: Sketch 53.2 (72643) - https://sketchapp.com -->
    <title>linkedin-logo (1)</title>
    <desc>Created with Sketch.</desc>
    <g id="Homepage-+-responsive" stroke="none" stroke-width="1" fill="none" fill-rule="evenodd">
        <g id="contact" transform="translate(-939.000000, -1253.000000)" fill="#798192" fill-rule="nonzero">
            <g id="Group-13" transform="translate(798.000000, 738.000000)">
                <g id="Group-11" transform="translate(0.000000, 422.000000)">
                    <g id="Group-3" transform="translate(5.000000, 90.000000)">
                        <g id="linkedin-logo-(1)" transform="translate(136.000000, 3.000000)">
                            <path d="M23.1064385,0 L1.84350348,0 C0.825348028,0 0.000116009281,0.800058005 0.000116009281,1.787529 L0.000116009281,23.1605568 C0.000116009281,24.1480858 0.825638051,24.9488399 1.84350348,24.9488399 L23.1064385,24.9488399 C24.1243619,24.9488399 24.9486659,24.1475638 24.9486659,23.1605568 L24.9486659,1.787529 C24.9486659,0.800348028 24.1243619,0 23.1064385,0 Z M7.5638051,20.8838747 L3.79425754,20.8838747 L3.79425754,9.61977958 L7.5638051,9.61977958 L7.5638051,20.8838747 Z M5.67940835,8.08091647 L5.65406032,8.08091647 C4.3899652,8.08091647 3.57053364,7.21641531 3.57053364,6.13410673 C3.57053364,5.0299884 4.41403712,4.18892111 5.70319026,4.18892111 C6.9924594,4.18892111 7.78549884,5.02975638 7.81055684,6.13410673 C7.81055684,7.21664733 6.99274942,8.08091647 5.67940835,8.08091647 Z M21.1519142,20.8838747 L17.3835847,20.8838747 L17.3835847,14.8571926 C17.3835847,13.3428654 16.837587,12.3095708 15.474826,12.3095708 C14.4323086,12.3095708 13.8134571,13.0066705 13.5417053,13.6796984 C13.4410093,13.9200696 13.4160673,14.2562645 13.4160673,14.5919954 L13.4160673,20.8836427 L9.64843387,20.8836427 C9.64843387,20.8836427 9.69773782,10.6760441 9.64843387,9.61960557 L13.4166473,9.61960557 L13.4166473,11.2165313 C13.9168794,10.4491879 14.8107889,9.35458237 16.811891,9.35458237 C19.2921694,9.35458237 21.1519142,10.9635731 21.1519142,14.425 L21.1519142,20.8838747 Z M13.404464,11.2862104 C13.415564,11.2680104 13.431064,11.2461104 13.446464,11.2248104 L13.446464,11.2862104 L13.404464,11.2862104 Z" id="LinkedIn__x28_alt_x29_"></path>
                        </g>
                    </g>
                </g>
            </g>
        </g>
    </g>
</svg>