<?xml version="1.0" encoding="UTF-8"?>
<svg width="37px" height="25px" viewBox="0 0 37 25" version="1.1" xmlns="http://www.w3.org/2000/svg" xmlns:xlink="http://www.w3.org/1999/xlink">
    <!-- Generator: Sketch 53.2 (72643) - https://sketchapp.com -->
    <title>youtube</title>
    <desc>Created with Sketch.</desc>
    <g id="Homepage-+-responsive" stroke="none" stroke-width="1" fill="none" fill-rule="evenodd">
        <g id="contact" transform="translate(-1009.000000, -1253.000000)" fill="#798192" fill-rule="nonzero">
            <g id="Group-13" transform="translate(798.000000, 738.000000)">
                <g id="Group-11" transform="translate(0.000000, 422.000000)">
                    <g id="Group-3" transform="translate(5.000000, 90.000000)">
                        <g id="youtube" transform="translate(206.000000, 3.000000)">
                            <path d="M34.8181818,2.40909091 C33.8318182,0.654545455 32.7613636,0.331818182 30.5818182,0.209090909 C28.4045455,0.0613636364 22.9295455,0 18.1863636,0 C13.4340909,0 7.95681818,0.0613636364 5.78181818,0.206818182 C3.60681818,0.331818182 2.53409091,0.652272727 1.53863636,2.40909091 C0.522727273,4.16136364 0,7.17954545 0,12.4931818 C0,12.4977273 0,12.5 0,12.5 C0,12.5045455 0,12.5068182 0,12.5068182 L0,12.5113636 C0,17.8022727 0.522727273,20.8431818 1.53863636,22.5772727 C2.53409091,24.3318182 3.60454545,24.65 5.77954545,24.7977273 C7.95681818,24.925 13.4340909,25 18.1863636,25 C22.9295455,25 28.4045455,24.925 30.5840909,24.8 C32.7636364,24.6522727 33.8340909,24.3340909 34.8204545,22.5795455 C35.8454545,20.8454545 36.3636364,17.8045455 36.3636364,12.5136364 C36.3636364,12.5136364 36.3636364,12.5068182 36.3636364,12.5022727 C36.3636364,12.5022727 36.3636364,12.4977273 36.3636364,12.4954545 C36.3636364,7.17954545 35.8454545,4.16136364 34.8181818,2.40909091 Z M13.6363636,19.3181818 L13.6363636,5.68181818 L25,12.5 L13.6363636,19.3181818 Z" id="Shape"></path>
                        </g>
                    </g>
                </g>
            </g>
        </g>
    </g>
</svg>