<?xml version="1.0" encoding="utf-8" ?>
<svg xmlns="http://www.w3.org/2000/svg" xmlns:xlink="http://www.w3.org/1999/xlink" width="10" height="16">
	<defs>
		<clipPath id="clip_0">
			<rect x="-1255" y="-164" width="1600" height="900" clip-rule="evenodd"/>
		</clipPath>
	</defs>
	<g clip-path="url(#clip_0)">
		<path fill="rgb(198,205,211)" stroke="none" transform="matrix(-1 -8.74228e-08 8.74228e-08 -1 10 15.3845)" d="M5.68045 0.732793L9.31955 4.65182Q9.35442 4.68938 9.3841 4.72636Q9.41378 4.76334 9.43801 4.79943Q9.46225 4.83553 9.48084 4.87045Q9.49944 4.90537 9.51225 4.93883Q9.52505 4.97229 9.53196 5.00402Q9.53887 5.03574 9.53983 5.06548Q9.54079 5.09521 9.53579 5.12271Q9.53079 5.15021 9.51987 5.17525Q9.50895 5.20028 9.49221 5.22266Q9.47546 5.24504 9.45302 5.26456Q9.43057 5.28409 9.40262 5.30062Q9.37467 5.31714 9.34144 5.33053Q9.30821 5.34391 9.26996 5.35404Q9.23172 5.36418 9.18878 5.37098Q9.14584 5.37778 9.09855 5.3812Q9.05126 5.38461 9 5.38461L1 5.38461Q0.948746 5.38461 0.901455 5.3812Q0.854164 5.37778 0.811222 5.37098Q0.76828 5.36418 0.730036 5.35404Q0.691793 5.34391 0.65856 5.33053Q0.625328 5.31714 0.597377 5.30062Q0.569426 5.28409 0.546985 5.26456Q0.524544 5.24504 0.507796 5.22266Q0.491048 5.20028 0.480129 5.17525Q0.46921 5.15021 0.46421 5.12271Q0.45921 5.09521 0.460169 5.06548Q0.461128 5.03574 0.468038 5.00402Q0.474949 4.97229 0.487754 4.93883Q0.50056 4.90537 0.519156 4.87045Q0.537752 4.83553 0.561987 4.79943Q0.586222 4.76334 0.615899 4.72636Q0.645575 4.68938 0.680451 4.65182L4.31955 0.732793Q4.38944 0.657523 4.46928 0.598815Q4.54911 0.540107 4.63628 0.499873Q4.72346 0.459639 4.81513 0.439189Q4.90681 0.418739 5 0.418739Q5.09319 0.418739 5.18487 0.439189Q5.27654 0.459639 5.36372 0.499873Q5.45089 0.540107 5.53072 0.598815Q5.61056 0.657523 5.68045 0.732793Z"/>
	</g>
	<defs>
		<clipPath id="clip_1">
			<rect x="-1255" y="-164" width="1600" height="900" clip-rule="evenodd"/>
		</clipPath>
	</defs>
	<g clip-path="url(#clip_1)">
		<path fill="rgb(198,205,211)" stroke="none" transform="matrix(-1 -8.74228e-08 -8.74228e-08 1 10 0)" d="M5.68045 0.732793L9.31955 4.65182Q9.35442 4.68938 9.3841 4.72636Q9.41378 4.76334 9.43801 4.79943Q9.46225 4.83553 9.48084 4.87045Q9.49944 4.90537 9.51225 4.93883Q9.52505 4.97229 9.53196 5.00402Q9.53887 5.03574 9.53983 5.06548Q9.54079 5.09521 9.53579 5.12271Q9.53079 5.15021 9.51987 5.17525Q9.50895 5.20029 9.49221 5.22266Q9.47546 5.24504 9.45302 5.26457Q9.43057 5.28409 9.40262 5.30062Q9.37467 5.31714 9.34144 5.33053Q9.30821 5.34391 9.26996 5.35405Q9.23172 5.36418 9.18878 5.37098Q9.14584 5.37779 9.09855 5.3812Q9.05126 5.38462 9 5.38462L1 5.38462Q0.948746 5.38462 0.901455 5.3812Q0.854164 5.37779 0.811222 5.37098Q0.76828 5.36418 0.730036 5.35405Q0.691793 5.34391 0.65856 5.33053Q0.625328 5.31714 0.597377 5.30062Q0.569426 5.28409 0.546985 5.26457Q0.524544 5.24504 0.507796 5.22266Q0.491048 5.20029 0.480129 5.17525Q0.46921 5.15021 0.46421 5.12271Q0.45921 5.09521 0.460169 5.06548Q0.461128 5.03574 0.468038 5.00402Q0.474949 4.97229 0.487754 4.93883Q0.50056 4.90537 0.519156 4.87045Q0.537752 4.83553 0.561987 4.79943Q0.586222 4.76334 0.615899 4.72636Q0.645575 4.68938 0.680451 4.65182L4.31955 0.732793Q4.38944 0.657523 4.46928 0.598815Q4.54911 0.540107 4.63628 0.499873Q4.72346 0.459639 4.81513 0.439189Q4.90681 0.418739 5 0.418739Q5.09319 0.418739 5.18487 0.439189Q5.27654 0.459639 5.36372 0.499873Q5.45089 0.540107 5.53072 0.598815Q5.61056 0.657523 5.68045 0.732793Z"/>
	</g>

</svg>