<?xml version="1.0" encoding="utf-8" ?>
<svg xmlns="http://www.w3.org/2000/svg" xmlns:xlink="http://www.w3.org/1999/xlink" width="24" height="15">
	<defs>
		<clipPath id="clip_0">
			<rect x="-1505.7188" y="-1076.5159" width="1594.5599" height="1136.124" clip-rule="evenodd"/>
		</clipPath>
	</defs>
	<g clip-path="url(#clip_0)">
		<path fill="rgb(255,255,255)" stroke="none" transform="matrix(0.9966 0 0 0.9966 0.144531 1.14697)" d="M23.0769 6.78557C23.0674 6.54292 22.9675 6.26247 22.8012 6.08559L17.3713 0.316071C17.0034 -0.0145733 16.2978 -0.151067 15.8866 0.23123C15.4815 0.607757 15.4936 1.33801 15.8971 1.71603L19.715 5.76742L1.0181 5.76742C0.455837 5.76742 0 6.22327 0 6.78557C0 7.34786 0.455837 7.8037 1.0181 7.8037L19.715 7.8037L15.8971 11.8551C15.5497 12.2031 15.4855 12.9591 15.8866 13.3399C16.2876 13.7207 17.0185 13.599 17.3713 13.255L22.8012 7.48555C22.987 7.2881 23.0775 7.05645 23.0769 6.78557L23.0769 6.78557Z"/>
	</g>

</svg>