<?xml version="1.0" encoding="UTF-8"?>
<svg width="236px" height="50px" viewBox="0 0 236 50" version="1.1" xmlns="http://www.w3.org/2000/svg" xmlns:xlink="http://www.w3.org/1999/xlink">
    <!-- Generator: Sketch 53.2 (72643) - https://sketchapp.com -->
    <title>Group 8</title>
    <desc>Created with Sketch.</desc>
    <g id="Homepage-+-responsive" stroke="none" stroke-width="1" fill="none" fill-rule="evenodd">
        <g id="home-2" transform="translate(-98.000000, -28.000000)" fill="#FFFFFF" fill-rule="nonzero">
            <g id="Group-8" transform="translate(98.000000, 28.000000)">
                <g id="1">
                    <path d="M82.9281462,26.1961538 L87.5692308,26.1961538 L87.5692308,37.5807692 L76.1846154,37.5807692 L76.1846154,32.4549154 L80.05,30.2230769 C81.5,29.4 82.5346154,27.9942308 82.8923077,26.3653846 C82.9050849,26.3089873 82.917029,26.2525723 82.9281462,26.1961539 Z M48.7596154,3.49870842 C45.992051,4.0353198 43.9230769,6.47331529 43.9230769,9.35961538 L43.9230769,11.3961538 L37.375,11.3961538 L37.375,0.0115384615 L48.7596154,0.0115384615 L48.7596154,3.49870842 Z M67.1284458,12.4307692 L75.15,12.4307692 L75.15,17.0637116 L68.2942308,13.1038462 L67.1284458,12.4307692 Z M65.5151236,38.6153846 L75.15,38.6153846 L75.15,50 L63.7653846,50 L63.7653846,39.6256682 L65.5151236,38.6153846 Z" id="Combined-Shape"></path>
                    <rect id="Rectangle" x="37.2711538" y="12.4307692" width="6.49807692" height="11.3846154"></rect>
                    <rect id="pix1_2_" opacity="0.44" x="0.0115384615" y="12.4307692" width="11.3846154" height="11.3846154"></rect>
                    <rect id="pix2_2_" x="12.4307692" y="24.85" width="11.3846154" height="11.3846154"></rect>
                    <rect id="pix3-2_2_" opacity="0.3" x="24.85" y="12.4307692" width="11.3846154" height="11.3846154"></rect>
                    <rect id="pix4_2_" x="24.85" y="24.85" width="11.3846154" height="11.3846154"></rect>
                    <rect id="pix5_2_" opacity="0.44" x="24.85" y="37.2692308" width="11.3846154" height="11.3846154"></rect>
                    <rect id="pix10_2_" opacity="0.44" x="76.0826923" y="0.0115384615" width="11.3846154" height="11.3846154"></rect>
                    <rect id="pix12_2_" opacity="0.3" x="88.6057692" y="13.6730769" width="11.3846154" height="11.3846154"></rect>
                    <rect id="pix13_2_" opacity="0.16" x="88.6057692" y="26.1961538" width="11.3846154" height="11.3846154"></rect>
                    <path d="M49.8865385,4.94230769 C49.8019231,4.94230769 49.7173077,4.94423077 49.6307692,4.95 C47.5884615,5.07307692 45.475,6.75576923 45.475,9.35961538 L45.475,40.7557692 C45.475,42.35 46.3,43.7769231 47.6788462,44.5730769 C49.0596154,45.3692308 50.7076923,45.3711538 52.0884615,44.5730769 L79.2769231,28.875 C80.35,28.2653846 81.1134615,27.2288462 81.375,26.0288462 L81.3769231,26.0230769 C81.8076923,24.1288462 80.9653846,22.2057692 79.2788462,21.2403846 L52.0884615,5.54038462 C51.4153846,5.14807692 50.6596154,4.94230769 49.8865385,4.94230769 Z" id="Path"></path>
                </g>
                <path d="M108.878906,28.9570312 L111.818359,28.9570312 C111.837891,29.4257836 112.028319,29.8196599 112.389648,30.1386719 C112.750978,30.4576839 113.247393,30.6171875 113.878906,30.6171875 C114.477868,30.6171875 114.962889,30.4853529 115.333984,30.2216797 C115.70508,29.9580065 115.89388,29.6048199 115.900391,29.1621094 C115.913412,28.8170556 115.802736,28.5175794 115.568359,28.2636719 C115.333983,28.0097644 114.891279,27.7884124 114.240234,27.5996094 L112.580078,27.140625 C110.203764,26.4049442 109.015625,25.0833429 109.015625,23.1757812 C109.015625,21.9648377 109.47135,20.9768918 110.382812,20.2119141 C111.294275,19.4469363 112.420566,19.0644531 113.761719,19.0644531 C115.122403,19.0644531 116.238928,19.4453087 117.111328,20.2070312 C117.983728,20.9687538 118.419922,21.9941342 118.419922,23.2832031 L115.5,23.2832031 C115.5,22.8144508 115.345379,22.4368504 115.036133,22.1503906 C114.726886,21.8639309 114.289065,21.7207031 113.722656,21.7207031 C113.208331,21.7207031 112.781903,21.8492826 112.443359,22.1064453 C112.104816,22.3636081 111.935547,22.6940084 111.935547,23.0976562 C111.935547,23.7552116 112.430334,24.2239569 113.419922,24.5039062 L115.060547,25.0214844 C117.638685,25.7636756 118.898438,27.1503805 118.839844,29.1816406 C118.833333,29.8457064 118.685223,30.4414036 118.395508,30.96875 C118.105793,31.4960964 117.724937,31.9192692 117.25293,32.2382812 C116.780922,32.5572933 116.256839,32.8014314 115.680664,32.9707031 C115.104489,33.1399748 114.503909,33.2246094 113.878906,33.2246094 C112.388013,33.2246094 111.181971,32.8258503 110.260742,32.0283203 C109.339514,31.2307903 108.878906,30.2070375 108.878906,28.9570312 Z M121.251953,33 L121.251953,19.2207031 L124.171875,19.2207031 L124.171875,33 L121.251953,33 Z M126.642578,33 L128.341797,19.2207031 L130.763672,19.2207031 L134.923828,28.0976562 L139.044922,19.2207031 L141.505859,19.2207031 L143.185547,33 L140.246094,33 L139.279297,24.7382812 L136.066406,31.4179688 L133.800781,31.4179688 L130.558594,24.7382812 L129.582031,33 L126.642578,33 Z M145.519531,28.078125 L145.519531,19.2207031 L148.498047,19.2207031 L148.498047,28.078125 C148.498047,28.7682326 148.73242,29.3346332 149.201172,29.7773438 C149.669924,30.2200543 150.226559,30.4414062 150.871094,30.4414062 C151.509118,30.4414062 152.065753,30.2184267 152.541016,29.7724609 C153.016278,29.3264952 153.253906,28.7617222 153.253906,28.078125 L153.253906,19.2207031 L156.193359,19.2207031 L156.193359,28.078125 C156.193359,29.0872446 155.944338,29.9856731 155.446289,30.7734375 C154.94824,31.5612019 154.297205,32.1617818 153.493164,32.5751953 C152.689124,32.9886088 151.815109,33.1953125 150.871094,33.1953125 C149.920568,33.1953125 149.040043,32.9886088 148.229492,32.5751953 C147.418941,32.1617818 146.764651,31.5612019 146.266602,30.7734375 C145.768552,29.9856731 145.519531,29.0872446 145.519531,28.078125 Z" id="SIMU" opacity="0.6"></path>
                <path d="M158.878906,28.9570312 L161.818359,28.9570312 C161.837891,29.4257836 162.028319,29.8196599 162.389648,30.1386719 C162.750978,30.4576839 163.247393,30.6171875 163.878906,30.6171875 C164.477868,30.6171875 164.962889,30.4853529 165.333984,30.2216797 C165.70508,29.9580065 165.89388,29.6048199 165.900391,29.1621094 C165.913412,28.8170556 165.802736,28.5175794 165.568359,28.2636719 C165.333983,28.0097644 164.891279,27.7884124 164.240234,27.5996094 L162.580078,27.140625 C160.203764,26.4049442 159.015625,25.0833429 159.015625,23.1757812 C159.015625,21.9648377 159.47135,20.9768918 160.382812,20.2119141 C161.294275,19.4469363 162.420566,19.0644531 163.761719,19.0644531 C165.122403,19.0644531 166.238928,19.4453087 167.111328,20.2070312 C167.983728,20.9687538 168.419922,21.9941342 168.419922,23.2832031 L165.5,23.2832031 C165.5,22.8144508 165.345379,22.4368504 165.036133,22.1503906 C164.726886,21.8639309 164.289065,21.7207031 163.722656,21.7207031 C163.208331,21.7207031 162.781903,21.8492826 162.443359,22.1064453 C162.104816,22.3636081 161.935547,22.6940084 161.935547,23.0976562 C161.935547,23.7552116 162.430334,24.2239569 163.419922,24.5039062 L165.060547,25.0214844 C167.638685,25.7636756 168.898438,27.1503805 168.839844,29.1816406 C168.833333,29.8457064 168.685223,30.4414036 168.395508,30.96875 C168.105793,31.4960964 167.724937,31.9192692 167.25293,32.2382812 C166.780922,32.5572933 166.256839,32.8014314 165.680664,32.9707031 C165.104489,33.1399748 164.503909,33.2246094 163.878906,33.2246094 C162.388013,33.2246094 161.181971,32.8258503 160.260742,32.0283203 C159.339514,31.2307903 158.878906,30.2070375 158.878906,28.9570312 Z M170.1875,21.8574219 L170.1875,19.2207031 L180.587891,19.2207031 L180.587891,21.8574219 L176.867188,21.8574219 L176.867188,33 L173.908203,33 L173.908203,21.8574219 L170.1875,21.8574219 Z M182.765625,33 L182.765625,19.2207031 L188.400391,19.2207031 C189.149092,19.2207031 189.822914,19.3492826 190.421875,19.6064453 C191.020836,19.8636081 191.502602,20.2086567 191.867188,20.6416016 C192.231773,21.0745464 192.508463,21.5546849 192.697266,22.0820312 C192.886069,22.6093776 192.980469,23.1627575 192.980469,23.7421875 C192.980469,24.7903698 192.687503,25.7229777 192.101562,26.5400391 C191.515622,27.3571004 190.662766,27.8828113 189.542969,28.1171875 L192.960938,33 L189.445312,33 L186.369141,28.2441406 L185.705078,28.2441406 L185.705078,33 L182.765625,33 Z M185.705078,25.6757812 L188.185547,25.6757812 C188.719404,25.6757812 189.142577,25.4772155 189.455078,25.0800781 C189.76758,24.6829407 189.923828,24.2369816 189.923828,23.7421875 C189.923828,23.2604143 189.775718,22.8160828 189.479492,22.4091797 C189.183267,22.0022766 188.777997,21.7988281 188.263672,21.7988281 L185.705078,21.7988281 L185.705078,25.6757812 Z M195.5,33 L195.5,19.2207031 L204.220703,19.2207031 L204.220703,21.7988281 L198.419922,21.7988281 L198.419922,24.9433594 L203.498047,24.9433594 L203.498047,27.4824219 L198.419922,27.4824219 L198.419922,30.421875 L204.396484,30.421875 L204.396484,33 L195.5,33 Z M205.275391,33 L210.392578,19.2207031 L213.576172,19.2207031 L218.673828,33 L215.587891,33 L214.376953,29.7382812 L209.611328,29.7382812 L208.390625,33 L205.275391,33 Z M210.568359,27.1992188 L213.429688,27.1992188 L211.974609,22.4042969 L210.568359,27.1992188 Z M219.425781,33 L221.125,19.2207031 L223.546875,19.2207031 L227.707031,28.0976562 L231.828125,19.2207031 L234.289062,19.2207031 L235.96875,33 L233.029297,33 L232.0625,24.7382812 L228.849609,31.4179688 L226.583984,31.4179688 L223.341797,24.7382812 L222.365234,33 L219.425781,33 Z" id="STREAM"></path>
            </g>
        </g>
    </g>
</svg>