<?xml version="1.0" encoding="utf-8" ?>
<svg xmlns="http://www.w3.org/2000/svg" xmlns:xlink="http://www.w3.org/1999/xlink" width="20" height="20">
	<defs>
		<clipPath id="clip_0">
			<rect x="-1388.4453" y="-35.347168" width="1597.4399" height="1096.2432" clip-rule="evenodd"/>
		</clipPath>
	</defs>
	<g clip-path="url(#clip_0)">
		<path fill="rgb(198,205,211)" stroke="none" transform="matrix(0.9984 0 0 0.9984 0.328125 0.612305)" d="M4.08163 1.61565L4.08163 0.663265C4.08163 -0.221088 5.5102 -0.221088 5.5102 0.663265L5.5102 1.61565L14.7619 1.61565L14.7619 0.663265C14.7619 -0.221088 16.1905 -0.221088 16.1905 0.663265L16.1905 1.61565L17.483 1.61565C18.9116 1.61565 20 2.77211 20 4.13265L20 16.5136C20 17.9422 18.9116 19.0306 17.483 19.0306L2.51701 19.0306C1.08844 19.0306 0 17.9422 0 16.5136L0 4.13265C0 2.77211 1.08844 1.61565 2.51701 1.61565L4.08163 1.61565ZM1.42857 6.71769L18.5714 6.71769L18.5714 4.13265C18.5714 3.52041 18.0952 3.04422 17.483 3.04422L16.1905 3.04422L16.1905 3.92857C16.1905 4.88095 14.7619 4.88095 14.7619 3.92857L14.7619 3.04422L5.5102 3.04422L5.5102 3.92857C5.5102 4.88095 4.08163 4.88095 4.08163 3.92857L4.08163 3.04422L2.51701 3.04422C1.90476 3.04422 1.42857 3.52041 1.42857 4.13265L1.42857 6.71769ZM1.42857 8.14626L18.5714 8.14626L18.5714 16.5136C18.5714 17.1258 18.0952 17.6701 17.483 17.6701L2.51701 17.6701C1.90476 17.6701 1.42857 17.1258 1.42857 16.5136L1.42857 8.14626Z" fill-rule="evenodd"/>
	</g>

</svg>