<?xml version="1.0" encoding="utf-8" ?>
<svg xmlns="http://www.w3.org/2000/svg" xmlns:xlink="http://www.w3.org/1999/xlink" width="50" height="50">
	<defs>
		<clipPath id="clip_0">
			<rect x="-626" y="-107" width="1600" height="1098" clip-rule="evenodd"/>
		</clipPath>
	</defs>
	<g clip-path="url(#clip_0)">
		<path fill="rgb(85,121,243)" fill-opacity="0.2" stroke="none" d="M25 50C38.8071 50 50 38.8071 50 25C50 11.1929 38.8071 0 25 0C11.1929 0 0 11.1929 0 25C0 38.8071 11.1929 50 25 50Z"/>
	</g>
	<defs>
		<clipPath id="clip_1">
			<rect x="-626" y="-107" width="1600" height="1098" clip-rule="evenodd"/>
		</clipPath>
	</defs>
	<g clip-path="url(#clip_1)">
		<path fill="rgb(85,121,243)" stroke="none" transform="translate(19.2188 14.332)" d="M0 15.4883L2.4248 15.4883C2.44173 16.3092 2.81624 17.0435 3.54834 17.6909C4.28044 18.3384 5.18815 18.6621 6.27148 18.6621C7.34636 18.6621 8.18847 18.4103 8.79785 17.9067C9.40723 17.4032 9.76693 16.779 9.87695 16.0342C9.94466 15.154 9.68653 14.4515 9.10254 13.9268C8.51855 13.402 7.76531 13.0423 6.84277 12.8477L4.53223 12.2637C1.62075 11.5273 0.165039 9.97006 0.165039 7.5918C0.165039 6.22916 0.666499 5.09083 1.66943 4.17676C2.67237 3.26269 3.89322 2.73796 5.33203 2.60254L5.33203 0L6.94434 0L6.94434 2.62793C8.36622 2.81413 9.51937 3.36848 10.4038 4.29102C11.2883 5.21355 11.7305 6.3815 11.7305 7.79492L9.30567 7.79492C9.30567 6.91471 8.9904 6.20589 8.35986 5.66846C7.72933 5.13102 6.91895 4.8623 5.92871 4.8623C5.02311 4.8623 4.23812 5.11409 3.57373 5.61768C2.90934 6.12126 2.57715 6.77083 2.57715 7.56641C2.57715 8.81055 3.42773 9.63997 5.12891 10.0547L7.46484 10.626C9.16602 11.0661 10.4334 11.7622 11.2671 12.7144C12.1008 13.6665 12.4287 14.845 12.251 16.25C12.0986 17.5026 11.5506 18.5627 10.6069 19.4302C9.66325 20.2977 8.44239 20.7865 6.94434 20.8965L6.94434 23.7656L5.33203 23.7656L5.33203 20.8711C3.77473 20.6764 2.49675 20.0607 1.49805 19.0239C0.499344 17.9871 0 16.8086 0 15.4883Z"/>
	</g>

</svg>