<?xml version="1.0" encoding="utf-8" ?>
<svg xmlns="http://www.w3.org/2000/svg" xmlns:xlink="http://www.w3.org/1999/xlink" width="50" height="50">
	<path fill="rgb(255,154,0)" stroke="none" transform="translate(11.0001 15)" d="M13.7499 0C19.9865 0 25.4905 3.81824 27.4466 9.5019C27.5176 9.70881 27.5176 9.93405 27.4466 10.141C25.4905 15.8246 19.9865 19.6429 13.7499 19.6429C7.51331 19.6429 2.00938 15.8246 0.0532812 10.1406C-0.0177604 9.93405 -0.0177604 9.70848 0.0532812 9.5019C2.00938 3.81824 7.51331 0 13.7499 0ZM2.02608 9.82143C3.80278 14.5354 8.46992 17.6786 13.7499 17.6786C19.0299 17.6786 23.6971 14.5354 25.4738 9.82143C23.6971 5.10747 19.0299 1.96429 13.7499 1.96429C8.46992 1.96429 3.80278 5.10747 2.02608 9.82143Z" fill-rule="evenodd"/>
	<path fill="rgb(255,154,0)" stroke="none" transform="translate(18.8571 18.9286)" d="M0 5.89286C0 2.64327 2.64327 0 5.89286 0C9.14244 0 11.7857 2.64327 11.7857 5.89286C11.7857 9.14244 9.14244 11.7857 5.89286 11.7857C2.64327 11.7857 0 9.14244 0 5.89286ZM1.96429 5.89286C1.96429 8.05946 3.72658 9.82143 5.89286 9.82143C8.05914 9.82143 9.82143 8.05946 9.82143 5.89286C9.82143 3.72658 8.05914 1.96429 5.89286 1.96429C3.72658 1.96429 1.96429 3.72658 1.96429 5.89286Z" fill-rule="evenodd"/>
	<path fill="rgb(255,154,0)" fill-opacity="0.2" stroke="none" d="M25 50C38.8071 50 50 38.8071 50 25C50 11.1929 38.8071 0 25 0C11.1929 0 0 11.1929 0 25C0 38.8071 11.1929 50 25 50Z"/>

</svg>