<?xml version="1.0" encoding="utf-8" ?>
<svg xmlns="http://www.w3.org/2000/svg" xmlns:xlink="http://www.w3.org/1999/xlink" width="80" height="80">
	<defs>
		<clipPath id="clip_0">
			<rect x="-760" y="-176" width="1600" height="900" clip-rule="evenodd"/>
		</clipPath>
	</defs>
	<g clip-path="url(#clip_0)">
		<path fill="rgb(85,121,243)" stroke="none" d="M0 40C0 17.92 17.92 0 40 0C62.08 0 80 17.92 80 40C80 62.08 62.08 80 40 80C17.92 80 0 62.08 0 40ZM34.08 55.84L61.44 28.48C62.624 27.296 62.656 25.376 61.44 24.16C60.832 23.584 60 23.232 59.168 23.264C58.4 23.296 57.632 23.616 57.088 24.192L31.744 49.536L22.752 41.76C21.536 40.608 19.616 40.672 18.464 41.888C17.312 43.104 17.376 45.024 18.592 46.176C18.688 46.24 18.752 46.304 18.816 46.368L29.952 56C31.168 57.024 32.96 56.96 34.08 55.84Z" fill-rule="evenodd"/>
	</g>

</svg>