<?xml version="1.0" encoding="utf-8" ?>
<svg xmlns="http://www.w3.org/2000/svg" xmlns:xlink="http://www.w3.org/1999/xlink" width="8" height="14">
	<defs>
		<clipPath id="clip_0">
			<rect x="-1417.5996" y="-406.82983" width="1456" height="1037.4" clip-rule="evenodd"/>
		</clipPath>
	</defs>
	<g clip-path="url(#clip_0)">
		<path fill="rgb(53,65,104)" stroke="none" transform="matrix(-3.97774e-08 0.91 -0.91 -3.97774e-08 7.23438 0.166992)" d="M7.21942 0.000746878C6.97185 0.00653582 6.73523 0.103969 6.55537 0.274184L0.305371 6.2742C-0.0917462 6.65858 -0.103012 7.29181 0.280181 7.69007C0.663373 8.08834 1.29656 8.1015 1.69597 7.7195L7.25067 2.38357L12.8054 7.7195C13.2048 8.1015 13.838 8.08834 14.2212 7.69007C14.6044 7.29181 14.5931 6.65858 14.196 6.2742L7.94597 0.274184C7.75048 0.0889282 7.48854 -0.0096538 7.21942 0.000746878Z"/>
	</g>

</svg>