<?xml version="1.0" encoding="utf-8" ?>
<svg xmlns="http://www.w3.org/2000/svg" xmlns:xlink="http://www.w3.org/1999/xlink" width="20" height="20">
	<defs>
		<clipPath id="clip_0">
			<rect x="-1217.0391" y="-141.10986" width="1552" height="873" clip-rule="evenodd"/>
		</clipPath>
	</defs>
	<g clip-path="url(#clip_0)">
		<path fill="#000000" stroke="none" transform="matrix(0.97 0 0 0.97 0.3125 0.51001)" d="M19.5477 17.4372C20.1508 18.0402 20.1508 18.995 19.5477 19.598C19.2462 19.8995 18.8442 20.0503 18.4925 20.0503C18.0905 20.0503 17.7387 19.8995 17.4372 19.598L10 12.2111L2.61307 19.598C2.31156 19.8995 1.90955 20.0503 1.55779 20.0503C1.20603 20.0503 0.753769 19.8995 0.452261 19.598C-0.150754 18.995 -0.150754 18.0402 0.452261 17.4372L7.8392 10.0503L0.452261 2.61307C-0.150754 2.01005 -0.150754 1.05528 0.452261 0.452261C1.05528 -0.150754 2.01005 -0.150754 2.61307 0.452261L10 7.88945L17.3869 0.502513C17.99 -0.100503 18.9447 -0.100503 19.5477 0.502513C20.1508 1.10553 20.1508 2.0603 19.5477 2.66332L12.1608 10.0503L19.5477 17.4372Z"/>
	</g>

</svg>