<?xml version="1.0" encoding="utf-8" ?>
<svg xmlns="http://www.w3.org/2000/svg" xmlns:xlink="http://www.w3.org/1999/xlink" width="80" height="84">
	<defs>
		<clipPath id="clip_0">
			<rect x="-157.85938" y="-463.55957" width="6352" height="3573" clip-rule="evenodd"/>
		</clipPath>
	</defs>
	<g clip-path="url(#clip_0)">
		<path fill="rgb(198,205,211)" stroke="none" transform="matrix(3.97 0 0 3.97 0.9375 0.929688)" d="M7.72727 0L12.2727 0C12.5455 0 12.7273 0.181818 12.7273 0.454545L12.7273 20.4545C12.7273 20.7273 12.5455 20.9091 12.2727 20.9091L7.72727 20.9091C7.45455 20.9091 7.27273 20.7273 7.27273 20.4545L7.27273 0.454545C7.27273 0.181818 7.45455 0 7.72727 0ZM8.18182 20L11.8182 20L11.8182 0.909091L8.18182 0.909091L8.18182 20ZM19.5455 5.45455L15 5.45455C14.7273 5.45455 14.5455 5.63636 14.5455 5.90909L14.5455 20.4545C14.5455 20.7273 14.7273 20.9091 15 20.9091L19.5455 20.9091C19.8182 20.9091 20 20.7273 20 20.4545L20 5.90909C20 5.63636 19.8182 5.45455 19.5455 5.45455ZM15.4545 20L19.0909 20L19.0909 6.36364L15.4545 6.36364L15.4545 20ZM5 10.9091L0.454545 10.9091C0.181818 10.9091 0 11.0909 0 11.3636L0 20.4545C0 20.7273 0.181818 20.9091 0.454545 20.9091L5 20.9091C5.27273 20.9091 5.45455 20.7273 5.45455 20.4545L5.45455 11.3636C5.45455 11.0909 5.27273 10.9091 5 10.9091ZM0.909091 20L4.54545 20L4.54545 11.8182L0.909091 11.8182L0.909091 20Z" fill-rule="evenodd"/>
	</g>

</svg>