<?xml version="1.0" encoding="utf-8" ?>
<svg xmlns="http://www.w3.org/2000/svg" xmlns:xlink="http://www.w3.org/1999/xlink" width="38" height="40">
	<defs>
		<clipPath id="clip_0">
			<rect x="-70" y="-1678" width="1260" height="2852" clip-rule="evenodd"/>
		</clipPath>
	</defs>
	<g clip-path="url(#clip_0)">
		<path fill="rgb(85,121,243)" stroke="none" d="M14.6818 0L23.3182 0C23.8364 0 24.1818 0.34632 24.1818 0.865801L24.1818 38.961C24.1818 39.4805 23.8364 39.8268 23.3182 39.8268L14.6818 39.8268C14.1636 39.8268 13.8182 39.4805 13.8182 38.961L13.8182 0.865801C13.8182 0.34632 14.1636 0 14.6818 0ZM15.5455 38.0952L22.4545 38.0952L22.4545 1.7316L15.5455 1.7316L15.5455 38.0952ZM37.1364 10.3896L28.5 10.3896C27.9818 10.3896 27.6364 10.7359 27.6364 11.2554L27.6364 38.961C27.6364 39.4805 27.9818 39.8268 28.5 39.8268L37.1364 39.8268C37.6545 39.8268 38 39.4805 38 38.961L38 11.2554C38 10.7359 37.6545 10.3896 37.1364 10.3896ZM29.3636 38.0952L36.2727 38.0952L36.2727 12.1212L29.3636 12.1212L29.3636 38.0952ZM9.5 20.7792L0.863636 20.7792C0.345455 20.7792 0 21.1255 0 21.645L0 38.961C0 39.4805 0.345455 39.8268 0.863636 39.8268L9.5 39.8268C10.0182 39.8268 10.3636 39.4805 10.3636 38.961L10.3636 21.645C10.3636 21.1255 10.0182 20.7792 9.5 20.7792ZM1.72727 38.0952L8.63636 38.0952L8.63636 22.5108L1.72727 22.5108L1.72727 38.0952Z" fill-rule="evenodd"/>
	</g>
	<defs>
		<clipPath id="clip_1">
			<rect x="-70" y="-1678" width="1260" height="2852" clip-rule="evenodd"/>
		</clipPath>
	</defs>
	<g clip-path="url(#clip_1)">
		<path fill="none" stroke="rgb(85,121,243)" stroke-width="0.25" stroke-linecap="round" stroke-linejoin="round" d="M14.6818 0L23.3182 0C23.8364 0 24.1818 0.34632 24.1818 0.865801L24.1818 38.961C24.1818 39.4805 23.8364 39.8268 23.3182 39.8268L14.6818 39.8268C14.1636 39.8268 13.8182 39.4805 13.8182 38.961L13.8182 0.865801C13.8182 0.34632 14.1636 0 14.6818 0ZM15.5455 38.0952L22.4545 38.0952L22.4545 1.7316L15.5455 1.7316L15.5455 38.0952ZM37.1364 10.3896L28.5 10.3896C27.9818 10.3896 27.6364 10.7359 27.6364 11.2554L27.6364 38.961C27.6364 39.4805 27.9818 39.8268 28.5 39.8268L37.1364 39.8268C37.6545 39.8268 38 39.4805 38 38.961L38 11.2554C38 10.7359 37.6545 10.3896 37.1364 10.3896ZM29.3636 38.0952L36.2727 38.0952L36.2727 12.1212L29.3636 12.1212L29.3636 38.0952ZM9.5 20.7792L0.863636 20.7792C0.345455 20.7792 0 21.1255 0 21.645L0 38.961C0 39.4805 0.345455 39.8268 0.863636 39.8268L9.5 39.8268C10.0182 39.8268 10.3636 39.4805 10.3636 38.961L10.3636 21.645C10.3636 21.1255 10.0182 20.7792 9.5 20.7792ZM1.72727 38.0952L8.63636 38.0952L8.63636 22.5108L1.72727 22.5108L1.72727 38.0952Z" fill-rule="evenodd"/>
	</g>

</svg>