<?xml version="1.0" encoding="utf-8" ?>
<svg xmlns="http://www.w3.org/2000/svg" xmlns:xlink="http://www.w3.org/1999/xlink" width="20" height="18">
	<defs>
		<clipPath id="clip_0">
			<rect x="-1305" y="-163" width="1600" height="900" clip-rule="evenodd"/>
		</clipPath>
	</defs>
	<g clip-path="url(#clip_0)">
		<path fill="rgb(198,205,211)" stroke="none" transform="translate(0 0.0290527)" d="M0.724638 1.85507L11.4203 1.85507C11.7391 0.782609 12.7246 0 13.913 0C15.0725 0 16.058 0.782609 16.3768 1.85507L19.0145 1.85507C19.4203 1.85507 19.7391 2.17391 19.7391 2.57971C19.7391 2.98551 19.4203 3.30435 19.0145 3.30435L16.3768 3.30435C16.087 4.37681 15.0725 5.15942 13.913 5.15942C12.7246 5.15942 11.7391 4.37681 11.4203 3.30435L0.724638 3.30435C0.318841 3.30435 0 2.98551 0 2.57971C0 2.17391 0.318841 1.85507 0.724638 1.85507ZM13.8841 3.71014C14.4928 3.71014 15.0145 3.21739 15.0145 2.57971C15.0145 1.94203 14.4638 1.44928 13.8841 1.44928C13.2754 1.44928 12.7536 1.94203 12.7536 2.57971C12.7536 3.21739 13.2754 3.71014 13.8841 3.71014Z" fill-rule="evenodd"/>
	</g>
	<defs>
		<clipPath id="clip_1">
			<rect x="-1305" y="-163" width="1600" height="900" clip-rule="evenodd"/>
		</clipPath>
	</defs>
	<g clip-path="url(#clip_1)">
		<path fill="rgb(198,205,211)" stroke="none" transform="translate(0 5.82617)" d="M0.724638 1.85507L2.72464 1.85507C3.04348 0.782609 4.02899 0 5.21739 0C6.37681 0 7.36232 0.782609 7.68116 1.85507L19.0145 1.85507C19.4203 1.85507 19.7391 2.17391 19.7391 2.57971C19.7391 2.98551 19.4203 3.30435 19.0145 3.30435L7.68116 3.30435C7.3913 4.37681 6.37681 5.15942 5.21739 5.15942C4.02899 5.15942 3.04348 4.37681 2.72464 3.30435L0.724638 3.30435C0.318841 3.30435 0 2.98551 0 2.57971C0 2.17391 0.318841 1.85507 0.724638 1.85507ZM5.18841 3.71014C5.7971 3.71014 6.31884 3.21739 6.31884 2.57971C6.31884 1.94203 5.7971 1.44928 5.18841 1.44928C4.57971 1.44928 4.05797 1.94203 4.05797 2.57971C4.05797 3.21739 4.57971 3.71014 5.18841 3.71014Z" fill-rule="evenodd"/>
	</g>
	<defs>
		<clipPath id="clip_2">
			<rect x="-1305" y="-163" width="1600" height="900" clip-rule="evenodd"/>
		</clipPath>
	</defs>
	<g clip-path="url(#clip_2)">
		<path fill="rgb(198,205,211)" stroke="none" transform="translate(0 12.2029)" d="M0.724638 1.85507L7.94203 1.85507C8.26087 0.782609 9.24638 0 10.4348 0C11.5942 0 12.5797 0.782609 12.8986 1.85507L19.0145 1.85507C19.4203 1.85507 19.7391 2.17391 19.7391 2.57971C19.7391 2.98551 19.4203 3.30435 19.0145 3.30435L12.8986 3.30435C12.6087 4.37681 11.5942 5.15942 10.4348 5.15942C9.24638 5.15942 8.26087 4.37681 7.94203 3.30435L0.724638 3.30435C0.318841 3.30435 0 2.98551 0 2.57971C0 2.17391 0.318841 1.85507 0.724638 1.85507ZM10.4058 3.71014C11.0145 3.71014 11.5362 3.21739 11.5362 2.57971C11.5362 1.94203 11.0145 1.44928 10.4058 1.44928C9.7971 1.44928 9.27536 1.94203 9.27536 2.57971C9.27536 3.21739 9.7971 3.71014 10.4058 3.71014Z" fill-rule="evenodd"/>
	</g>

</svg>