<?xml version="1.0" encoding="utf-8" ?>
<svg xmlns="http://www.w3.org/2000/svg" xmlns:xlink="http://www.w3.org/1999/xlink" width="20" height="20">
	<defs>
		<clipPath id="clip_0">
			<rect x="-1494" y="-162" width="1600" height="900" clip-rule="evenodd"/>
		</clipPath>
	</defs>
	<g clip-path="url(#clip_0)">
		<path fill="rgb(85,121,243)" stroke="none" d="M6.91892 8.91892L2 8.91892C0.891892 8.91892 0 8.02703 0 6.91892L0 2C0 0.891892 0.891892 0 2 0L6.91892 0C8.02703 0 8.91892 0.891892 8.91892 2L8.91892 6.91892C8.91892 8.02703 8.02703 8.91892 6.91892 8.91892ZM2 1.08108C1.48649 1.08108 1.08108 1.48649 1.08108 2L1.08108 6.91892C1.08108 7.43243 1.48649 7.83784 2 7.83784L6.91892 7.83784C7.43243 7.83784 7.83784 7.43243 7.83784 6.91892L7.83784 2C7.83784 1.48649 7.43243 1.08108 6.91892 1.08108L2 1.08108Z" fill-rule="evenodd"/>
	</g>
	<defs>
		<clipPath id="clip_1">
			<rect x="-1494" y="-162" width="1600" height="900" clip-rule="evenodd"/>
		</clipPath>
	</defs>
	<g clip-path="url(#clip_1)">
		<path fill="rgb(85,121,243)" stroke="none" transform="translate(11.082 0)" d="M2 0L6.91892 0C8.02703 0 8.91892 0.891892 8.91892 2L8.91892 6.91892C8.91892 8.02703 8.02703 8.91892 6.91892 8.91892L2 8.91892C0.891892 8.91892 0 8.02703 0 6.91892L0 2C0 0.891892 0.891892 0 2 0ZM6.91892 7.83784C7.43243 7.83784 7.83784 7.43243 7.83784 6.91892L7.83784 2C7.83784 1.48649 7.43243 1.08108 6.91892 1.08108L2 1.08108C1.48649 1.08108 1.08108 1.48649 1.08108 2L1.08108 6.91892C1.08108 7.43243 1.48649 7.83784 2 7.83784L6.91892 7.83784Z" fill-rule="evenodd"/>
	</g>
	<defs>
		<clipPath id="clip_2">
			<rect x="-1494" y="-162" width="1600" height="900" clip-rule="evenodd"/>
		</clipPath>
	</defs>
	<g clip-path="url(#clip_2)">
		<path fill="rgb(85,121,243)" stroke="none" transform="translate(11.082 11.0801)" d="M2 0L6.91892 0C8.02703 0 8.91892 0.891892 8.91892 2L8.91892 6.91892C8.91892 8.02703 8.02703 8.91892 6.91892 8.91892L2 8.91892C0.891892 8.91892 0 8.02703 0 6.91892L0 2C0 0.891892 0.891892 0 2 0ZM6.91892 7.83784C7.43243 7.83784 7.83784 7.43243 7.83784 6.91892L7.83784 2C7.83784 1.48649 7.43243 1.08108 6.91892 1.08108L2 1.08108C1.48649 1.08108 1.08108 1.48649 1.08108 2L1.08108 6.91892C1.08108 7.43243 1.48649 7.83784 2 7.83784L6.91892 7.83784Z" fill-rule="evenodd"/>
	</g>
	<defs>
		<clipPath id="clip_3">
			<rect x="-1494" y="-162" width="1600" height="900" clip-rule="evenodd"/>
		</clipPath>
	</defs>
	<g clip-path="url(#clip_3)">
		<path fill="rgb(85,121,243)" stroke="none" transform="translate(0 11.0811)" d="M6.91892 8.91892L2 8.91892C0.891892 8.91892 0 8.02703 0 6.91892L0 2C0 0.891892 0.891892 0 2 0L6.91892 0C8.02703 0 8.91892 0.891892 8.91892 2L8.91892 6.91892C8.91892 8.02703 8.02703 8.91892 6.91892 8.91892ZM2 1.08108C1.48649 1.08108 1.08108 1.48649 1.08108 2L1.08108 6.91892C1.08108 7.43243 1.48649 7.83784 2 7.83784L6.91892 7.83784C7.43243 7.83784 7.83784 7.43243 7.83784 6.91892L7.83784 2C7.83784 1.48649 7.43243 1.08108 6.91892 1.08108L2 1.08108Z" fill-rule="evenodd"/>
	</g>

</svg>