<?xml version="1.0" encoding="utf-8" ?>
<svg xmlns="http://www.w3.org/2000/svg" xmlns:xlink="http://www.w3.org/1999/xlink" width="25" height="25">
	<defs>
		<clipPath id="clip_0">
			<rect x="-355" y="-702" width="1600" height="900" clip-rule="evenodd"/>
		</clipPath>
	</defs>
	<g clip-path="url(#clip_0)">
		<path fill="rgb(198,205,211)" stroke="none" transform="matrix(-1 0 0 1 16.6641 0.000488281)" d="M14.7102 1.95231C12.1064 -0.650769 7.8853 -0.650769 5.28227 1.95231L1.56235 5.67076C1.85684 5.63873 2.15439 5.62496 2.45347 5.62496C3.39487 5.62496 4.3103 5.77452 5.17695 6.06285L7.28486 3.95568C8.00884 3.23092 8.97163 2.83268 9.99546 2.83268C11.0194 2.83268 11.9822 3.23092 12.7062 3.95568C13.4302 4.67892 13.8283 5.6402 13.8283 6.66554C13.8283 7.68937 13.4302 8.65216 12.7062 9.3754L8.58188 13.4997C7.85796 14.2245 6.89512 14.6227 5.87129 14.6227C4.8459 14.6227 3.88467 14.2245 3.15996 13.4997C2.80747 13.1487 2.53286 12.7398 2.34365 12.2943C1.87368 12.3202 1.43428 12.5155 1.09858 12.8511L0 13.9512C0.300586 14.5081 0.686621 15.033 1.15659 15.5046C3.75962 18.1077 7.98149 18.1077 10.5853 15.5046L14.7103 11.3787C17.3125 8.77579 17.3125 4.55538 14.7102 1.95231Z"/>
	</g>
	<defs>
		<clipPath id="clip_1">
			<rect x="-355" y="-702" width="1600" height="900" clip-rule="evenodd"/>
		</clipPath>
	</defs>
	<g clip-path="url(#clip_1)">
		<path fill="rgb(198,205,211)" stroke="none" transform="matrix(-1 0 0 1 25 7.54102)" d="M14.2528 11.8319C13.3099 11.8319 12.3852 11.6793 11.4988 11.3787L9.3764 13.5012C8.65316 14.226 7.69042 14.6242 6.66659 14.6242C5.64276 14.6242 4.68153 14.226 3.95673 13.5012C3.23197 12.7779 2.83373 11.8152 2.83373 10.7914C2.83373 9.76749 3.23197 8.80465 3.95673 8.07999L8.08099 3.95573C8.80575 3.23248 9.76703 2.83424 10.7909 2.83424C11.8162 2.83424 12.7775 3.23248 13.5014 3.95573C13.8539 4.30817 14.1292 4.7171 14.3193 5.16261C14.7908 5.1382 15.2309 4.94137 15.5666 4.60572L16.6637 3.50714C16.3631 2.94865 15.9763 2.42379 15.5056 1.95231C12.9026 -0.650769 8.6807 -0.650769 6.07767 1.95231L1.95341 6.07814C-0.651135 8.68131 -0.651135 12.9016 1.95341 15.5062C4.55643 18.1093 8.77684 18.1093 11.3798 15.5062L15.0936 11.7923C14.8167 11.8182 14.5367 11.832 14.2544 11.832L14.2528 11.8319L14.2528 11.8319Z"/>
	</g>

</svg>