<?xml version="1.0" encoding="utf-8" ?>
<svg xmlns="http://www.w3.org/2000/svg" xmlns:xlink="http://www.w3.org/1999/xlink" width="50" height="51">
	<defs>
		<clipPath id="clip_0">
			<rect x="-775" y="-564" width="1600" height="900" clip-rule="evenodd"/>
		</clipPath>
	</defs>
	<g clip-path="url(#clip_0)">
		<path fill="rgb(0,122,185)" stroke="none" transform="translate(0 0.442139)" d="M24.8221 49.6442C38.531 49.6442 49.6442 38.531 49.6442 24.8221C49.6442 11.1132 38.531 0 24.8221 0C11.1132 0 0 11.1132 0 24.8221C0 38.531 11.1132 49.6442 24.8221 49.6442Z"/>
	</g>
	<defs>
		<clipPath id="clip_1">
			<rect x="-775" y="-564" width="1600" height="900" clip-rule="evenodd"/>
		</clipPath>
	</defs>
	<g clip-path="url(#clip_1)">
		<path fill="rgb(255,255,255)" stroke="none" transform="translate(11.9766 11.0483)" d="M3.35752 0C1.32788 0 0 1.3323 0 3.08274C0 4.79602 1.28938 6.16681 3.27965 6.16681L3.31814 6.16681C5.38761 6.16681 6.67434 4.79602 6.67434 3.08274C6.63496 1.3323 5.38761 0 3.35752 0ZM27.6761 16.2133L27.6761 26.4469L21.7429 26.4469L21.7429 16.8991C21.7429 14.5018 20.8863 12.8646 18.7381 12.8646C17.0987 12.8646 16.1248 13.9668 15.6947 15.0341C15.5385 15.4155 15.4982 15.9451 15.4982 16.4801L15.4982 26.4465L9.5646 26.4465C9.5646 26.4465 9.64425 10.2757 9.5646 8.60177L15.4987 8.60177L15.4987 11.1305C15.4867 11.1504 15.4699 11.1699 15.4593 11.1889L15.4987 11.1889L15.4987 11.1305C16.2872 9.91726 17.6934 8.18274 20.846 8.18274C24.7496 8.18274 27.6761 10.7332 27.6761 16.2133ZM6.28407 26.4469L0.352655 26.4469L0.352655 8.60177L6.28407 8.60177L6.28407 26.4469Z" fill-rule="evenodd"/>
	</g>

</svg>