<?xml version="1.0" encoding="utf-8" ?>
<svg xmlns="http://www.w3.org/2000/svg" xmlns:xlink="http://www.w3.org/1999/xlink" width="20" height="19">
	<defs>
		<clipPath id="clip_0">
			<rect x="-1451" y="-163" width="1600" height="900" clip-rule="evenodd"/>
		</clipPath>
	</defs>
	<g clip-path="url(#clip_0)">
		<path fill="rgb(85,121,243)" stroke="none" d="M1 0L19 0Q19.1027 0 19.2014 0.0186045Q19.3002 0.037209 19.3917 0.0738122Q19.4832 0.110415 19.5645 0.163826Q19.6458 0.217236 19.7143 0.285714Q19.7828 0.354193 19.8362 0.43551Q19.8896 0.516827 19.9262 0.608335Q19.9628 0.699843 19.9814 0.798563Q20 0.897283 20 1L20 2Q20 2.10272 19.9814 2.20144Q19.9628 2.30016 19.9262 2.39167Q19.8896 2.48317 19.8362 2.56449Q19.7828 2.64581 19.7143 2.71429Q19.6458 2.78276 19.5645 2.83617Q19.4832 2.88958 19.3917 2.92619Q19.3002 2.96279 19.2014 2.9814Q19.1027 3 19 3L1 3Q0.897283 3 0.798563 2.9814Q0.699843 2.96279 0.608335 2.92619Q0.516827 2.88958 0.43551 2.83617Q0.354193 2.78276 0.285714 2.71429Q0.217236 2.64581 0.163826 2.56449Q0.110415 2.48317 0.0738122 2.39167Q0.037209 2.30016 0.0186045 2.20144Q0 2.10272 0 2L0 1Q0 0.897283 0.0186045 0.798563Q0.037209 0.699843 0.0738122 0.608335Q0.110415 0.516827 0.163826 0.43551Q0.217236 0.354193 0.285714 0.285714Q0.354193 0.217236 0.43551 0.163826Q0.516827 0.110415 0.608335 0.0738122Q0.699843 0.037209 0.798563 0.0186045Q0.897283 0 1 0Z"/>
	</g>
	<defs>
		<clipPath id="clip_1">
			<rect x="-1451" y="-163" width="1600" height="900" clip-rule="evenodd"/>
		</clipPath>
	</defs>
	<g clip-path="url(#clip_1)">
		<path fill="rgb(85,121,243)" stroke="none" transform="translate(0 8)" d="M1 0L19 0Q19.1027 0 19.2014 0.0186045Q19.3002 0.037209 19.3917 0.0738122Q19.4832 0.110415 19.5645 0.163826Q19.6458 0.217236 19.7143 0.285714Q19.7828 0.354193 19.8362 0.43551Q19.8896 0.516827 19.9262 0.608335Q19.9628 0.699843 19.9814 0.798563Q20 0.897283 20 1L20 2Q20 2.10272 19.9814 2.20144Q19.9628 2.30016 19.9262 2.39167Q19.8896 2.48317 19.8362 2.56449Q19.7828 2.64581 19.7143 2.71429Q19.6458 2.78276 19.5645 2.83617Q19.4832 2.88958 19.3917 2.92619Q19.3002 2.96279 19.2014 2.9814Q19.1027 3 19 3L1 3Q0.897283 3 0.798563 2.9814Q0.699843 2.96279 0.608335 2.92619Q0.516827 2.88958 0.43551 2.83617Q0.354193 2.78276 0.285714 2.71429Q0.217236 2.64581 0.163826 2.56449Q0.110415 2.48317 0.0738122 2.39167Q0.037209 2.30016 0.0186045 2.20144Q0 2.10272 0 2L0 1Q0 0.897283 0.0186045 0.798563Q0.037209 0.699843 0.0738122 0.608335Q0.110415 0.516827 0.163826 0.43551Q0.217236 0.354193 0.285714 0.285714Q0.354193 0.217236 0.43551 0.163826Q0.516827 0.110415 0.608335 0.0738122Q0.699843 0.037209 0.798563 0.0186045Q0.897283 0 1 0Z"/>
	</g>
	<defs>
		<clipPath id="clip_2">
			<rect x="-1451" y="-163" width="1600" height="900" clip-rule="evenodd"/>
		</clipPath>
	</defs>
	<g clip-path="url(#clip_2)">
		<path fill="rgb(85,121,243)" stroke="none" transform="translate(0 16)" d="M1 0L19 0Q19.1027 0 19.2014 0.0186045Q19.3002 0.037209 19.3917 0.0738122Q19.4832 0.110415 19.5645 0.163826Q19.6458 0.217236 19.7143 0.285714Q19.7828 0.354193 19.8362 0.43551Q19.8896 0.516827 19.9262 0.608335Q19.9628 0.699843 19.9814 0.798563Q20 0.897283 20 1L20 2Q20 2.10272 19.9814 2.20144Q19.9628 2.30016 19.9262 2.39167Q19.8896 2.48317 19.8362 2.56449Q19.7828 2.64581 19.7143 2.71429Q19.6458 2.78276 19.5645 2.83617Q19.4832 2.88958 19.3917 2.92619Q19.3002 2.96279 19.2014 2.9814Q19.1027 3 19 3L1 3Q0.897283 3 0.798563 2.9814Q0.699843 2.96279 0.608335 2.92619Q0.516827 2.88958 0.43551 2.83617Q0.354193 2.78276 0.285714 2.71429Q0.217236 2.64581 0.163826 2.56449Q0.110415 2.48317 0.0738122 2.39167Q0.037209 2.30016 0.0186045 2.20144Q0 2.10272 0 2L0 1Q0 0.897283 0.0186045 0.798563Q0.037209 0.699843 0.0738122 0.608335Q0.110415 0.516827 0.163826 0.43551Q0.217236 0.354193 0.285714 0.285714Q0.354193 0.217236 0.43551 0.163826Q0.516827 0.110415 0.608335 0.0738122Q0.699843 0.037209 0.798563 0.0186045Q0.897283 0 1 0Z"/>
	</g>

</svg>