<?xml version="1.0" encoding="utf-8"?>
<!-- Generator: Adobe Illustrator 23.0.1, SVG Export Plug-In . SVG Version: 6.00 Build 0)  -->
<svg version="1.1" id="Слой_1" xmlns="http://www.w3.org/2000/svg" xmlns:xlink="http://www.w3.org/1999/xlink" x="0px" y="0px"
	 viewBox="0 0 800 600" style="enable-background:new 0 0 800 600;" xml:space="preserve">
<style type="text/css">
	.st0{opacity:0.44;fill:#5579F3;}
	.st1{fill:#5579F3;}
	.st2{opacity:0.3;fill:#5579F3;}
	.st3{opacity:0.16;fill:#5579F3;}
	.st4{fill:#FFFFFF;}
	.st5{fill:url(#SVGID_1_);}
</style>
<g>
	<rect id="pix3_2_" x="511.16" y="276.22" class="st0" width="59.2" height="59.2"/>
	<rect x="308.81" y="204.64" class="st1" width="33.79" height="59.2"/>
	<rect x="309.35" y="140.06" class="st1" width="59.2" height="59.2"/>
	<rect x="446.58" y="204.64" class="st1" width="59.2" height="59.2"/>
	<rect id="pix1_2_" x="115.06" y="204.64" class="st0" width="59.2" height="59.2"/>
	<rect id="pix2_2_" x="179.64" y="269.22" class="st1" width="59.2" height="59.2"/>
	<rect id="pix3-2_2_" x="244.22" y="204.64" class="st2" width="59.2" height="59.2"/>
	<rect id="pix4_2_" x="244.22" y="269.22" class="st1" width="59.2" height="59.2"/>
	<rect id="pix5_2_" x="244.22" y="333.8" class="st0" width="59.2" height="59.2"/>
	<rect x="446.58" y="340.8" class="st1" width="59.2" height="59.2"/>
	<rect id="pix10_2_" x="510.63" y="140.06" class="st0" width="59.2" height="59.2"/>
	<rect id="pix12_2_" x="575.75" y="211.1" class="st2" width="59.2" height="59.2"/>
	<rect id="pix13_2_" x="575.75" y="276.22" class="st3" width="59.2" height="59.2"/>
	<g>
		<path class="st4" d="M542.1,276.22c-1.61,7.37-6.28,13.71-12.84,17.43l-21.87,12.63l-59.79,34.52l-4.79,2.77l-54.93,31.72
			c-17.98,10.38-40.44-2.6-40.44-23.35V188.67c0-15.14,11.96-26.15,25.41-26.96c5.26-0.31,10.49,0.95,15.03,3.61l80.23,46.32
			l33.91,19.58l27.25,15.73C539.51,252.82,544.72,264.7,542.1,276.22z"/>
		<path class="st4" d="M374.4,382.98c-5.32,0-10.65-1.4-15.5-4.2c-9.71-5.6-15.5-15.64-15.5-26.85V188.67
			c0-16.39,12.83-30,29.21-30.99c6.08-0.35,12.06,1.08,17.31,4.15l80.21,46.31l61.15,35.32c11.85,6.79,17.78,20.31,14.76,33.64
			c-1.86,8.47-7.24,15.78-14.78,20.06L389.9,378.78C385.05,381.58,379.73,382.98,374.4,382.98z M374.41,165.7
			c-0.44,0-0.88,0.01-1.33,0.04c-10.62,0.64-21.61,9.39-21.61,22.93v163.26c0,8.29,4.29,15.71,11.46,19.85
			c7.18,4.14,15.75,4.15,22.93,0l141.38-81.63c5.58-3.17,9.55-8.56,10.91-14.8l0.01-0.03c2.24-9.85-2.14-19.85-10.91-24.87
			l-141.39-81.64C382.36,166.77,378.43,165.7,374.41,165.7z"/>
	</g>
	<g>
		
			<linearGradient id="SVGID_1_" gradientUnits="userSpaceOnUse" x1="300.0895" y1="408.4869" x2="432.4724" y2="301.1243" gradientTransform="matrix(1 0 0 -1 0 602)">
			<stop  offset="0" style="stop-color:#E6ECFD;stop-opacity:0.3277"/>
			<stop  offset="0.3622" style="stop-color:#8BA4F7;stop-opacity:0.6211"/>
			<stop  offset="0.6212" style="stop-color:#7391F5;stop-opacity:0.8472"/>
			<stop  offset="0.7503" style="stop-color:#6C8BF5;stop-opacity:0.9616"/>
			<stop  offset="0.8664" style="stop-color:#5F81F4;stop-opacity:0.9969"/>
			<stop  offset="1" style="stop-color:#5579F3"/>
		</linearGradient>
		<path class="st5" d="M542.1,276.22c-1.61,7.37-6.28,13.71-12.84,17.43l-21.87,12.63l-59.79,34.52l-4.79,2.77l-54.93,31.72
			c-17.98,10.38-40.44-2.6-40.44-23.35V188.67c0-15.14,11.96-26.15,25.41-26.96c5.26-0.31,10.49,0.95,15.03,3.61l80.23,46.32
			l33.91,19.58l27.25,15.73C539.51,252.82,544.72,264.7,542.1,276.22z"/>
		<path class="st4" d="M374.4,382.98c-5.32,0-10.65-1.4-15.5-4.2c-9.71-5.6-15.5-15.64-15.5-26.85V188.67
			c0-16.39,12.83-30,29.21-30.99c6.08-0.35,12.06,1.08,17.31,4.15l80.21,46.31l61.15,35.32c11.85,6.79,17.78,20.31,14.76,33.64
			c-1.86,8.47-7.24,15.78-14.78,20.06L389.9,378.78C385.05,381.58,379.73,382.98,374.4,382.98z M374.41,165.7
			c-0.44,0-0.88,0.01-1.33,0.04c-10.62,0.64-21.61,9.39-21.61,22.93v163.26c0,8.29,4.29,15.71,11.46,19.85
			c7.18,4.14,15.75,4.15,22.93,0l141.38-81.63c5.58-3.17,9.55-8.56,10.91-14.8l0.01-0.03c2.24-9.85-2.14-19.85-10.91-24.87
			l-141.39-81.64C382.36,166.77,378.43,165.7,374.41,165.7z"/>
	</g>
</g>
</svg>
