<?xml version="1.0" encoding="utf-8" ?>
<svg xmlns="http://www.w3.org/2000/svg" xmlns:xlink="http://www.w3.org/1999/xlink" width="42" height="40">
	<defs>
		<clipPath id="clip_0">
			<rect x="-349" y="-1680" width="1260" height="2852" clip-rule="evenodd"/>
		</clipPath>
	</defs>
	<g clip-path="url(#clip_0)">
		<path fill="rgb(85,121,243)" stroke="none" d="M42 2.10526L37.8 2.10526L37.8 40L33.6 35.7895L29.4 40L25.2 35.7895L20.9999 40L16.8 35.7895L12.6006 40L8.4 35.7895L4.2 40L4.2 2.10526L0 2.10526L0 0L42 0L42 2.10526ZM6.3 2.10526L35.7 2.10526L35.7 34.9174L33.6 32.8121L29.4 37.0226L25.2001 32.8121L21 37.0226L16.8 32.812L12.6005 37.0226L8.39987 32.8122L6.3 34.9174L6.3 2.10526ZM29.4 6.31579L12.6 6.31579L12.6 8.42105L29.4 8.42105L29.4 6.31579ZM12.6 14.7368L29.4 14.7368L29.4 12.6316L12.6 12.6316L12.6 14.7368ZM12.6 18.9474L29.4 18.9474L29.4 21.0526L12.6 21.0526L12.6 18.9474ZM12.6 25.2632L29.4 25.2632L29.4 27.3684L12.6 27.3684L12.6 25.2632Z" fill-rule="evenodd"/>
	</g>

</svg>