<?xml version="1.0" encoding="utf-8" ?>
<svg xmlns="http://www.w3.org/2000/svg" xmlns:xlink="http://www.w3.org/1999/xlink" width="28" height="28">
	<defs>
		<clipPath id="clip_0">
			<rect x="-1297.4805" y="-552.36987" width="1584" height="1134.54" clip-rule="evenodd"/>
		</clipPath>
	</defs>
	<g clip-path="url(#clip_0)">
		<path fill="rgb(255,255,255)" stroke="none" transform="matrix(-0.700036 0.700036 -0.700036 -0.700036 27.0703 14.0857)" d="M19.4333 9.79194L19.5722 0.807223C19.5828 0.596798 19.5066 0.391226 19.3613 0.238611C19.2161 0.085996 19.0145 -0.000269433 18.8038 6.32205e-07L9.7805 0.131667C9.57671 0.131646 9.38127 0.212582 9.23716 0.356667L0.22494 9.36944C-0.0749801 9.66947 -0.0749801 10.1558 0.22494 10.4558L9.09411 19.325C9.39414 19.6249 9.88047 19.6249 10.1805 19.325L19.2083 10.2972C19.3434 10.1626 19.4236 9.98246 19.4333 9.79194Z"/>
	</g>

</svg>