<?xml version="1.0" encoding="utf-8" ?>
<svg xmlns="http://www.w3.org/2000/svg" xmlns:xlink="http://www.w3.org/1999/xlink" width="42" height="42">
	<defs>
		<clipPath id="clip_0">
			<rect x="-1503" y="-1076" width="1600" height="1243" clip-rule="evenodd"/>
		</clipPath>
	</defs>
	<g clip-path="url(#clip_0)">
		<path fill="rgb(85,121,243)" stroke="none" d="M21 42C32.598 42 42 32.598 42 21C42 9.40202 32.598 0 21 0C9.40202 0 0 9.40202 0 21C0 32.598 9.40202 42 21 42Z"/>
	</g>
	<defs>
		<clipPath id="clip_1">
			<rect x="-1503" y="-1076" width="1600" height="1243" clip-rule="evenodd"/>
		</clipPath>
	</defs>
	<g clip-path="url(#clip_1)">
		<path fill="rgb(255,255,255)" stroke="none" transform="translate(12 12)" d="M7.98214 7.98214L1.13704 7.98214C0.507833 7.98214 0 8.49267 0 9.12245C0 9.75094 0.50907 10.2628 1.13704 10.2628L7.98214 10.2628L7.98214 17.488C7.98214 18.1172 8.49267 18.625 9.12245 18.625C9.75094 18.625 10.2628 18.1159 10.2628 17.488L10.2628 10.2628L17.488 10.2628C18.1172 10.2628 18.625 9.75222 18.625 9.12245C18.625 8.49396 18.1159 7.98214 17.488 7.98214L10.2628 7.98214L10.2628 1.13704C10.2628 0.507833 9.75222 0 9.12245 0C8.49396 0 7.98214 0.50907 7.98214 1.13704L7.98214 7.98214Z"/>
	</g>

</svg>