<?xml version="1.0" encoding="utf-8" ?>
<svg xmlns="http://www.w3.org/2000/svg" xmlns:xlink="http://www.w3.org/1999/xlink" width="80" height="80">
	<defs>
		<clipPath id="clip_0">
			<rect x="-160" y="-1472" width="6400" height="3600" clip-rule="evenodd"/>
		</clipPath>
	</defs>
	<g clip-path="url(#clip_0)">
		<path fill="rgb(198,205,211)" stroke="none" transform="scale(4 4)" d="M6.91892 8.91892L2 8.91892C0.891892 8.91892 0 8.02703 0 6.91892L0 2C0 0.891892 0.891892 0 2 0L6.91892 0C8.02703 0 8.91892 0.891892 8.91892 2L8.91892 6.91892C8.91892 8.02703 8.02703 8.91892 6.91892 8.91892ZM2 1.08108C1.48649 1.08108 1.08108 1.48649 1.08108 2L1.08108 6.91892C1.08108 7.43243 1.48649 7.83784 2 7.83784L6.91892 7.83784C7.43243 7.83784 7.83784 7.43243 7.83784 6.91892L7.83784 2C7.83784 1.48649 7.43243 1.08108 6.91892 1.08108L2 1.08108Z" fill-rule="evenodd"/>
	</g>
	<defs>
		<clipPath id="clip_1">
			<rect x="-160" y="-1472" width="6400" height="3600" clip-rule="evenodd"/>
		</clipPath>
	</defs>
	<g clip-path="url(#clip_1)">
		<path fill="rgb(198,205,211)" stroke="none" transform="matrix(4 0 0 4 44.3281 0)" d="M2 0L6.91892 0C8.02703 0 8.91892 0.891892 8.91892 2L8.91892 6.91892C8.91892 8.02703 8.02703 8.91892 6.91892 8.91892L2 8.91892C0.891892 8.91892 0 8.02703 0 6.91892L0 2C0 0.891892 0.891892 0 2 0ZM6.91892 7.83784C7.43243 7.83784 7.83784 7.43243 7.83784 6.91892L7.83784 2C7.83784 1.48649 7.43243 1.08108 6.91892 1.08108L2 1.08108C1.48649 1.08108 1.08108 1.48649 1.08108 2L1.08108 6.91892C1.08108 7.43243 1.48649 7.83784 2 7.83784L6.91892 7.83784Z" fill-rule="evenodd"/>
	</g>
	<defs>
		<clipPath id="clip_2">
			<rect x="-160" y="-1472" width="6400" height="3600" clip-rule="evenodd"/>
		</clipPath>
	</defs>
	<g clip-path="url(#clip_2)">
		<path fill="rgb(198,205,211)" stroke="none" transform="matrix(4 0 0 4 0 44.3242)" d="M6.91892 8.91892L2 8.91892C0.891892 8.91892 0 8.02703 0 6.91892L0 2C0 0.891892 0.891892 0 2 0L6.91892 0C8.02703 0 8.91892 0.891892 8.91892 2L8.91892 6.91892C8.91892 8.02703 8.02703 8.91892 6.91892 8.91892ZM2 1.08108C1.48649 1.08108 1.08108 1.48649 1.08108 2L1.08108 6.91892C1.08108 7.43243 1.48649 7.83784 2 7.83784L6.91892 7.83784C7.43243 7.83784 7.83784 7.43243 7.83784 6.91892L7.83784 2C7.83784 1.48649 7.43243 1.08108 6.91892 1.08108L2 1.08108Z" fill-rule="evenodd"/>
	</g>
	<defs>
		<clipPath id="clip_3">
			<rect x="-160" y="-1472" width="6400" height="3600" clip-rule="evenodd"/>
		</clipPath>
	</defs>
	<g clip-path="url(#clip_3)">
		<path fill="rgb(198,205,211)" stroke="none" transform="matrix(4 0 0 4 44.3281 44.3242)" d="M0 4.45946C0 2 2 0 4.45946 0C6.91892 0 8.91892 2 8.91892 4.45946C8.91892 6.91892 6.91892 8.91892 4.45946 8.91892C2 8.91892 0 6.91892 0 4.45946ZM1.08108 4.45946C1.08108 6.32432 2.59459 7.83784 4.45946 7.83784C6.32432 7.83784 7.83784 6.32432 7.83784 4.45946C7.83784 2.59459 6.32432 1.08108 4.45946 1.08108C2.59459 1.08108 1.08108 2.59459 1.08108 4.45946Z" fill-rule="evenodd"/>
	</g>

</svg>