<?xml version="1.0" encoding="utf-8" ?>
<svg xmlns="http://www.w3.org/2000/svg" xmlns:xlink="http://www.w3.org/1999/xlink" width="40" height="40">
	<defs>
		<clipPath id="clip_0">
			<rect x="-279" y="-1679" width="1260" height="2852" clip-rule="evenodd"/>
		</clipPath>
	</defs>
	<g clip-path="url(#clip_0)">
		<path fill="rgb(85,121,243)" stroke="none" d="M13.8378 17.8378L4 17.8378C1.78378 17.8378 0 16.0541 0 13.8378L0 4C0 1.78378 1.78378 0 4 0L13.8378 0C16.0541 0 17.8378 1.78378 17.8378 4L17.8378 13.8378C17.8378 16.0541 16.0541 17.8378 13.8378 17.8378ZM4 2.16216C2.97297 2.16216 2.16216 2.97297 2.16216 4L2.16216 13.8378C2.16216 14.8649 2.97297 15.6757 4 15.6757L13.8378 15.6757C14.8649 15.6757 15.6757 14.8649 15.6757 13.8378L15.6757 4C15.6757 2.97297 14.8649 2.16216 13.8378 2.16216L4 2.16216Z" fill-rule="evenodd"/>
	</g>
	<defs>
		<clipPath id="clip_1">
			<rect x="-279" y="-1679" width="1260" height="2852" clip-rule="evenodd"/>
		</clipPath>
	</defs>
	<g clip-path="url(#clip_1)">
		<path fill="rgb(85,121,243)" stroke="none" transform="translate(22.1641 0)" d="M4 0L13.8378 0C16.0541 0 17.8378 1.78378 17.8378 4L17.8378 13.8378C17.8378 16.0541 16.0541 17.8378 13.8378 17.8378L4 17.8378C1.78378 17.8378 0 16.0541 0 13.8378L0 4C0 1.78378 1.78378 0 4 0ZM13.8378 15.6757C14.8649 15.6757 15.6757 14.8649 15.6757 13.8378L15.6757 4C15.6757 2.97297 14.8649 2.16216 13.8378 2.16216L4 2.16216C2.97297 2.16216 2.16216 2.97297 2.16216 4L2.16216 13.8378C2.16216 14.8649 2.97297 15.6757 4 15.6757L13.8378 15.6757Z" fill-rule="evenodd"/>
	</g>
	<defs>
		<clipPath id="clip_2">
			<rect x="-279" y="-1679" width="1260" height="2852" clip-rule="evenodd"/>
		</clipPath>
	</defs>
	<g clip-path="url(#clip_2)">
		<path fill="rgb(85,121,243)" stroke="none" transform="translate(0 22.1621)" d="M13.8378 17.8378L4 17.8378C1.78378 17.8378 0 16.0541 0 13.8378L0 4C0 1.78378 1.78378 0 4 0L13.8378 0C16.0541 0 17.8378 1.78378 17.8378 4L17.8378 13.8378C17.8378 16.0541 16.0541 17.8378 13.8378 17.8378ZM4 2.16216C2.97297 2.16216 2.16216 2.97297 2.16216 4L2.16216 13.8378C2.16216 14.8649 2.97297 15.6757 4 15.6757L13.8378 15.6757C14.8649 15.6757 15.6757 14.8649 15.6757 13.8378L15.6757 4C15.6757 2.97297 14.8649 2.16216 13.8378 2.16216L4 2.16216Z" fill-rule="evenodd"/>
	</g>
	<defs>
		<clipPath id="clip_3">
			<rect x="-279" y="-1679" width="1260" height="2852" clip-rule="evenodd"/>
		</clipPath>
	</defs>
	<g clip-path="url(#clip_3)">
		<path fill="rgb(85,121,243)" stroke="none" transform="translate(22.1641 22.1621)" d="M0 8.91892C0 4 4 0 8.91892 0C13.8378 0 17.8378 4 17.8378 8.91892C17.8378 13.8378 13.8378 17.8378 8.91892 17.8378C4 17.8378 0 13.8378 0 8.91892ZM2.16216 8.91892C2.16216 12.6486 5.18919 15.6757 8.91892 15.6757C12.6486 15.6757 15.6757 12.6486 15.6757 8.91892C15.6757 5.18919 12.6486 2.16216 8.91892 2.16216C5.18919 2.16216 2.16216 5.18919 2.16216 8.91892Z" fill-rule="evenodd"/>
	</g>

</svg>