<?xml version="1.0" encoding="utf-8" ?>
<svg xmlns="http://www.w3.org/2000/svg" xmlns:xlink="http://www.w3.org/1999/xlink" width="355" height="20">
	<defs>
		<clipPath id="clip_0">
			<rect x="-620" y="-442" width="1600" height="900" clip-rule="evenodd"/>
		</clipPath>
		<linearGradient id="gradient_0" gradientUnits="userSpaceOnUse" x1="29.210457" y1="10" x2="355" y2="10">
			<stop offset="0" stop-color="rgb(255,154,0)"/>
			<stop offset="1" stop-color="rgb(255,83,66)"/>
		</linearGradient>
	</defs>
	<g clip-path="url(#clip_0)">
		<path fill="url(#gradient_0)" stroke="none" d="M10 0L345 0Q345.256 0 345.511 0.0116575Q345.765 0.023315 346.017 0.0466062Q346.269 0.0698974 346.519 0.104775Q346.768 0.139652 347.014 0.186045Q347.261 0.232437 347.503 0.29025Q347.745 0.348063 347.984 0.417178Q348.222 0.486294 348.455 0.566571Q348.689 0.646847 348.917 0.738122Q349.145 0.829396 349.367 0.931482Q349.59 1.03357 349.806 1.14626Q350.023 1.25895 350.232 1.38201Q350.442 1.50507 350.645 1.63826Q350.848 1.77144 351.043 1.91448Q351.238 2.05751 351.426 2.21011Q351.613 2.3627 351.793 2.52454Q351.972 2.68638 352.143 2.85714Q352.314 3.0279 352.476 3.20723Q352.637 3.38656 352.79 3.57409Q352.943 3.76162 353.086 3.95697Q353.229 4.15232 353.362 4.3551Q353.495 4.55787 353.618 4.76765Q353.741 4.97743 353.854 5.1938Q353.966 5.41016 354.069 5.63266Q354.171 5.85516 354.262 6.08335Q354.353 6.31153 354.433 6.54494Q354.514 6.77835 354.583 7.01649Q354.652 7.25464 354.71 7.49705Q354.768 7.73946 354.814 7.98563Q354.86 8.2318 354.895 8.48123Q354.93 8.73066 354.953 8.98284Q354.977 9.23502 354.988 9.48944Q355 9.74386 355 10L355 10Q355 10.2561 354.988 10.5106Q354.977 10.765 354.953 11.0172Q354.93 11.2693 354.895 11.5188Q354.86 11.7682 354.814 12.0144Q354.768 12.2605 354.71 12.503Q354.652 12.7454 354.583 12.9835Q354.514 13.2217 354.433 13.4551Q354.353 13.6885 354.262 13.9167Q354.171 14.1448 354.069 14.3673Q353.966 14.5898 353.854 14.8062Q353.741 15.0226 353.618 15.2324Q353.495 15.4421 353.362 15.6449Q353.229 15.8477 353.086 16.043Q352.943 16.2384 352.79 16.4259Q352.637 16.6134 352.475 16.7928Q352.314 16.9721 352.143 17.1429Q351.972 17.3136 351.793 17.4755Q351.613 17.6373 351.426 17.7899Q351.238 17.9425 351.043 18.0855Q350.848 18.2286 350.645 18.3617Q350.442 18.4949 350.232 18.618Q350.023 18.7411 349.806 18.8537Q349.59 18.9664 349.367 19.0685Q349.145 19.1706 348.917 19.2619Q348.689 19.3532 348.455 19.4334Q348.222 19.5137 347.984 19.5828Q347.745 19.6519 347.503 19.7098Q347.261 19.7676 347.014 19.814Q346.768 19.8603 346.519 19.8952Q346.269 19.9301 346.017 19.9534Q345.765 19.9767 345.511 19.9883Q345.256 20 345 20L10 20Q9.74386 20 9.48944 19.9883Q9.23502 19.9767 8.98284 19.9534Q8.73066 19.9301 8.48123 19.8952Q8.2318 19.8603 7.98563 19.814Q7.73946 19.7676 7.49705 19.7098Q7.25464 19.6519 7.01649 19.5828Q6.77835 19.5137 6.54494 19.4334Q6.31153 19.3532 6.08335 19.2619Q5.85516 19.1706 5.63266 19.0685Q5.41016 18.9664 5.1938 18.8537Q4.97743 18.7411 4.76765 18.618Q4.55787 18.4949 4.3551 18.3617Q4.15232 18.2286 3.95697 18.0855Q3.76162 17.9425 3.57409 17.7899Q3.38656 17.6373 3.20723 17.4755Q3.0279 17.3136 2.85714 17.1429Q2.68638 16.9721 2.52454 16.7928Q2.3627 16.6134 2.21011 16.4259Q2.05751 16.2384 1.91448 16.043Q1.77144 15.8477 1.63826 15.6449Q1.50507 15.4421 1.38201 15.2324Q1.25895 15.0226 1.14626 14.8062Q1.03357 14.5898 0.931482 14.3673Q0.829396 14.1448 0.738122 13.9167Q0.646847 13.6885 0.566571 13.4551Q0.486294 13.2217 0.417178 12.9835Q0.348063 12.7454 0.29025 12.503Q0.232437 12.2605 0.186045 12.0144Q0.139652 11.7682 0.104775 11.5188Q0.0698974 11.2693 0.0466062 11.0172Q0.023315 10.765 0.0116575 10.5106Q0 10.2561 0 10L0 10Q0 9.74386 0.0116575 9.48944Q0.023315 9.23502 0.0466062 8.98284Q0.0698974 8.73066 0.104775 8.48123Q0.139652 8.2318 0.186045 7.98563Q0.232437 7.73946 0.29025 7.49705Q0.348063 7.25464 0.417178 7.01649Q0.486294 6.77835 0.566571 6.54494Q0.646847 6.31153 0.738122 6.08335Q0.829396 5.85516 0.931482 5.63266Q1.03357 5.41016 1.14626 5.1938Q1.25895 4.97743 1.38201 4.76765Q1.50507 4.55787 1.63826 4.3551Q1.77144 4.15232 1.91448 3.95697Q2.05751 3.76162 2.21011 3.57409Q2.3627 3.38656 2.52454 3.20723Q2.68638 3.0279 2.85714 2.85714Q3.0279 2.68638 3.20723 2.52454Q3.38656 2.3627 3.57409 2.21011Q3.76162 2.05751 3.95697 1.91448Q4.15232 1.77144 4.3551 1.63826Q4.55787 1.50507 4.76765 1.38201Q4.97743 1.25895 5.1938 1.14626Q5.41016 1.03357 5.63266 0.931482Q5.85516 0.829396 6.08335 0.738122Q6.31153 0.646847 6.54494 0.566571Q6.77835 0.486294 7.01649 0.417178Q7.25464 0.348063 7.49705 0.29025Q7.73946 0.232437 7.98563 0.186045Q8.2318 0.139652 8.48123 0.104775Q8.73066 0.0698974 8.98284 0.0466062Q9.23502 0.023315 9.48944 0.0116575Q9.74386 0 10 0Z"/>
	</g>

</svg>