<?xml version="1.0" encoding="utf-8" ?>
<svg xmlns="http://www.w3.org/2000/svg" xmlns:xlink="http://www.w3.org/1999/xlink" width="390" height="20">
	<defs>
		<clipPath id="clip_0">
			<rect x="-620" y="-442" width="1600" height="900" clip-rule="evenodd"/>
		</clipPath>
	</defs>
	<g clip-path="url(#clip_0)">
		<path fill="rgb(85,121,243)" fill-opacity="0.2" stroke="none" d="M10 0L380 0Q380.256 0 380.511 0.0116575Q380.765 0.023315 381.017 0.0466062Q381.269 0.0698974 381.519 0.104775Q381.768 0.139652 382.014 0.186045Q382.261 0.232437 382.503 0.29025Q382.745 0.348063 382.984 0.417178Q383.222 0.486294 383.455 0.566571Q383.689 0.646847 383.917 0.738122Q384.145 0.829396 384.367 0.931482Q384.59 1.03357 384.806 1.14626Q385.023 1.25895 385.232 1.38201Q385.442 1.50507 385.645 1.63826Q385.848 1.77144 386.043 1.91448Q386.238 2.05751 386.426 2.21011Q386.614 2.3627 386.793 2.52454Q386.972 2.68638 387.143 2.85714Q387.314 3.0279 387.475 3.20723Q387.637 3.38656 387.79 3.57409Q387.943 3.76162 388.086 3.95697Q388.229 4.15232 388.362 4.3551Q388.495 4.55787 388.618 4.76765Q388.741 4.97743 388.854 5.1938Q388.967 5.41016 389.069 5.63266Q389.171 5.85516 389.262 6.08335Q389.353 6.31153 389.433 6.54494Q389.514 6.77835 389.583 7.01649Q389.652 7.25464 389.71 7.49705Q389.768 7.73946 389.814 7.98563Q389.86 8.2318 389.895 8.48123Q389.93 8.73066 389.953 8.98284Q389.977 9.23502 389.988 9.48944Q390 9.74386 390 10L390 10Q390 10.2561 389.988 10.5106Q389.977 10.765 389.953 11.0172Q389.93 11.2693 389.895 11.5188Q389.86 11.7682 389.814 12.0144Q389.768 12.2605 389.71 12.503Q389.652 12.7454 389.583 12.9835Q389.514 13.2217 389.434 13.4551Q389.353 13.6885 389.262 13.9167Q389.171 14.1448 389.069 14.3673Q388.967 14.5898 388.854 14.8062Q388.741 15.0226 388.618 15.2324Q388.495 15.4421 388.362 15.6449Q388.229 15.8477 388.086 16.043Q387.943 16.2384 387.79 16.4259Q387.637 16.6134 387.475 16.7928Q387.314 16.9721 387.143 17.1429Q386.972 17.3136 386.793 17.4755Q386.614 17.6373 386.426 17.7899Q386.238 17.9425 386.043 18.0855Q385.848 18.2286 385.645 18.3617Q385.442 18.4949 385.232 18.618Q385.023 18.7411 384.806 18.8537Q384.59 18.9664 384.367 19.0685Q384.145 19.1706 383.917 19.2619Q383.689 19.3532 383.455 19.4334Q383.222 19.5137 382.984 19.5828Q382.745 19.6519 382.503 19.7098Q382.261 19.7676 382.014 19.814Q381.768 19.8603 381.519 19.8952Q381.269 19.9301 381.017 19.9534Q380.765 19.9767 380.511 19.9883Q380.256 20 380 20L10 20Q9.74386 20 9.48944 19.9883Q9.23502 19.9767 8.98284 19.9534Q8.73066 19.9301 8.48123 19.8952Q8.2318 19.8603 7.98563 19.814Q7.73946 19.7676 7.49705 19.7098Q7.25464 19.6519 7.01649 19.5828Q6.77835 19.5137 6.54494 19.4334Q6.31153 19.3532 6.08335 19.2619Q5.85516 19.1706 5.63266 19.0685Q5.41016 18.9664 5.1938 18.8537Q4.97743 18.7411 4.76765 18.618Q4.55787 18.4949 4.3551 18.3617Q4.15232 18.2286 3.95697 18.0855Q3.76162 17.9425 3.57409 17.7899Q3.38656 17.6373 3.20723 17.4755Q3.0279 17.3136 2.85714 17.1429Q2.68638 16.9721 2.52454 16.7928Q2.3627 16.6134 2.21011 16.4259Q2.05751 16.2384 1.91448 16.043Q1.77144 15.8477 1.63826 15.6449Q1.50507 15.4421 1.38201 15.2324Q1.25895 15.0226 1.14626 14.8062Q1.03357 14.5898 0.931482 14.3673Q0.829396 14.1448 0.738122 13.9167Q0.646847 13.6885 0.566571 13.4551Q0.486294 13.2217 0.417178 12.9835Q0.348063 12.7454 0.29025 12.503Q0.232437 12.2605 0.186045 12.0144Q0.139652 11.7682 0.104775 11.5188Q0.0698974 11.2693 0.0466062 11.0172Q0.023315 10.765 0.0116575 10.5106Q0 10.2561 0 10L0 10Q0 9.74386 0.0116575 9.48944Q0.023315 9.23502 0.0466062 8.98284Q0.0698974 8.73066 0.104775 8.48123Q0.139652 8.2318 0.186045 7.98563Q0.232437 7.73946 0.29025 7.49705Q0.348063 7.25464 0.417178 7.01649Q0.486294 6.77835 0.566571 6.54494Q0.646847 6.31153 0.738122 6.08335Q0.829396 5.85516 0.931482 5.63266Q1.03357 5.41016 1.14626 5.1938Q1.25895 4.97743 1.38201 4.76765Q1.50507 4.55787 1.63826 4.3551Q1.77144 4.15232 1.91448 3.95697Q2.05751 3.76162 2.21011 3.57409Q2.3627 3.38656 2.52454 3.20723Q2.68638 3.0279 2.85714 2.85714Q3.0279 2.68638 3.20723 2.52454Q3.38656 2.3627 3.57409 2.21011Q3.76162 2.05751 3.95697 1.91448Q4.15232 1.77144 4.3551 1.63826Q4.55787 1.50507 4.76765 1.38201Q4.97743 1.25895 5.1938 1.14626Q5.41016 1.03357 5.63266 0.931482Q5.85516 0.829396 6.08335 0.738122Q6.31153 0.646847 6.54494 0.566571Q6.77835 0.486294 7.01649 0.417178Q7.25464 0.348063 7.49705 0.29025Q7.73946 0.232437 7.98563 0.186045Q8.2318 0.139652 8.48123 0.104775Q8.73066 0.0698974 8.98284 0.0466062Q9.23502 0.023315 9.48944 0.0116575Q9.74386 0 10 0Z"/>
	</g>

</svg>