<?xml version="1.0" encoding="utf-8" ?>
<svg xmlns="http://www.w3.org/2000/svg" xmlns:xlink="http://www.w3.org/1999/xlink" width="60" height="60">
	<defs>
		<clipPath id="clip_0">
			<rect x="-590" y="-422" width="1600" height="900" clip-rule="evenodd"/>
		</clipPath>
	</defs>
	<g clip-path="url(#clip_0)">
		<path fill="rgb(255,83,66)" stroke="none" d="M30 60C46.5685 60 60 46.5685 60 30C60 13.4315 46.5685 0 30 0C13.4315 0 0 13.4315 0 30C0 46.5685 13.4315 60 30 60Z"/>
	</g>
	<defs>
		<clipPath id="clip_1">
			<rect x="-590" y="-422" width="1600" height="900" clip-rule="evenodd"/>
		</clipPath>
	</defs>
	<g clip-path="url(#clip_1)">
		<path fill="rgb(255,255,255)" stroke="none" transform="translate(15.0938 12.2822)" d="M23.2241 8.68864C24.1977 15.0573 19.6277 17.0045 19.6277 17.0045C22.1005 4.195 9.59 0 9.59 0C10.5627 8.76409 0 11.3859 0 21.8C0 30.0332 6.67455 36.7082 14.9082 36.7082C23.1423 36.7082 29.8164 30.3409 29.8164 21.9491C29.8164 11.7609 23.2241 8.68864 23.2241 8.68864Z"/>
	</g>

</svg>