<?xml version="1.0" encoding="utf-8" ?>
<svg xmlns="http://www.w3.org/2000/svg" xmlns:xlink="http://www.w3.org/1999/xlink" width="20" height="23">
	<defs>
		<clipPath id="clip_0">
			<rect x="-953" y="-160" width="1600" height="900" clip-rule="evenodd"/>
		</clipPath>
	</defs>
	<g clip-path="url(#clip_0)">
		<path fill="rgb(53,65,104)" stroke="none" transform="translate(0.166016 0.13623)" d="M8.11905 1.45915L3.33333 0.0305824C2.90476 -0.0884652 2.45238 0.14963 2.33333 0.578201L2.33333 0.578201C2.21429 1.00677 2.45238 1.45915 2.88095 1.5782L5.66667 2.41153C2.30952 3.95915 0 7.36392 0 11.2925C0 15.5068 2.66667 19.102 6.38095 20.5068C6.90476 20.6972 7.47619 20.3163 7.47619 19.7687C7.47619 19.4353 7.26191 19.1258 6.95238 19.0068C3.83333 17.8401 1.59524 14.8163 1.59524 11.2925C1.59524 7.91153 3.64286 4.98296 6.59524 3.72106L5.66667 6.76868C5.54762 7.19725 5.78571 7.64963 6.21429 7.76868L6.21429 7.76868C6.64286 7.88772 7.09524 7.64963 7.21429 7.22106L8.64286 2.43534C8.7619 2.03058 8.52381 1.5782 8.11905 1.45915Z"/>
	</g>
	<defs>
		<clipPath id="clip_1">
			<rect x="-953" y="-160" width="1600" height="900" clip-rule="evenodd"/>
		</clipPath>
	</defs>
	<g clip-path="url(#clip_1)">
		<path fill="rgb(53,65,104)" stroke="none" transform="translate(11.1602 2.16455)" d="M5.8163 19.0021L3.03058 18.1687C6.36392 16.5973 8.67344 13.1925 8.67344 9.26397C8.67344 5.04968 6.00677 1.45444 2.29249 0.0496816C1.76868 -0.140795 1.19725 0.240158 1.19725 0.787777C1.19725 1.12111 1.41153 1.43063 1.72106 1.54968C4.84011 2.71635 7.0782 5.74016 7.0782 9.26397C7.0782 12.6449 5.03058 15.5735 2.0782 16.8354L3.00677 13.7878C3.12582 13.3592 2.88773 12.9068 2.45915 12.7878C2.03058 12.6687 1.5782 12.9068 1.45915 13.3354L0.0305824 18.1211C-0.0884652 18.5497 0.14963 19.0021 0.578201 19.1211L5.36392 20.5497C5.79249 20.6687 6.24487 20.4306 6.36392 20.0021L6.36392 20.0021C6.48296 19.5735 6.24487 19.1211 5.8163 19.0021Z"/>
	</g>

</svg>