<?xml version="1.0" encoding="utf-8" ?>
<svg xmlns="http://www.w3.org/2000/svg" xmlns:xlink="http://www.w3.org/1999/xlink" width="38" height="40">
	<defs>
		<clipPath id="clip_0">
			<rect x="-422" y="-1678" width="1260" height="2852" clip-rule="evenodd"/>
		</clipPath>
	</defs>
	<g clip-path="url(#clip_0)">
		<path fill="rgb(85,121,243)" stroke="none" transform="translate(9.77734 10.7317)" d="M18.4439 9.24506C18.4439 14.3554 14.3195 18.4901 9.22195 18.4901C4.12439 18.4901 0 14.3554 0 9.24506C0 4.13473 4.17073 0 9.22195 0C14.2732 0 18.4439 4.13473 18.4439 9.24506ZM16.5902 9.24506C16.5902 5.15679 13.3 1.8583 9.22195 1.8583C5.1439 1.8583 1.85366 5.15679 1.85366 9.24506C1.85366 13.3333 5.19024 16.6318 9.22195 16.6318C13.2537 16.6318 16.5902 13.3333 16.5902 9.24506Z" fill-rule="evenodd"/>
	</g>
	<defs>
		<clipPath id="clip_1">
			<rect x="-422" y="-1678" width="1260" height="2852" clip-rule="evenodd"/>
		</clipPath>
	</defs>
	<g clip-path="url(#clip_1)">
		<path fill="rgb(85,121,243)" stroke="none" transform="translate(0.332031 0.325195)" d="M3.04897 31.7305L0.407511 27.1777C-0.333952 25.8769 -0.00956197 24.2973 1.19532 23.4146L2.86361 22.2532C2.72458 21.3705 2.6319 20.5343 2.6319 19.6516C2.6319 18.7689 2.72458 17.8862 2.86361 17.0499L1.19532 15.8885C-0.00956197 15.0058 -0.333952 13.4262 0.36117 12.1254L3.00263 7.57259C3.7441 6.27178 5.31971 5.8072 6.66361 6.41115L8.51727 7.24739C9.86117 6.1324 11.3904 5.24971 13.0124 4.64576L13.1978 2.60163C13.3368 1.11498 14.5417 0 16.0246 0L21.2612 0C22.7441 0 23.949 1.11498 24.088 2.60163L24.2734 4.64576C25.8953 5.24971 27.4246 6.1324 28.7685 7.24739L30.6221 6.41115C31.966 5.8072 33.5417 6.27178 34.2831 7.57259L36.9246 12.1254C37.666 13.4262 37.2953 15.0523 36.0904 15.8885L34.4221 17.0499C34.5612 17.9326 34.6539 18.7689 34.6539 19.6516C34.6539 20.5343 34.5612 21.417 34.4221 22.2532L36.1368 23.4146C37.3417 24.2509 37.7124 25.8769 36.9709 27.1777L34.3295 31.7305C33.588 33.0314 32.0124 33.4959 30.6685 32.892L28.8148 32.0557C27.4709 33.1707 25.9417 34.0534 24.3197 34.6574L24.1343 36.7015C23.9953 38.1882 22.7904 39.3031 21.3075 39.3031L16.0709 39.3031C14.588 39.3031 13.3831 38.1882 13.2441 36.7015L13.0587 34.6574C11.4368 34.0534 9.90751 33.1707 8.56361 32.0557L6.70995 32.892C5.36605 33.4959 3.79044 33.0314 3.04897 31.7305ZM4.94897 23.0894L2.30751 24.9477C1.8441 25.2265 1.75141 25.8304 1.98312 26.2485L4.67093 30.8014C4.94897 31.266 5.50507 31.4518 5.96849 31.2195L8.888 29.8722L9.35141 30.2904C10.788 31.5447 12.41 32.5203 14.2173 33.1243L14.7734 33.3101L15.0514 36.5621C15.0978 37.1196 15.5148 37.4913 16.0246 37.4913L21.3539 37.4913C21.8636 37.4913 22.2807 37.0732 22.327 36.5621L22.6051 33.3101L23.1612 33.1243C24.9685 32.5203 26.5904 31.5447 28.027 30.2904L28.4904 29.8722L31.41 31.2195C31.9197 31.4053 32.4295 31.266 32.7075 30.8014L35.2563 26.2485C35.5343 25.8304 35.3953 25.2265 34.9782 24.9477L32.3368 23.0894L32.4758 22.4855C32.6612 21.5563 32.7539 20.6272 32.7539 19.6516C32.7539 18.676 32.6612 17.7468 32.4758 16.8177L32.3368 16.2137L34.9782 14.3554C35.3953 14.0767 35.5343 13.5192 35.2563 13.0546L32.6148 8.50174C32.3368 8.03717 31.7807 7.85134 31.3173 8.08362L28.3978 9.43089L27.9343 9.01278C26.4978 7.75842 24.8758 6.78281 23.0685 6.17886L22.5124 5.99303L22.2343 2.741C22.188 2.18351 21.7709 1.81185 21.2612 1.81185L16.0246 1.81185C15.5148 1.81185 15.0978 2.22997 15.0514 2.741L14.7734 5.99303L14.2173 6.17886C12.41 6.78281 10.788 7.75842 9.35141 9.01278L8.888 9.43089L5.96849 8.08362C5.45873 7.89779 4.94897 8.03717 4.67093 8.50174L2.02946 13.0546C1.75141 13.4727 1.89044 14.0767 2.30751 14.3554L4.94897 16.2137L4.80995 16.8177C4.62458 17.7468 4.5319 18.676 4.5319 19.6516C4.5319 20.6272 4.62458 21.5563 4.80995 22.4855L4.94897 23.0894Z" fill-rule="evenodd"/>
	</g>

</svg>