<?xml version="1.0" encoding="utf-8" ?>
<svg xmlns="http://www.w3.org/2000/svg" xmlns:xlink="http://www.w3.org/1999/xlink" width="80" height="84">
	<defs>
		<clipPath id="clip_0">
			<rect x="-160" y="-1908" width="6400" height="3600" clip-rule="evenodd"/>
		</clipPath>
	</defs>
	<g clip-path="url(#clip_0)">
		<path fill="rgb(198,205,211)" stroke="none" transform="matrix(4 0 0 4 20.5859 22.5361)" d="M9.70732 4.85366C9.70732 7.53659 7.53659 9.70732 4.85366 9.70732C2.17073 9.70732 0 7.53659 0 4.85366C0 2.17073 2.19512 0 4.85366 0C7.5122 0 9.70732 2.17073 9.70732 4.85366ZM8.73171 4.85366C8.73171 2.70732 7 0.97561 4.85366 0.97561C2.70732 0.97561 0.97561 2.70732 0.97561 4.85366C0.97561 7 2.73171 8.73171 4.85366 8.73171C6.97561 8.73171 8.73171 7 8.73171 4.85366Z" fill-rule="evenodd"/>
	</g>
	<defs>
		<clipPath id="clip_1">
			<rect x="-160" y="-1908" width="6400" height="3600" clip-rule="evenodd"/>
		</clipPath>
	</defs>
	<g clip-path="url(#clip_1)">
		<path fill="rgb(198,205,211)" stroke="none" transform="matrix(4 0 0 4 0.703125 0.682617)" d="M1.60472 16.6585L0.21448 14.2683C-0.175764 13.5854 -0.00503261 12.7561 0.629114 12.2927L1.50716 11.6829C1.43399 11.2195 1.38521 10.7805 1.38521 10.3171C1.38521 9.85366 1.43399 9.39024 1.50716 8.95122L0.629114 8.34146C-0.00503261 7.87805 -0.175764 7.04878 0.190089 6.36585L1.58033 3.97561C1.97058 3.29268 2.79985 3.04878 3.50716 3.36585L4.48277 3.80488C5.19009 3.21951 5.99497 2.7561 6.84863 2.43902L6.94619 1.36585C7.01936 0.585366 7.6535 0 8.43399 0L11.1901 0C11.9706 0 12.6047 0.585366 12.6779 1.36585L12.7755 2.43902C13.6291 2.7561 14.434 3.21951 15.1413 3.80488L16.1169 3.36585C16.8242 3.04878 17.6535 3.29268 18.0437 3.97561L19.434 6.36585C19.8242 7.04878 19.6291 7.90244 18.995 8.34146L18.1169 8.95122C18.1901 9.41463 18.2389 9.85366 18.2389 10.3171C18.2389 10.7805 18.1901 11.2439 18.1169 11.6829L19.0194 12.2927C19.6535 12.7317 19.8486 13.5854 19.4584 14.2683L18.0681 16.6585C17.6779 17.3415 16.8486 17.5854 16.1413 17.2683L15.1657 16.8293C14.4584 17.4146 13.6535 17.878 12.7998 18.1951L12.7023 19.2683C12.6291 20.0488 11.995 20.6341 11.2145 20.6341L8.45838 20.6341C7.67789 20.6341 7.04375 20.0488 6.97058 19.2683L6.87302 18.1951C6.01936 17.878 5.21448 17.4146 4.50716 16.8293L3.53155 17.2683C2.82424 17.5854 1.99497 17.3415 1.60472 16.6585ZM2.60472 12.122L1.21448 13.0976C0.970577 13.2439 0.921797 13.561 1.04375 13.7805L2.45838 16.1707C2.60472 16.4146 2.89741 16.5122 3.14131 16.3902L4.67789 15.6829L4.9218 15.9024C5.67789 16.561 6.53155 17.0732 7.48277 17.3902L7.77545 17.4878L7.9218 19.1951C7.94619 19.4878 8.1657 19.6829 8.43399 19.6829L11.2389 19.6829C11.5072 19.6829 11.7267 19.4634 11.7511 19.1951L11.8974 17.4878L12.1901 17.3902C13.1413 17.0732 13.995 16.561 14.7511 15.9024L14.995 15.6829L16.5316 16.3902C16.7998 16.4878 17.0681 16.4146 17.2145 16.1707L18.5559 13.7805C18.7023 13.561 18.6291 13.2439 18.4096 13.0976L17.0194 12.122L17.0925 11.8049C17.1901 11.3171 17.2389 10.8293 17.2389 10.3171C17.2389 9.80488 17.1901 9.31707 17.0925 8.82927L17.0194 8.51219L18.4096 7.53659C18.6291 7.39024 18.7023 7.09756 18.5559 6.85366L17.1657 4.46341C17.0194 4.21951 16.7267 4.12195 16.4828 4.2439L14.9462 4.95122L14.7023 4.73171C13.9462 4.07317 13.0925 3.56098 12.1413 3.2439L11.8486 3.14634L11.7023 1.43902C11.6779 1.14634 11.4584 0.951219 11.1901 0.951219L8.43399 0.951219C8.1657 0.951219 7.94619 1.17073 7.9218 1.43902L7.77545 3.14634L7.48277 3.2439C6.53155 3.56098 5.67789 4.07317 4.9218 4.73171L4.67789 4.95122L3.14131 4.2439C2.87302 4.14634 2.60472 4.21951 2.45838 4.46341L1.06814 6.85366C0.921797 7.07317 0.994967 7.39024 1.21448 7.53659L2.60472 8.51219L2.53155 8.82927C2.43399 9.31707 2.38521 9.80488 2.38521 10.3171C2.38521 10.8293 2.43399 11.3171 2.53155 11.8049L2.60472 12.122Z" fill-rule="evenodd"/>
	</g>

</svg>