<?xml version="1.0" encoding="utf-8" ?>
<svg xmlns="http://www.w3.org/2000/svg" xmlns:xlink="http://www.w3.org/1999/xlink" width="50" height="50">
	<defs>
		<clipPath id="clip_0">
			<rect x="-150" y="-1823" width="1260" height="2852" clip-rule="evenodd"/>
		</clipPath>
	</defs>
	<g clip-path="url(#clip_0)">
		<path fill="rgb(0,196,209)" fill-opacity="0.2" stroke="none" d="M25 50C38.8071 50 50 38.8071 50 25C50 11.1929 38.8071 0 25 0C11.1929 0 0 11.1929 0 25C0 38.8071 11.1929 50 25 50Z"/>
	</g>
	<defs>
		<clipPath id="clip_1">
			<rect x="-150" y="-1823" width="1260" height="2852" clip-rule="evenodd"/>
		</clipPath>
	</defs>
	<g clip-path="url(#clip_1)">
		<path fill="rgb(0,196,209)" stroke="none" transform="translate(15.332 15.5508)" d="M0 0.434783C0 0.194652 0.194652 0 0.434783 0C0.674913 0 0.869565 0.194652 0.869565 0.434783L0.869565 17.8261L19.5652 17.8261C19.8053 17.8261 20 18.0207 20 18.2609C20 18.501 19.8053 18.6957 19.5652 18.6957L0.434783 18.6957C0.194652 18.6957 0 18.501 0 18.2609L0 0.434783ZM14.7826 4.78261C14.7826 3.94733 15.4691 3.26087 16.3043 3.26087C17.1396 3.26087 17.8261 3.94733 17.8261 4.78261C17.8261 5.61789 17.1396 6.30435 16.3043 6.30435C16.1231 6.30435 15.9498 6.26838 15.788 6.20924L13.2677 9.80978C13.5321 10.084 13.6957 10.462 13.6957 10.8696C13.6957 11.7048 13.0092 12.3913 12.1739 12.3913C11.3386 12.3913 10.6522 11.7048 10.6522 10.8696C10.6522 10.7675 10.6666 10.6673 10.6861 10.5707L8.76359 9.44972C8.50424 9.65461 8.17933 9.78261 7.82609 9.78261C7.64487 9.78261 7.4715 9.74663 7.30978 9.6875L4.78939 13.288C5.0538 13.5623 5.21739 13.9403 5.21739 14.3478C5.21739 15.1831 4.53093 15.8696 3.69565 15.8696C2.86037 15.8696 2.17391 15.1831 2.17391 14.3478C2.17391 13.5125 2.86037 12.8261 3.69565 12.8261C3.81222 12.8261 3.92602 12.8348 4.03533 12.86L6.61685 9.1712C6.42226 8.9155 6.30435 8.60417 6.30435 8.26087C6.30435 7.42559 6.9908 6.73913 7.82609 6.73913C8.66137 6.73913 9.34783 7.42559 9.34783 8.26087C9.34783 8.43054 9.31844 8.59033 9.2663 8.74321L11.087 9.80298C11.364 9.51911 11.7495 9.34783 12.1739 9.34783C12.2905 9.34783 12.4043 9.35652 12.5136 9.38178L15.0951 5.69293C14.9005 5.43724 14.7826 5.12591 14.7826 4.78261ZM16.3043 4.13043C16.6697 4.13043 16.9565 4.41727 16.9565 4.78261C16.9565 5.14794 16.6697 5.43478 16.3043 5.43478C15.939 5.43478 15.6522 5.14794 15.6522 4.78261C15.6522 4.41727 15.939 4.13043 16.3043 4.13043ZM8.47826 8.26087C8.47826 7.89553 8.19141 7.6087 7.82609 7.6087C7.46076 7.6087 7.17391 7.89553 7.17391 8.26087C7.17391 8.6262 7.46076 8.91305 7.82609 8.91305C8.19141 8.91305 8.47826 8.6262 8.47826 8.26087ZM12.1739 10.2174C12.5392 10.2174 12.8261 10.5042 12.8261 10.8696C12.8261 11.2349 12.5392 11.5217 12.1739 11.5217C11.8086 11.5217 11.5217 11.2349 11.5217 10.8696C11.5217 10.5042 11.8086 10.2174 12.1739 10.2174ZM4.34783 14.3478C4.34783 13.9825 4.06098 13.6957 3.69565 13.6957C3.33033 13.6957 3.04348 13.9825 3.04348 14.3478C3.04348 14.7132 3.33033 15 3.69565 15C4.06098 15 4.34783 14.7132 4.34783 14.3478Z" fill-rule="evenodd"/>
	</g>
	<defs>
		<clipPath id="clip_2">
			<rect x="-150" y="-1823" width="1260" height="2852" clip-rule="evenodd"/>
		</clipPath>
	</defs>
	<g clip-path="url(#clip_2)">
		<path fill="none" stroke="rgb(0,196,209)" stroke-width="1" stroke-linecap="round" stroke-linejoin="round" transform="translate(15.332 15.5508)" d="M0 0.434783C0 0.194652 0.194652 0 0.434783 0C0.674913 0 0.869565 0.194652 0.869565 0.434783L0.869565 17.8261L19.5652 17.8261C19.8053 17.8261 20 18.0207 20 18.2609C20 18.501 19.8053 18.6957 19.5652 18.6957L0.434783 18.6957C0.194652 18.6957 0 18.501 0 18.2609L0 0.434783ZM14.7826 4.78261C14.7826 3.94733 15.4691 3.26087 16.3043 3.26087C17.1396 3.26087 17.8261 3.94733 17.8261 4.78261C17.8261 5.61789 17.1396 6.30435 16.3043 6.30435C16.1231 6.30435 15.9498 6.26838 15.788 6.20924L13.2677 9.80978C13.5321 10.084 13.6957 10.462 13.6957 10.8696C13.6957 11.7048 13.0092 12.3913 12.1739 12.3913C11.3386 12.3913 10.6522 11.7048 10.6522 10.8696C10.6522 10.7675 10.6666 10.6673 10.6861 10.5707L8.76359 9.44972C8.50424 9.65461 8.17933 9.78261 7.82609 9.78261C7.64487 9.78261 7.4715 9.74663 7.30978 9.6875L4.78939 13.288C5.0538 13.5623 5.21739 13.9403 5.21739 14.3478C5.21739 15.1831 4.53093 15.8696 3.69565 15.8696C2.86037 15.8696 2.17391 15.1831 2.17391 14.3478C2.17391 13.5125 2.86037 12.8261 3.69565 12.8261C3.81222 12.8261 3.92602 12.8348 4.03533 12.86L6.61685 9.1712C6.42226 8.9155 6.30435 8.60417 6.30435 8.26087C6.30435 7.42559 6.9908 6.73913 7.82609 6.73913C8.66137 6.73913 9.34783 7.42559 9.34783 8.26087C9.34783 8.43054 9.31844 8.59033 9.2663 8.74321L11.087 9.80298C11.364 9.51911 11.7495 9.34783 12.1739 9.34783C12.2905 9.34783 12.4043 9.35652 12.5136 9.38178L15.0951 5.69293C14.9005 5.43724 14.7826 5.12591 14.7826 4.78261ZM16.3043 4.13043C16.6697 4.13043 16.9565 4.41727 16.9565 4.78261C16.9565 5.14794 16.6697 5.43478 16.3043 5.43478C15.939 5.43478 15.6522 5.14794 15.6522 4.78261C15.6522 4.41727 15.939 4.13043 16.3043 4.13043ZM8.47826 8.26087C8.47826 7.89553 8.19141 7.6087 7.82609 7.6087C7.46076 7.6087 7.17391 7.89553 7.17391 8.26087C7.17391 8.6262 7.46076 8.91305 7.82609 8.91305C8.19141 8.91305 8.47826 8.6262 8.47826 8.26087ZM12.1739 10.2174C12.5392 10.2174 12.8261 10.5042 12.8261 10.8696C12.8261 11.2349 12.5392 11.5217 12.1739 11.5217C11.8086 11.5217 11.5217 11.2349 11.5217 10.8696C11.5217 10.5042 11.8086 10.2174 12.1739 10.2174ZM4.34783 14.3478C4.34783 13.9825 4.06098 13.6957 3.69565 13.6957C3.33033 13.6957 3.04348 13.9825 3.04348 14.3478C3.04348 14.7132 3.33033 15 3.69565 15C4.06098 15 4.34783 14.7132 4.34783 14.3478Z" fill-rule="evenodd"/>
	</g>

</svg>