<?xml version="1.0" encoding="utf-8" ?>
<svg xmlns="http://www.w3.org/2000/svg" xmlns:xlink="http://www.w3.org/1999/xlink" width="40" height="40">
	<defs>
		<clipPath id="clip_0">
			<rect x="-139" y="-1679" width="1260" height="2852" clip-rule="evenodd"/>
		</clipPath>
	</defs>
	<g clip-path="url(#clip_0)">
		<path fill="rgb(85,121,243)" stroke="none" d="M4.44185 39.3846L34.9422 39.3846C37.392 39.3846 39.3846 37.392 39.3846 34.9422L39.3846 4.44185C39.3846 1.99262 37.3914 0 34.9422 0L4.44185 0C1.99262 0 0 1.99323 0 4.44246L0 34.9422C0 37.392 1.99262 39.3846 4.44185 39.3846ZM1.84615 4.44246C1.84615 3.01108 3.01046 1.84615 4.44185 1.84615L34.9422 1.84615C36.3735 1.84615 37.5385 3.01108 37.5385 4.44246L37.5385 34.9422C37.5385 36.3735 36.3735 37.5385 34.9422 37.5385L4.44185 37.5385C3.01046 37.5385 1.84615 36.3735 1.84615 34.9422L1.84615 4.44246Z" fill-rule="evenodd"/>
	</g>
	<defs>
		<clipPath id="clip_1">
			<rect x="-139" y="-1679" width="1260" height="2852" clip-rule="evenodd"/>
		</clipPath>
	</defs>
	<g clip-path="url(#clip_1)">
		<path fill="none" stroke="rgb(85,121,243)" stroke-width="0.25" stroke-linecap="round" stroke-linejoin="round" d="M4.44185 39.3846L34.9422 39.3846C37.392 39.3846 39.3846 37.392 39.3846 34.9422L39.3846 4.44185C39.3846 1.99262 37.3914 0 34.9422 0L4.44185 0C1.99262 0 0 1.99323 0 4.44246L0 34.9422C0 37.392 1.99262 39.3846 4.44185 39.3846ZM1.84615 4.44246C1.84615 3.01108 3.01046 1.84615 4.44185 1.84615L34.9422 1.84615C36.3735 1.84615 37.5385 3.01108 37.5385 4.44246L37.5385 34.9422C37.5385 36.3735 36.3735 37.5385 34.9422 37.5385L4.44185 37.5385C3.01046 37.5385 1.84615 36.3735 1.84615 34.9422L1.84615 4.44246Z" fill-rule="evenodd"/>
	</g>
	<defs>
		<clipPath id="clip_2">
			<rect x="-139" y="-1679" width="1260" height="2852" clip-rule="evenodd"/>
		</clipPath>
	</defs>
	<g clip-path="url(#clip_2)">
		<path fill="rgb(85,121,243)" stroke="none" transform="translate(11.8438 9.43628)" d="M17.6714 10.0794C17.6769 10.1089 17.6825 10.1378 17.6855 10.1674C17.688 10.1969 17.6892 10.2258 17.6892 10.256C17.6892 10.2862 17.6886 10.3151 17.6862 10.3446C17.6837 10.3742 17.6782 10.4031 17.672 10.4326C17.6665 10.4622 17.6603 10.4917 17.6517 10.5206C17.6437 10.5477 17.6332 10.5735 17.6228 10.6C17.6105 10.6314 17.5963 10.6615 17.5803 10.6917C17.5754 10.7028 17.5723 10.7138 17.5655 10.7249C17.56 10.7348 17.552 10.7409 17.5458 10.7502C17.5138 10.8006 17.4763 10.8474 17.4345 10.8917C17.4234 10.9034 17.4142 10.9157 17.4025 10.9268C17.3532 10.9729 17.2997 11.0154 17.2388 11.0517L1.39262 20.3846C1.24554 20.472 1.08431 20.5126 0.924923 20.5126C0.608615 20.5126 0.300923 20.3508 0.128615 20.0585C0.0190769 19.8726 -0.0141538 19.6646 0.0129231 19.4665C0.00676923 19.4215 0 19.3772 0 19.3311L0 1.06646C0 1.04493 0.00430769 1.02585 0.00553846 1.00493C-0.0116923 0.819079 0.0252308 0.627079 0.127385 0.454156C0.386462 0.0153868 0.952 -0.130459 1.39138 0.127387L17.2388 9.45969C17.2529 9.46769 17.2646 9.47939 17.2782 9.48862C17.304 9.50523 17.3286 9.52308 17.352 9.54277C17.3766 9.56308 17.4 9.58462 17.4222 9.60677C17.4412 9.62646 17.4603 9.64677 17.4775 9.66831C17.5009 9.69539 17.5212 9.72369 17.5397 9.75262C17.5477 9.76493 17.5575 9.77477 17.5649 9.78708C17.5705 9.79754 17.5735 9.80923 17.5797 9.81969C17.5957 9.84985 17.6092 9.88062 17.6222 9.91262C17.6332 9.93908 17.6431 9.96492 17.6511 9.99139C17.6591 10.0203 17.6658 10.0498 17.6714 10.0794ZM1.84615 2.53785L1.84615 17.9742L14.9502 10.256L1.84615 2.53785Z" fill-rule="evenodd"/>
	</g>
	<defs>
		<clipPath id="clip_3">
			<rect x="-139" y="-1679" width="1260" height="2852" clip-rule="evenodd"/>
		</clipPath>
	</defs>
	<g clip-path="url(#clip_3)">
		<path fill="none" stroke="rgb(85,121,243)" stroke-width="0.25" stroke-linecap="round" stroke-linejoin="round" transform="translate(11.8438 9.43628)" d="M17.6714 10.0794C17.6769 10.1089 17.6825 10.1378 17.6855 10.1674C17.688 10.1969 17.6892 10.2258 17.6892 10.256C17.6892 10.2862 17.6886 10.3151 17.6862 10.3446C17.6837 10.3742 17.6782 10.4031 17.672 10.4326C17.6665 10.4622 17.6603 10.4917 17.6517 10.5206C17.6437 10.5477 17.6332 10.5735 17.6228 10.6C17.6105 10.6314 17.5963 10.6615 17.5803 10.6917C17.5754 10.7028 17.5723 10.7138 17.5655 10.7249C17.56 10.7348 17.552 10.7409 17.5458 10.7502C17.5138 10.8006 17.4763 10.8474 17.4345 10.8917C17.4234 10.9034 17.4142 10.9157 17.4025 10.9268C17.3532 10.9729 17.2997 11.0154 17.2388 11.0517L1.39262 20.3846C1.24554 20.472 1.08431 20.5126 0.924923 20.5126C0.608615 20.5126 0.300923 20.3508 0.128615 20.0585C0.0190769 19.8726 -0.0141538 19.6646 0.0129231 19.4665C0.00676923 19.4215 0 19.3772 0 19.3311L0 1.06646C0 1.04493 0.00430769 1.02585 0.00553846 1.00493C-0.0116923 0.819079 0.0252308 0.627079 0.127385 0.454156C0.386462 0.0153868 0.952 -0.130459 1.39138 0.127387L17.2388 9.45969C17.2529 9.46769 17.2646 9.47939 17.2782 9.48862C17.304 9.50523 17.3286 9.52308 17.352 9.54277C17.3766 9.56308 17.4 9.58462 17.4222 9.60677C17.4412 9.62646 17.4603 9.64677 17.4775 9.66831C17.5009 9.69539 17.5212 9.72369 17.5397 9.75262C17.5477 9.76493 17.5575 9.77477 17.5649 9.78708C17.5705 9.79754 17.5735 9.80923 17.5797 9.81969C17.5957 9.84985 17.6092 9.88062 17.6222 9.91262C17.6332 9.93908 17.6431 9.96492 17.6511 9.99139C17.6591 10.0203 17.6658 10.0498 17.6714 10.0794ZM1.84615 2.53785L1.84615 17.9742L14.9502 10.256L1.84615 2.53785Z" fill-rule="evenodd"/>
	</g>

</svg>