<?xml version="1.0" encoding="utf-8" ?>
<svg xmlns="http://www.w3.org/2000/svg" xmlns:xlink="http://www.w3.org/1999/xlink" width="50" height="50">
	<defs>
		<clipPath id="clip_0">
			<rect x="-230" y="-1823" width="1260" height="2852" clip-rule="evenodd"/>
		</clipPath>
	</defs>
	<g clip-path="url(#clip_0)">
		<path fill="rgb(255,154,0)" fill-opacity="0.2" stroke="none" d="M25 50C38.8071 50 50 38.8071 50 25C50 11.1929 38.8071 0 25 0C11.1929 0 0 11.1929 0 25C0 38.8071 11.1929 50 25 50Z"/>
	</g>
	<defs>
		<clipPath id="clip_1">
			<rect x="-230" y="-1823" width="1260" height="2852" clip-rule="evenodd"/>
		</clipPath>
	</defs>
	<g clip-path="url(#clip_1)">
		<path fill="rgb(255,154,0)" stroke="none" transform="translate(15 15)" d="M2.22092 19.6923L17.4711 19.6923C18.696 19.6923 19.6923 18.696 19.6923 17.4711L19.6923 2.22092C19.6923 0.996308 18.6957 0 17.4711 0L2.22092 0C0.996308 0 0 0.996615 0 2.22123L0 17.4711C0 18.696 0.996308 19.6923 2.22092 19.6923ZM0.923077 2.22123C0.923077 1.50554 1.50523 0.923077 2.22092 0.923077L17.4711 0.923077C18.1868 0.923077 18.7692 1.50554 18.7692 2.22123L18.7692 17.4711C18.7692 18.1868 18.1868 18.7692 17.4711 18.7692L2.22092 18.7692C1.50523 18.7692 0.923077 18.1868 0.923077 17.4711L0.923077 2.22123Z" fill-rule="evenodd"/>
	</g>
	<defs>
		<clipPath id="clip_2">
			<rect x="-230" y="-1823" width="1260" height="2852" clip-rule="evenodd"/>
		</clipPath>
	</defs>
	<g clip-path="url(#clip_2)">
		<path fill="none" stroke="rgb(255,154,0)" stroke-width="0.5" stroke-linecap="round" stroke-linejoin="round" transform="translate(15 15)" d="M2.22092 19.6923L17.4711 19.6923C18.696 19.6923 19.6923 18.696 19.6923 17.4711L19.6923 2.22092C19.6923 0.996308 18.6957 0 17.4711 0L2.22092 0C0.996308 0 0 0.996615 0 2.22123L0 17.4711C0 18.696 0.996308 19.6923 2.22092 19.6923ZM0.923077 2.22123C0.923077 1.50554 1.50523 0.923077 2.22092 0.923077L17.4711 0.923077C18.1868 0.923077 18.7692 1.50554 18.7692 2.22123L18.7692 17.4711C18.7692 18.1868 18.1868 18.7692 17.4711 18.7692L2.22092 18.7692C1.50523 18.7692 0.923077 18.1868 0.923077 17.4711L0.923077 2.22123Z" fill-rule="evenodd"/>
	</g>
	<defs>
		<clipPath id="clip_3">
			<rect x="-230" y="-1823" width="1260" height="2852" clip-rule="evenodd"/>
		</clipPath>
	</defs>
	<g clip-path="url(#clip_3)">
		<path fill="rgb(255,154,0)" stroke="none" transform="translate(20.9219 19.7183)" d="M8.83569 5.03969C8.83846 5.05446 8.84123 5.06892 8.84277 5.08369C8.844 5.09846 8.84461 5.11292 8.84461 5.128C8.84461 5.14308 8.84431 5.15754 8.84308 5.17231C8.84185 5.18708 8.83908 5.20154 8.836 5.21631C8.83323 5.23108 8.83015 5.24585 8.82585 5.26031C8.82185 5.27385 8.81662 5.28677 8.81138 5.3C8.80523 5.31569 8.79815 5.33077 8.79015 5.34585C8.78769 5.35139 8.78615 5.35692 8.78277 5.36246C8.78 5.36739 8.776 5.37046 8.77292 5.37508C8.75692 5.40031 8.73815 5.42369 8.71723 5.44585C8.71169 5.45169 8.70708 5.45785 8.70123 5.46339C8.67661 5.48646 8.64985 5.50769 8.61938 5.52585L0.696308 10.1923C0.622769 10.236 0.542154 10.2563 0.462462 10.2563C0.304308 10.2563 0.150462 10.1754 0.0643077 10.0292C0.00953846 9.93631 -0.00707692 9.83231 0.00646154 9.73323C0.00338462 9.71077 0 9.68862 0 9.66554L0 0.533232C0 0.522463 0.00215385 0.512924 0.00276923 0.502463C-0.00584615 0.40954 0.0126154 0.31354 0.0636923 0.227078C0.193231 0.00769338 0.476 -0.0652297 0.695692 0.0636934L8.61938 4.72985C8.62646 4.73385 8.63231 4.73969 8.63908 4.74431C8.652 4.75262 8.66431 4.76154 8.676 4.77139C8.68831 4.78154 8.7 4.79231 8.71108 4.80339C8.72061 4.81323 8.73015 4.82339 8.73877 4.83415C8.75046 4.84769 8.76062 4.86185 8.76985 4.87631C8.77385 4.88246 8.77877 4.88739 8.78246 4.89354C8.78523 4.89877 8.78677 4.90462 8.78985 4.90985C8.79785 4.92492 8.80462 4.94031 8.81108 4.95631C8.81662 4.96954 8.82154 4.98246 8.82554 4.99569C8.82954 5.01015 8.83292 5.02492 8.83569 5.03969ZM0.923077 1.26892L0.923077 8.98708L7.47508 5.128L0.923077 1.26892Z" fill-rule="evenodd"/>
	</g>
	<defs>
		<clipPath id="clip_4">
			<rect x="-230" y="-1823" width="1260" height="2852" clip-rule="evenodd"/>
		</clipPath>
	</defs>
	<g clip-path="url(#clip_4)">
		<path fill="none" stroke="rgb(255,154,0)" stroke-width="0.5" stroke-linecap="round" stroke-linejoin="round" transform="translate(20.9219 19.7183)" d="M8.83569 5.03969C8.83846 5.05446 8.84123 5.06892 8.84277 5.08369C8.844 5.09846 8.84461 5.11292 8.84461 5.128C8.84461 5.14308 8.84431 5.15754 8.84308 5.17231C8.84185 5.18708 8.83908 5.20154 8.836 5.21631C8.83323 5.23108 8.83015 5.24585 8.82585 5.26031C8.82185 5.27385 8.81662 5.28677 8.81138 5.3C8.80523 5.31569 8.79815 5.33077 8.79015 5.34585C8.78769 5.35139 8.78615 5.35692 8.78277 5.36246C8.78 5.36739 8.776 5.37046 8.77292 5.37508C8.75692 5.40031 8.73815 5.42369 8.71723 5.44585C8.71169 5.45169 8.70708 5.45785 8.70123 5.46339C8.67661 5.48646 8.64985 5.50769 8.61938 5.52585L0.696308 10.1923C0.622769 10.236 0.542154 10.2563 0.462462 10.2563C0.304308 10.2563 0.150462 10.1754 0.0643077 10.0292C0.00953846 9.93631 -0.00707692 9.83231 0.00646154 9.73323C0.00338462 9.71077 0 9.68862 0 9.66554L0 0.533232C0 0.522463 0.00215385 0.512924 0.00276923 0.502463C-0.00584615 0.40954 0.0126154 0.31354 0.0636923 0.227078C0.193231 0.00769338 0.476 -0.0652297 0.695692 0.0636934L8.61938 4.72985C8.62646 4.73385 8.63231 4.73969 8.63908 4.74431C8.652 4.75262 8.66431 4.76154 8.676 4.77139C8.68831 4.78154 8.7 4.79231 8.71108 4.80339C8.72061 4.81323 8.73015 4.82339 8.73877 4.83415C8.75046 4.84769 8.76062 4.86185 8.76985 4.87631C8.77385 4.88246 8.77877 4.88739 8.78246 4.89354C8.78523 4.89877 8.78677 4.90462 8.78985 4.90985C8.79785 4.92492 8.80462 4.94031 8.81108 4.95631C8.81662 4.96954 8.82154 4.98246 8.82554 4.99569C8.82954 5.01015 8.83292 5.02492 8.83569 5.03969ZM0.923077 1.26892L0.923077 8.98708L7.47508 5.128L0.923077 1.26892Z" fill-rule="evenodd"/>
	</g>

</svg>