<?xml version="1.0" encoding="UTF-8"?>
<svg width="236px" height="50px" viewBox="0 0 236 50" version="1.1" xmlns="http://www.w3.org/2000/svg" xmlns:xlink="http://www.w3.org/1999/xlink">
    <!-- Generator: Sketch 53.2 (72643) - https://sketchapp.com -->
    <title>Group 12</title>
    <desc>Created with Sketch.</desc>
    <defs>
        <linearGradient x1="-10.0003161%" y1="14.6582091%" x2="44.7730127%" y2="64.0705899%" id="linearGradient-1">
            <stop stop-color="#E6ECFD" stop-opacity="0.3277" offset="0%"></stop>
            <stop stop-color="#8BA4F7" stop-opacity="0.6211" offset="36.22%"></stop>
            <stop stop-color="#7391F5" stop-opacity="0.8472" offset="62.12%"></stop>
            <stop stop-color="#6C8BF5" stop-opacity="0.9616" offset="75.03%"></stop>
            <stop stop-color="#5F81F4" stop-opacity="0.9969" offset="86.64%"></stop>
            <stop stop-color="#5579F3" offset="100%"></stop>
        </linearGradient>
    </defs>
    <g id="Homepage-+-responsive" stroke="none" stroke-width="1" fill="none" fill-rule="evenodd">
        <g id="home-2" transform="translate(-98.000000, -3591.000000)" fill-rule="nonzero">
            <g id="Group-7" transform="translate(98.000000, 3591.000000)">
                <g id="Group-12">
                    <g id="1">
                        <rect id="pix3_2_" fill="#5579F3" opacity="0.44" x="76.1846154" y="26.1961538" width="11.3846154" height="11.3846154"></rect>
                        <rect id="Rectangle" fill="#5579F3" x="37.2711538" y="12.4307692" width="6.49807692" height="11.3846154"></rect>
                        <rect id="Rectangle" fill="#5579F3" x="37.375" y="0.0115384615" width="11.3846154" height="11.3846154"></rect>
                        <rect id="Rectangle" fill="#5579F3" x="63.7653846" y="12.4307692" width="11.3846154" height="11.3846154"></rect>
                        <rect id="pix1_2_" fill="#5579F3" opacity="0.44" x="0.0115384615" y="12.4307692" width="11.3846154" height="11.3846154"></rect>
                        <rect id="pix2_2_" fill="#5579F3" x="12.4307692" y="24.85" width="11.3846154" height="11.3846154"></rect>
                        <rect id="pix3-2_2_" fill="#5579F3" opacity="0.3" x="24.85" y="12.4307692" width="11.3846154" height="11.3846154"></rect>
                        <rect id="pix4_2_" fill="#5579F3" x="24.85" y="24.85" width="11.3846154" height="11.3846154"></rect>
                        <rect id="pix5_2_" fill="#5579F3" opacity="0.44" x="24.85" y="37.2692308" width="11.3846154" height="11.3846154"></rect>
                        <rect id="Rectangle" fill="#5579F3" x="63.7653846" y="38.6153846" width="11.3846154" height="11.3846154"></rect>
                        <rect id="pix10_2_" fill="#5579F3" opacity="0.44" x="76.0826923" y="0.0115384615" width="11.3846154" height="11.3846154"></rect>
                        <rect id="pix12_2_" fill="#5579F3" opacity="0.3" x="88.6057692" y="13.6730769" width="11.3846154" height="11.3846154"></rect>
                        <rect id="pix13_2_" fill="#5579F3" opacity="0.16" x="88.6057692" y="26.1961538" width="11.3846154" height="11.3846154"></rect>
                        <g id="Group" transform="translate(43.846154, 3.269231)" fill="#FFFFFF">
                            <path d="M38.2884615,22.9269231 C37.9788462,24.3442308 37.0807692,25.5634615 35.8192308,26.2788462 L31.6134615,28.7076923 L20.1153846,35.3461538 L19.1942308,35.8788462 L8.63076923,41.9788462 C5.17307692,43.975 0.853846154,41.4788462 0.853846154,37.4884615 L0.853846154,6.09038462 C0.853846154,3.17884615 3.15384615,1.06153846 5.74038462,0.905769231 C6.75192308,0.846153846 7.75769231,1.08846154 8.63076923,1.6 L24.0596154,10.5076923 L30.5807692,14.2730769 L35.8211538,17.2980769 C37.7903846,18.4269231 38.7923077,20.7115385 38.2884615,22.9269231 Z" id="Path"></path>
                            <path d="M6.03846154,43.4576923 C5.01538462,43.4576923 3.99038462,43.1884615 3.05769231,42.65 C1.19038462,41.5730769 0.0769230769,39.6423077 0.0769230769,37.4865385 L0.0769230769,6.09038462 C0.0769230769,2.93846154 2.54423077,0.321153846 5.69423077,0.130769231 C6.86346154,0.0634615385 8.01346154,0.338461538 9.02307692,0.928846154 L24.4480769,9.83461538 L36.2076923,16.6269231 C38.4865385,17.9326923 39.6269231,20.5326923 39.0461538,23.0961538 C38.6884615,24.725 37.6538462,26.1307692 36.2038462,26.9538462 L9.01923077,42.65 C8.08653846,43.1884615 7.06346154,43.4576923 6.03846154,43.4576923 Z M6.04038462,1.67307692 C5.95576923,1.67307692 5.87115385,1.675 5.78461538,1.68076923 C3.74230769,1.80384615 1.62884615,3.48653846 1.62884615,6.09038462 L1.62884615,37.4865385 C1.62884615,39.0807692 2.45384615,40.5076923 3.83269231,41.3038462 C5.21346154,42.1 6.86153846,42.1019231 8.24230769,41.3038462 L35.4307692,25.6057692 C36.5038462,24.9961538 37.2673077,23.9596154 37.5288462,22.7596154 L37.5307692,22.7538462 C37.9615385,20.8596154 37.1192308,18.9365385 35.4326923,17.9711538 L8.24230769,2.27115385 C7.56923077,1.87884615 6.81346154,1.67307692 6.04038462,1.67307692 Z" id="Shape"></path>
                        </g>
                        <g id="Group" transform="translate(43.846154, 3.269231)">
                            <path d="M38.2884615,22.9269231 C37.9788462,24.3442308 37.0807692,25.5634615 35.8192308,26.2788462 L31.6134615,28.7076923 L20.1153846,35.3461538 L19.1942308,35.8788462 L8.63076923,41.9788462 C5.17307692,43.975 0.853846154,41.4788462 0.853846154,37.4884615 L0.853846154,6.09038462 C0.853846154,3.17884615 3.15384615,1.06153846 5.74038462,0.905769231 C6.75192308,0.846153846 7.75769231,1.08846154 8.63076923,1.6 L24.0596154,10.5076923 L30.5807692,14.2730769 L35.8211538,17.2980769 C37.7903846,18.4269231 38.7923077,20.7115385 38.2884615,22.9269231 Z" id="Path" fill="url(#linearGradient-1)"></path>
                            <path d="M6.03846154,43.4576923 C5.01538462,43.4576923 3.99038462,43.1884615 3.05769231,42.65 C1.19038462,41.5730769 0.0769230769,39.6423077 0.0769230769,37.4865385 L0.0769230769,6.09038462 C0.0769230769,2.93846154 2.54423077,0.321153846 5.69423077,0.130769231 C6.86346154,0.0634615385 8.01346154,0.338461538 9.02307692,0.928846154 L24.4480769,9.83461538 L36.2076923,16.6269231 C38.4865385,17.9326923 39.6269231,20.5326923 39.0461538,23.0961538 C38.6884615,24.725 37.6538462,26.1307692 36.2038462,26.9538462 L9.01923077,42.65 C8.08653846,43.1884615 7.06346154,43.4576923 6.03846154,43.4576923 Z M6.04038462,1.67307692 C5.95576923,1.67307692 5.87115385,1.675 5.78461538,1.68076923 C3.74230769,1.80384615 1.62884615,3.48653846 1.62884615,6.09038462 L1.62884615,37.4865385 C1.62884615,39.0807692 2.45384615,40.5076923 3.83269231,41.3038462 C5.21346154,42.1 6.86153846,42.1019231 8.24230769,41.3038462 L35.4307692,25.6057692 C36.5038462,24.9961538 37.2673077,23.9596154 37.5288462,22.7596154 L37.5307692,22.7538462 C37.9615385,20.8596154 37.1192308,18.9365385 35.4326923,17.9711538 L8.24230769,2.27115385 C7.56923077,1.87884615 6.81346154,1.67307692 6.04038462,1.67307692 Z" id="Shape" fill="#FFFFFF"></path>
                        </g>
                    </g>
                    <path d="M108.878906,28.9570312 L111.818359,28.9570312 C111.837891,29.4257836 112.028319,29.8196599 112.389648,30.1386719 C112.750978,30.4576839 113.247393,30.6171875 113.878906,30.6171875 C114.477868,30.6171875 114.962889,30.4853529 115.333984,30.2216797 C115.70508,29.9580065 115.89388,29.6048199 115.900391,29.1621094 C115.913412,28.8170556 115.802736,28.5175794 115.568359,28.2636719 C115.333983,28.0097644 114.891279,27.7884124 114.240234,27.5996094 L112.580078,27.140625 C110.203764,26.4049442 109.015625,25.0833429 109.015625,23.1757812 C109.015625,21.9648377 109.47135,20.9768918 110.382812,20.2119141 C111.294275,19.4469363 112.420566,19.0644531 113.761719,19.0644531 C115.122403,19.0644531 116.238928,19.4453087 117.111328,20.2070312 C117.983728,20.9687538 118.419922,21.9941342 118.419922,23.2832031 L115.5,23.2832031 C115.5,22.8144508 115.345379,22.4368504 115.036133,22.1503906 C114.726886,21.8639309 114.289065,21.7207031 113.722656,21.7207031 C113.208331,21.7207031 112.781903,21.8492826 112.443359,22.1064453 C112.104816,22.3636081 111.935547,22.6940084 111.935547,23.0976562 C111.935547,23.7552116 112.430334,24.2239569 113.419922,24.5039062 L115.060547,25.0214844 C117.638685,25.7636756 118.898438,27.1503805 118.839844,29.1816406 C118.833333,29.8457064 118.685223,30.4414036 118.395508,30.96875 C118.105793,31.4960964 117.724937,31.9192692 117.25293,32.2382812 C116.780922,32.5572933 116.256839,32.8014314 115.680664,32.9707031 C115.104489,33.1399748 114.503909,33.2246094 113.878906,33.2246094 C112.388013,33.2246094 111.181971,32.8258503 110.260742,32.0283203 C109.339514,31.2307903 108.878906,30.2070375 108.878906,28.9570312 Z M121.251953,33 L121.251953,19.2207031 L124.171875,19.2207031 L124.171875,33 L121.251953,33 Z M126.642578,33 L128.341797,19.2207031 L130.763672,19.2207031 L134.923828,28.0976562 L139.044922,19.2207031 L141.505859,19.2207031 L143.185547,33 L140.246094,33 L139.279297,24.7382812 L136.066406,31.4179688 L133.800781,31.4179688 L130.558594,24.7382812 L129.582031,33 L126.642578,33 Z M145.519531,28.078125 L145.519531,19.2207031 L148.498047,19.2207031 L148.498047,28.078125 C148.498047,28.7682326 148.73242,29.3346332 149.201172,29.7773438 C149.669924,30.2200543 150.226559,30.4414062 150.871094,30.4414062 C151.509118,30.4414062 152.065753,30.2184267 152.541016,29.7724609 C153.016278,29.3264952 153.253906,28.7617222 153.253906,28.078125 L153.253906,19.2207031 L156.193359,19.2207031 L156.193359,28.078125 C156.193359,29.0872446 155.944338,29.9856731 155.446289,30.7734375 C154.94824,31.5612019 154.297205,32.1617818 153.493164,32.5751953 C152.689124,32.9886088 151.815109,33.1953125 150.871094,33.1953125 C149.920568,33.1953125 149.040043,32.9886088 148.229492,32.5751953 C147.418941,32.1617818 146.764651,31.5612019 146.266602,30.7734375 C145.768552,29.9856731 145.519531,29.0872446 145.519531,28.078125 Z" id="SIMU" fill="#354168"></path>
                    <path d="M158.878906,28.9570312 L161.818359,28.9570312 C161.837891,29.4257836 162.028319,29.8196599 162.389648,30.1386719 C162.750978,30.4576839 163.247393,30.6171875 163.878906,30.6171875 C164.477868,30.6171875 164.962889,30.4853529 165.333984,30.2216797 C165.70508,29.9580065 165.89388,29.6048199 165.900391,29.1621094 C165.913412,28.8170556 165.802736,28.5175794 165.568359,28.2636719 C165.333983,28.0097644 164.891279,27.7884124 164.240234,27.5996094 L162.580078,27.140625 C160.203764,26.4049442 159.015625,25.0833429 159.015625,23.1757812 C159.015625,21.9648377 159.47135,20.9768918 160.382812,20.2119141 C161.294275,19.4469363 162.420566,19.0644531 163.761719,19.0644531 C165.122403,19.0644531 166.238928,19.4453087 167.111328,20.2070312 C167.983728,20.9687538 168.419922,21.9941342 168.419922,23.2832031 L165.5,23.2832031 C165.5,22.8144508 165.345379,22.4368504 165.036133,22.1503906 C164.726886,21.8639309 164.289065,21.7207031 163.722656,21.7207031 C163.208331,21.7207031 162.781903,21.8492826 162.443359,22.1064453 C162.104816,22.3636081 161.935547,22.6940084 161.935547,23.0976562 C161.935547,23.7552116 162.430334,24.2239569 163.419922,24.5039062 L165.060547,25.0214844 C167.638685,25.7636756 168.898438,27.1503805 168.839844,29.1816406 C168.833333,29.8457064 168.685223,30.4414036 168.395508,30.96875 C168.105793,31.4960964 167.724937,31.9192692 167.25293,32.2382812 C166.780922,32.5572933 166.256839,32.8014314 165.680664,32.9707031 C165.104489,33.1399748 164.503909,33.2246094 163.878906,33.2246094 C162.388013,33.2246094 161.181971,32.8258503 160.260742,32.0283203 C159.339514,31.2307903 158.878906,30.2070375 158.878906,28.9570312 Z M170.1875,21.8574219 L170.1875,19.2207031 L180.587891,19.2207031 L180.587891,21.8574219 L176.867188,21.8574219 L176.867188,33 L173.908203,33 L173.908203,21.8574219 L170.1875,21.8574219 Z M182.765625,33 L182.765625,19.2207031 L188.400391,19.2207031 C189.149092,19.2207031 189.822914,19.3492826 190.421875,19.6064453 C191.020836,19.8636081 191.502602,20.2086567 191.867188,20.6416016 C192.231773,21.0745464 192.508463,21.5546849 192.697266,22.0820312 C192.886069,22.6093776 192.980469,23.1627575 192.980469,23.7421875 C192.980469,24.7903698 192.687503,25.7229777 192.101562,26.5400391 C191.515622,27.3571004 190.662766,27.8828113 189.542969,28.1171875 L192.960938,33 L189.445312,33 L186.369141,28.2441406 L185.705078,28.2441406 L185.705078,33 L182.765625,33 Z M185.705078,25.6757812 L188.185547,25.6757812 C188.719404,25.6757812 189.142577,25.4772155 189.455078,25.0800781 C189.76758,24.6829407 189.923828,24.2369816 189.923828,23.7421875 C189.923828,23.2604143 189.775718,22.8160828 189.479492,22.4091797 C189.183267,22.0022766 188.777997,21.7988281 188.263672,21.7988281 L185.705078,21.7988281 L185.705078,25.6757812 Z M195.5,33 L195.5,19.2207031 L204.220703,19.2207031 L204.220703,21.7988281 L198.419922,21.7988281 L198.419922,24.9433594 L203.498047,24.9433594 L203.498047,27.4824219 L198.419922,27.4824219 L198.419922,30.421875 L204.396484,30.421875 L204.396484,33 L195.5,33 Z M205.275391,33 L210.392578,19.2207031 L213.576172,19.2207031 L218.673828,33 L215.587891,33 L214.376953,29.7382812 L209.611328,29.7382812 L208.390625,33 L205.275391,33 Z M210.568359,27.1992188 L213.429688,27.1992188 L211.974609,22.4042969 L210.568359,27.1992188 Z M219.425781,33 L221.125,19.2207031 L223.546875,19.2207031 L227.707031,28.0976562 L231.828125,19.2207031 L234.289062,19.2207031 L235.96875,33 L233.029297,33 L232.0625,24.7382812 L228.849609,31.4179688 L226.583984,31.4179688 L223.341797,24.7382812 L222.365234,33 L219.425781,33 Z" id="STREAM" fill="#5579F3"></path>
                </g>
            </g>
        </g>
    </g>
</svg>