<?xml version="1.0" encoding="UTF-8"?>
<svg width="148px" height="30px" viewBox="0 0 148 30" version="1.1" xmlns="http://www.w3.org/2000/svg" xmlns:xlink="http://www.w3.org/1999/xlink">
    <!-- Generator: Sketch 54.1 (76490) - https://sketchapp.com -->
    <title>entrepreneur</title>
    <desc>Created with Sketch.</desc>
    <g id="Homepage-+-responsive" stroke="none" stroke-width="1" fill="none" fill-rule="evenodd">
        <g id="home" transform="translate(-839.000000, -3461.000000)" fill="#CECED5">
            <g id="entrepreneur" transform="translate(839.000000, 3461.000000)">
                <g id="Group">
                    <polygon id="Path" points="0.216931217 19.7136243 2.08796296 19.4153439 2.08796296 2.14219577 0 1.87103175 0.108465608 0 13.1785714 0 12.8531746 5.23346561 10.25 5.1521164 10.0873016 1.87103175 6.04695767 1.87103175 6.04695767 9.65343915 7.80952381 9.65343915 8.21626984 7.86375661 10.0330688 7.91798942 10.0330688 13.287037 8.21626984 13.287037 7.78240741 11.4431217 6.01984127 11.4431217 6.01984127 19.6865079 10.0873016 19.6865079 10.4669312 16.1071429 13.2056878 16.1884921 13.422619 21.6388889 0.135582011 21.6388889"></polygon>
                    <path d="M14.6428571,21.6660053 L14.7242063,20.0661376 L16.1884921,19.7678571 L16.1884921,8.86706349 L14.4801587,8.70436508 L14.4801587,7.07738095 L18.7645503,6.4537037 L19.0899471,7.37566138 L19.0899471,7.99933862 C20.1203704,6.91468254 21.3677249,6.26388889 22.9675926,6.26388889 C25.2996032,6.26388889 27.0350529,7.6739418 27.0350529,10.4669312 L27.0350529,19.7407407 L28.5806878,20.0390212 L28.4993386,21.6388889 L23.401455,21.6388889 L23.401455,11.2804233 C23.401455,9.78902116 22.859127,8.9484127 21.5033069,8.9484127 C21.042328,8.9484127 20.7169312,9.0297619 20.364418,9.16534392 C20.1474868,9.35515873 19.9305556,9.62632275 19.7407407,9.87037037 L19.7407407,19.7949735 L21.2863757,20.093254 L21.1779101,21.6931217 L14.6428571,21.6931217 L14.6428571,21.6660053 Z" id="Path"></path>
                    <path d="M96.5615079,21.6660053 L96.6157407,20.0661376 L98.0800265,19.7678571 L98.0800265,8.86706349 L96.3716931,8.70436508 L96.3716931,7.07738095 L100.656085,6.4537037 L100.981481,7.37566138 L100.981481,7.99933862 C102.011905,6.91468254 103.259259,6.26388889 104.859127,6.26388889 C107.191138,6.26388889 108.926587,7.6739418 108.926587,10.4669312 L108.926587,19.7407407 L110.472222,20.0390212 L110.390873,21.6388889 L105.320106,21.6388889 L105.320106,11.2804233 C105.320106,9.78902116 104.777778,8.9484127 103.421958,8.9484127 C102.960979,8.9484127 102.635582,9.0297619 102.283069,9.16534392 C102.066138,9.35515873 101.849206,9.62632275 101.659392,9.87037037 L101.659392,19.7949735 L103.205026,20.093254 L103.096561,21.6931217 L96.5615079,21.6931217 L96.5615079,21.6660053 Z" id="Path"></path>
                    <path d="M36.6613757,21.3677249 C36.0648148,21.6117725 35.0072751,21.8829365 33.6243386,21.8829365 C31.8075397,21.8829365 30.1263228,21.0694444 30.1263228,18.412037 L30.1263228,8.86706349 L28.390873,8.59589947 L28.4722222,6.69775132 L30.4246032,6.61640212 L31.2652116,3.71494709 L33.7599206,3.60648148 L33.7599206,6.72486772 L36.4444444,6.72486772 L36.2546296,8.62301587 L33.787037,8.89417989 L33.787037,18.4391534 C33.787037,19.2255291 34.2208995,19.7407407 35.0343915,19.7407407 L36.4986772,19.7407407 L36.6613757,21.3677249 Z" id="Path"></path>
                    <path d="M138.158069,21.6660053 L138.212302,20.093254 L139.595238,19.7678571 L139.595238,8.86706349 L137.968254,8.70436508 L137.968254,7.07738095 L142.415344,6.4537037 L142.713624,7.51124339 L142.713624,7.86375661 C143.87963,6.99603175 145.452381,6.4265873 147.350529,6.4265873 L148.001323,6.99603175 L147.540344,11.1177249 L145.099868,11.0363757 L144.85582,8.83994709 C144.286376,8.9212963 143.744048,9.08399471 143.283069,9.40939153 L143.283069,19.7949735 L144.828704,20.1203704 L144.720238,21.6931217 L138.158069,21.6931217 L138.158069,21.6660053 Z" id="Path"></path>
                    <path d="M74.2989418,21.6660053 L74.380291,20.093254 L75.7632275,19.7678571 L75.7632275,8.86706349 L74.1362434,8.70436508 L74.1362434,7.07738095 L78.5833333,6.4537037 L78.8816138,7.51124339 L78.8816138,7.86375661 C80.047619,6.99603175 81.6203704,6.4265873 83.5185185,6.4265873 L84.1693122,6.99603175 L83.6541005,11.1177249 L81.2136243,11.0363757 L80.9695767,8.83994709 C80.4001323,8.9212963 79.8578042,9.08399471 79.3968254,9.40939153 L79.3968254,19.7949735 L80.9424603,20.1203704 L80.8339947,21.6931217 L74.2989418,21.6931217 L74.2989418,21.6660053 Z" id="Path"></path>
                    <path d="M37.7460317,21.6660053 L37.827381,20.093254 L39.2103175,19.7678571 L39.2103175,8.86706349 L37.5833333,8.70436508 L37.5833333,7.07738095 L42.0304233,6.4537037 L42.3287037,7.51124339 L42.3287037,7.86375661 C43.494709,6.99603175 45.0674603,6.4265873 46.9384921,6.4265873 L47.5892857,6.99603175 L47.1283069,11.1177249 L44.6878307,11.0363757 L44.4437831,8.83994709 C43.8743386,8.9212963 43.3320106,9.08399471 42.8710317,9.40939153 L42.8710317,19.7949735 L44.4166667,20.1203704 L44.3082011,21.6931217 L37.7460317,21.6931217 L37.7460317,21.6660053 Z" id="Path"></path>
                    <path d="M51.792328,15.0224868 C51.792328,17.6256614 52.9312169,19.6322751 55.1818783,19.6322751 C56.3478836,19.6322751 57.2698413,19.3882275 58.3544974,18.8730159 L58.9781746,20.3101852 C57.8664021,21.2050265 56.239418,21.8829365 54.2056878,21.8829365 C50.2466931,21.8829365 47.9689153,18.4662698 47.9689153,14.0734127 C47.9689153,10.3313492 49.6230159,6.23677249 54.151455,6.23677249 C58.1104497,6.23677249 59.6018519,9.89748677 59.6018519,13.9649471 L59.2222222,14.9411376 L51.792328,15.0224868 Z M51.7380952,13.287037 L56.2936508,13.0701058 C56.2123016,11.2533069 55.832672,8.37896825 54.0429894,8.37896825 C53.609127,8.37896825 53.3108466,8.46031746 52.7685185,8.73148148 C52.0363757,9.97883598 51.7380952,12.2294974 51.7380952,13.287037 Z" id="Shape" fill-rule="nonzero"></path>
                    <path d="M114.810847,15.0224868 C114.810847,17.6256614 115.949735,19.6322751 118.200397,19.6322751 C119.366402,19.6322751 120.28836,19.3882275 121.373016,18.8730159 L121.996693,20.3101852 C120.884921,21.2050265 119.257937,21.8829365 117.224206,21.8829365 C113.265212,21.8829365 110.987434,18.4662698 110.987434,14.0734127 C110.987434,10.3313492 112.641534,6.23677249 117.169974,6.23677249 C121.128968,6.23677249 122.62037,9.89748677 122.62037,13.9649471 L122.240741,14.9411376 L114.810847,15.0224868 Z M114.756614,13.287037 L119.312169,13.0701058 C119.23082,11.2533069 118.85119,8.37896825 117.061508,8.37896825 C116.627646,8.37896825 116.329365,8.46031746 115.787037,8.73148148 C115.054894,9.97883598 114.756614,12.2294974 114.756614,13.287037 Z" id="Shape" fill-rule="nonzero"></path>
                    <path d="M88.3452381,15.0224868 C88.3452381,17.6256614 89.484127,19.6322751 91.7347884,19.6322751 C92.9007937,19.6322751 93.8227513,19.3882275 94.9074074,18.8730159 L95.5310847,20.3101852 C94.4193122,21.2050265 92.792328,21.8829365 90.7585979,21.8829365 C86.7996032,21.8829365 84.5218254,18.4662698 84.5218254,14.0734127 C84.5218254,10.3313492 86.1759259,6.23677249 90.7043651,6.23677249 C94.6633598,6.23677249 96.1547619,9.89748677 96.1547619,13.9649471 L95.7751323,14.9411376 L88.3452381,15.0224868 Z M88.2910053,13.287037 L92.8465608,13.0701058 C92.7652116,11.2533069 92.385582,8.37896825 90.5958995,8.37896825 C90.162037,8.37896825 89.8637566,8.46031746 89.3214286,8.73148148 C88.5892857,9.97883598 88.2638889,12.2294974 88.2910053,13.287037 Z" id="Shape" fill-rule="nonzero"></path>
                    <path d="M132.87037,21.6660053 L132.490741,20.364418 C131.487434,21.3134921 130.511243,21.8829365 128.992725,21.8829365 C126.660714,21.8829365 124.572751,20.7169312 124.572751,17.4900794 L124.572751,8.48743386 L122.864418,8.32473545 L122.864418,6.88756614 L127.799603,6.31812169 L128.179233,7.61970899 L128.179233,17.0562169 C128.179233,18.7103175 128.857143,19.5780423 130.185847,19.5780423 C130.565476,19.5780423 131.053571,19.5238095 131.487434,19.3611111 C131.731481,19.1170635 131.975529,18.8187831 132.165344,18.5205026 L132.165344,8.48743386 L130.402778,8.32473545 L130.402778,6.88756614 L135.392196,6.31812169 L135.771825,7.61970899 L135.771825,19.7678571 L137.31746,20.0661376 L137.127646,21.6660053 L132.87037,21.6660053 L132.87037,21.6660053 Z" id="Path"></path>
                </g>
                <path d="M67.0046296,19.7136243 C66.218254,19.7136243 65.5945767,19.5780423 65.1064815,19.3068783 L65.1064815,9.73478836 C65.3234127,9.40939153 65.5674603,9.11111111 65.8115079,8.83994709 C66.2724868,8.67724868 66.6792328,8.62301587 67.167328,8.62301587 C69.2010582,8.62301587 69.5535714,10.6838624 69.5535714,14.3716931 C69.5535714,17.9239418 69.0112434,18.9001323 68.8756614,19.3068783 C68.3062169,19.5780423 67.7096561,19.7136243 67.0046296,19.7136243 Z M73.0787037,13.7208995 C73.0787037,9.13822751 71.7228836,6.26388889 68.3333333,6.26388889 C66.082672,6.26388889 65.0251323,7.56547619 64.5912698,8.10780423 L64.5912698,7.59259259 L64.2116402,6.29100529 L59.7916667,6.91468254 L59.7916667,8.48743386 L61.5,8.70436508 L61.5,27.1977513 L60.0357143,27.4960317 L59.9543651,29.0416667 L66.489418,29.0416667 L66.5978836,27.4960317 L65.0522487,27.1977513 L65.0522487,21.3406085 C65.6759259,21.6931217 66.5436508,21.9100529 67.4927249,21.9100529 C73.0244709,21.9100529 73.0787037,16.2969577 73.0787037,13.7208995 Z" id="Shape" fill-rule="nonzero"></path>
            </g>
        </g>
    </g>
</svg>