<?xml version="1.0" encoding="UTF-8"?>
<svg width="131px" height="25px" viewBox="0 0 131 25" version="1.1" xmlns="http://www.w3.org/2000/svg" xmlns:xlink="http://www.w3.org/1999/xlink">
    <!-- Generator: Sketch 54.1 (76490) - https://sketchapp.com -->
    <title>mashable</title>
    <desc>Created with Sketch.</desc>
    <g id="Homepage-+-responsive" stroke="none" stroke-width="1" fill="none" fill-rule="evenodd">
        <g id="home" transform="translate(-408.000000, -3464.000000)" fill="#CECED5">
            <g id="mashable" transform="translate(408.000000, 3463.000000)">
                <g id="g14876" transform="translate(13.098438, 14.018074) scale(-1, 1) rotate(-180.000000) translate(-13.098438, -14.018074) translate(0.098438, 2.518074)">
                    <g id="g14878">
                        <g id="g14884">
                            <g id="g14886">
                                <path d="M17.2279104,22.7273789 L14.8520524,15.2299837 C14.081997,12.6866518 13.3123472,9.74146382 12.7097657,7.13122352 L12.7097657,7.13122352 L12.5755433,7.13122352 C12.0743382,9.7759318 11.4044428,12.5864919 10.6684499,15.1634807 L10.6684499,15.1634807 L8.45966025,22.7273789 L1.66581748,22.7273789 L0.227083201,0.170312401 L4.94554771,0.170312401 L5.38065535,8.73824268 C5.51406673,11.5492083 5.64828912,15.0296639 5.74885454,18.0746063 L5.74885454,18.0746063 L5.81576298,18.0746063 C6.3846875,15.0969778 7.12068038,11.9174075 7.85707876,9.24025875 L7.85707876,9.24025875 L10.2669992,0.538106085 L14.2494709,0.538106085 L16.993528,9.34041867 C17.8637433,11.9839104 18.800867,15.1967322 19.5368599,18.0746063 L19.5368599,18.0746063 L19.6037683,18.0746063 C19.6037683,14.7620301 19.7047393,11.5155513 19.8044937,8.80474561 L19.8044937,8.80474561 L20.1726929,0.170312401 L25.1259452,0.170312401 L23.9215932,22.7273789 L17.2279104,22.7273789 L17.2279104,22.7273789 Z" id="path14894"></path>
                            </g>
                        </g>
                    </g>
                </g>
                <g id="g14896" transform="translate(34.050804, 16.923579) scale(-1, 1) rotate(-180.000000) translate(-34.050804, -16.923579) translate(26.050804, 7.923579)" fill-rule="nonzero">
                    <g id="g14898">
                        <g id="g14904">
                            <g id="g14906">
                                <path d="M1.46995822,15.8362147 L2.40708193,12.590547 C3.47802253,13.2263799 5.25129902,13.794899 6.92482111,13.794899 L6.92482111,13.794899 C9.4349015,13.794899 9.9032606,12.5572955 9.9032606,11.6866747 L9.9032606,11.6866747 L9.9032606,11.4859494 C4.114261,11.4859494 0.298452207,9.47829061 0.298452207,5.22696868 L0.298452207,5.22696868 C0.298452207,2.61713389 2.27326504,0.208024432 5.58624675,0.208024432 L5.58624675,0.208024432 C7.52740261,0.208024432 9.20051919,0.910765838 10.2714598,2.21527773 L10.2714598,2.21527773 L10.3716197,2.21527773 L10.673316,0.575818117 L15.2583691,0.575818117 C15.0572383,1.47928485 14.9903298,2.98533308 14.9903298,4.52463278 L14.9903298,4.52463278 L14.9903298,10.2479405 C14.9903298,14.0965952 13.2835562,17.309417 7.82869336,17.309417 L7.82869336,17.309417 C4.85025387,17.309417 2.60740175,16.4724532 1.46995822,15.8362147 M5.31901848,5.72979577 C5.31901848,7.67054613 7.39318022,8.30637909 10.0707345,8.30637909 L10.0707345,8.30637909 L10.0707345,6.53310259 C10.0707345,6.23221735 10.037483,5.9305211 9.97016904,5.66288733 L9.97016904,5.66288733 C9.63603233,4.6251982 8.56468623,3.78863991 7.32627177,3.78863991 L7.32627177,3.78863991 C6.18842273,3.78863991 5.31901848,4.42487837 5.31901848,5.72979577" id="path14914"></path>
                            </g>
                        </g>
                    </g>
                </g>
                <g id="g14916" transform="translate(48.771032, 16.923579) scale(-1, 1) rotate(-180.000000) translate(-48.771032, -16.923579) translate(42.271032, 7.923579)">
                    <g id="g14918">
                        <g id="g14924">
                            <g id="g14926">
                                <path d="M0.635021951,11.921057 C0.601770483,10.0131526 1.90668788,8.13971624 5.320235,7.03511867 L5.320235,7.03511867 C7.19407691,6.3988802 7.69649849,5.99783505 7.69649849,5.12761978 L7.69649849,5.12761978 C7.69649849,4.29025048 7.06026002,3.78863991 5.52177134,3.78863991 L5.52177134,3.78863991 C4.0149121,3.78863991 2.07375623,4.42487837 1.13703803,4.99299188 L1.13703803,4.99299188 L0.233571293,1.37953045 C1.47198575,0.709635003 3.37948464,0.208024432 5.52177134,0.208024432 L5.52177134,0.208024432 C10.2061734,0.208024432 12.5820314,2.45047104 12.5820314,5.52907044 L12.5820314,5.52907044 C12.5487799,7.90533394 11.277114,9.51113657 8.16485759,10.5488257 L8.16485759,10.5488257 C6.15719879,11.2519726 5.52177134,11.6530178 5.52177134,12.4559191 L5.52177134,12.4559191 C5.52177134,13.2596314 6.22370173,13.762053 7.46211619,13.762053 L7.46211619,13.762053 C8.83434753,13.762053 10.2734873,13.2263799 11.0098857,12.8581808 L11.0098857,12.8581808 L11.8796955,16.3382308 C10.8756633,16.8406524 9.20254672,17.309417 7.29504783,17.309417 L7.29504783,17.309417 C3.24526225,17.309417 0.635021951,14.9996564 0.635021951,11.921057" id="path14934"></path>
                            </g>
                        </g>
                    </g>
                </g>
                <g id="g14936" transform="translate(64.058227, 13.518074) scale(-1, 1) rotate(-180.000000) translate(-64.058227, -13.518074) translate(56.058227, 1.518074)">
                    <g id="g14938">
                        <g id="g14944">
                            <g id="g14946">
                                <path d="M0.258712647,23.9321364 L0.258712647,0.170312401 L5.34497084,0.170312401 L5.34497084,9.87609172 C5.34497084,10.2438854 5.37862782,10.678993 5.51244471,10.9802838 L5.51244471,10.9802838 C5.8810494,11.9174075 6.71720219,12.7876228 8.05618206,12.7876228 L8.05618206,12.7876228 C9.96408646,12.7876228 10.6996738,11.3144205 10.6996738,9.1729448 L10.6996738,9.1729448 L10.6996738,0.170312401 L15.786743,0.170312401 L15.786743,9.70861786 C15.786743,14.6606537 13.3099141,16.9039113 10.0638409,16.9039113 L10.0638409,16.9039113 C9.12712266,16.9039113 8.19040445,16.6691235 7.4203491,16.2676728 L7.4203491,16.2676728 C6.61704228,15.8662222 5.94755234,15.2968921 5.4126903,14.5613048 L5.4126903,14.5613048 L5.34497084,14.5613048 L5.34497084,23.9321364 L0.258712647,23.9321364 L0.258712647,23.9321364 Z" id="path14954"></path>
                            </g>
                        </g>
                    </g>
                </g>
                <g id="g14956" transform="translate(81.089467, 16.923579) scale(-1, 1) rotate(-180.000000) translate(-81.089467, -16.923579) translate(73.089467, 7.923579)" fill-rule="nonzero">
                    <g id="g14958">
                        <g id="g14964">
                            <g id="g14966">
                                <path d="M1.28950818,15.8362147 L2.22622638,12.590547 C3.29716698,13.2263799 5.07125449,13.794899 6.74396557,13.794899 L6.74396557,13.794899 C9.25445145,13.794899 9.72281056,12.5572955 9.72281056,11.6866747 L9.72281056,11.6866747 L9.72281056,11.4859494 C3.93299994,11.4859494 0.118407669,9.47829061 0.118407669,5.22696868 L0.118407669,5.22696868 C0.118407669,2.61713389 2.092815,0.208024432 5.4053912,0.208024432 L5.4053912,0.208024432 C7.34654706,0.208024432 9.02047466,0.910765838 10.0910097,2.21527773 L10.0910097,2.21527773 L10.1919807,2.21527773 L10.4932714,0.575818117 L15.0775135,0.575818117 C14.8771937,1.47928485 14.8094743,2.98533308 14.8094743,4.52463278 L14.8094743,4.52463278 L14.8094743,10.2479405 C14.8094743,14.0965952 13.1031062,17.309417 7.64824331,17.309417 L7.64824331,17.309417 C4.66980383,17.309417 2.42735722,16.4724532 1.28950818,15.8362147 M5.13856844,5.72979577 C5.13856844,7.67054613 7.21354118,8.30637909 9.89068992,8.30637909 L9.89068992,8.30637909 L9.89068992,6.53310259 C9.89068992,6.23221735 9.85703295,5.9305211 9.7901245,5.66288733 L9.7901245,5.66288733 C9.45477128,4.6251982 8.38423619,3.78863991 7.14622724,3.78863991 L7.14622724,3.78863991 C6.0083782,3.78863991 5.13856844,4.42487837 5.13856844,5.72979577" id="path14974"></path>
                            </g>
                        </g>
                    </g>
                </g>
                <g id="g14976" transform="translate(98.715201, 13.423579) scale(-1, 1) rotate(-180.000000) translate(-98.715201, -13.423579) translate(89.715201, 0.923579)" fill-rule="nonzero">
                    <g id="g14978">
                        <g id="g14984">
                            <g id="g14986">
                                <path d="M0.179639032,24.3376421 L0.179639032,5.4625675 C0.179639032,3.62076054 0.112730589,1.64675871 0.0458221459,0.575818117 L0.0458221459,0.575818117 L4.36243049,0.575818117 L4.56356133,2.85111069 L4.63006427,2.85111069 C5.76831881,0.910765838 7.64216073,0.208024432 9.55006512,0.208024432 L9.55006512,0.208024432 C13.29856,0.208024432 17.0129923,3.15321245 17.0129923,9.04277747 L17.0129923,9.04277747 C17.0462438,14.0625327 14.2012157,17.309417 10.2864635,17.309417 L10.2864635,17.309417 C8.01035992,17.309417 6.30358636,16.4055448 5.33321118,14.9996564 L5.33321118,14.9996564 L5.26630274,14.9996564 L5.26630274,24.3376421 L0.179639032,24.3376421 L0.179639032,24.3376421 Z M5.36646265,6.63407352 C5.2991487,6.90089628 5.26630274,7.20259253 5.26630274,7.53672924 L5.26630274,7.53672924 L5.26630274,9.94664971 C5.26630274,10.2815974 5.2991487,10.5828882 5.36646265,10.8833679 L5.36646265,10.8833679 C5.70100486,12.3561647 6.97267079,13.3938538 8.34530764,13.3938538 L8.34530764,13.3938538 C10.7215711,13.3938538 11.8594202,11.3857895 11.8594202,8.84286315 L11.8594202,8.84286315 C11.8594202,5.89726963 10.5212513,4.22374754 8.34530764,4.22374754 L8.34530764,4.22374754 C6.87291638,4.22374754 5.70100486,5.29468814 5.36646265,6.63407352 L5.36646265,6.63407352 Z" id="path14994"></path>
                            </g>
                        </g>
                    </g>
                </g>
                <g id="g14996" transform="translate(110.962958, 13.518074) scale(-1, 1) rotate(-180.000000) translate(-110.962958, -13.518074) translate(107.962958, 1.518074)">
                    <g id="g14998">
                        <g id="g15004">
                            <g id="g15006">
                                <polygon id="path15014" points="0.294802656 0.170312401 5.38065535 0.170312401 5.38065535 23.9321364 0.294802656 23.9321364"></polygon>
                            </g>
                        </g>
                    </g>
                </g>
                <g id="g15016" transform="translate(122.451050, 16.923579) scale(-1, 1) rotate(-180.000000) translate(-122.451050, -16.923579) translate(114.451050, 7.923579)" fill-rule="nonzero">
                    <g id="g15018">
                        <g id="g15024">
                            <g id="g15026">
                                <path d="M0.390502005,8.60848085 C0.390502005,3.4549087 3.57047783,0.240870395 9.12550064,0.240870395 L9.12550064,0.240870395 C11.3342903,0.240870395 13.3764171,0.575818117 15.0495336,1.27855952 L15.0495336,1.27855952 L14.3796382,4.72616912 C13.0078124,4.25699901 11.6023296,4.02302221 9.86149351,4.02302221 L9.86149351,4.02302221 C7.48523001,4.02302221 5.41106828,5.02705436 5.24399992,7.16934106 L5.24399992,7.16934106 L15.785121,7.13487308 C15.8520295,7.53672924 15.9525949,8.30637909 15.9525949,9.17699986 L15.9525949,9.17699986 C15.9525949,13.2263799 13.9449361,17.343074 8.65754704,17.343074 L8.65754704,17.343074 C3.0007423,17.343074 0.390502005,12.7580208 0.390502005,8.60848085 M8.38869675,13.9623728 C10.6980518,13.9623728 11.2337249,11.8545541 11.2337249,10.6493911 L11.2337249,10.6493911 L5.21074845,10.6493911 C5.34375433,11.9879655 6.21396959,13.9623728 8.38869675,13.9623728" id="path15034"></path>
                            </g>
                        </g>
                    </g>
                </g>
            </g>
        </g>
    </g>
</svg>