<?xml version="1.0" encoding="UTF-8"?>
<svg width="211px" height="30px" viewBox="0 0 211 30" version="1.1" xmlns="http://www.w3.org/2000/svg" xmlns:xlink="http://www.w3.org/1999/xlink">
    <!-- Generator: Sketch 54.1 (76490) - https://sketchapp.com -->
    <title>techcrunch</title>
    <desc>Created with Sketch.</desc>
    <defs>
        <polygon id="path-1" points="0 0.074228013 211 0.074228013 211 29.8204169 0 29.8204169"></polygon>
    </defs>
    <g id="Homepage-+-responsive" stroke="none" stroke-width="1" fill="none" fill-rule="evenodd">
        <g id="home" transform="translate(-98.000000, -3461.000000)">
            <g id="techcrunch" transform="translate(98.000000, 3461.000000)">
                <polyline id="Fill-1" fill="#CECED5" points="79.312357 11.6999844 79.312357 24.8695459 74.5010072 24.8695459 74.5010072 11.6999844 69.6400345 11.6999844 69.6400345 7.5085759 84.1733296 7.5085759 84.1733296 11.6999844 79.312357 11.6999844"></polyline>
                <path d="M89.502901,14.8746065 C88.4858397,14.8746065 87.9156586,15.5687759 87.7667902,16.8582814 L91.4872632,16.8582814 C91.263342,15.5440332 90.8164619,14.8746065 89.502901,14.8746065 Z M95.4051277,19.6368834 L87.7667902,19.6368834 C87.9156586,21.0752573 88.758284,21.7192541 89.9738365,21.7192541 C91.1144736,21.7192541 92.0574443,21.4711401 93.3468124,20.8017134 L95.0574932,23.6539935 C93.4461954,24.5958645 91.7839003,25.1419902 89.7511524,25.1419902 C85.8319134,25.1419902 83.6744899,22.3633883 83.6744899,18.370471 C83.6744899,13.8824254 86.2037407,11.5758586 89.6263394,11.5758586 C93.197944,11.5758586 95.4304202,13.9319107 95.4304202,18.7675909 C95.4304202,19.1405179 95.4304202,19.4128248 95.4051277,19.6368834 L95.4051277,19.6368834 Z" id="Fill-2" fill="#CECED5"></path>
                <path d="M103.710418,25.1419902 C99.8919362,25.1419902 97.6098371,22.7121225 97.6098371,18.3220853 C97.6098371,14.3286182 99.6436847,11.5758586 103.809801,11.5758586 C106.265098,11.5758586 107.679279,12.7164958 108.819642,14.5518521 L105.744403,16.8831616 C105.124599,15.7419746 104.702049,15.1966736 103.735985,15.1966736 C102.594248,15.1966736 102.024067,16.3377231 102.024067,18.395901 C102.024067,20.455316 102.644008,21.5206254 103.859423,21.5206254 C104.702049,21.5206254 105.297797,21.0496899 106.11623,19.8342749 L108.943218,22.0413212 C107.431028,24.2737974 106.016984,25.1419902 103.710418,25.1419902" id="Fill-3" fill="#CECED5"></path>
                <path d="M118.935133,24.8695459 L118.935133,17.4782228 C118.935133,15.7915974 118.364952,15.345542 117.447274,15.345542 C116.504165,15.345542 115.933847,15.7915974 115.933847,17.4284625 L115.933847,24.8695459 L111.469994,24.8695459 L111.469994,8.57512248 L115.933847,6.78938893 L115.933847,12.7164958 C116.752279,12.0966919 117.669958,11.5758586 119.207577,11.5758586 C122.060132,11.5758586 123.424416,13.4853055 123.424416,16.9079042 L123.424416,24.8695459 L118.935133,24.8695459" id="Fill-4" fill="#CECED5"></path>
                <path d="M134.110225,25.1419902 C128.951379,25.1419902 126.198207,21.3222717 126.198207,16.1887173 C126.198207,10.6086951 129.472074,7.23558176 134.134556,7.23558176 C138.400879,7.23558176 140.087505,9.07093811 141.277902,12.3448059 L136.91302,14.0560365 C136.291979,12.443914 135.697468,11.4269902 134.110225,11.4269902 C132.101533,11.4269902 131.233615,13.4355453 131.233615,16.1887173 C131.233615,18.8427811 132.07624,20.9505818 134.159848,20.9505818 C135.672038,20.9505818 136.317272,20.1321492 137.25928,18.4951466 L141.327388,20.6527075 C140.161733,22.9348065 138.226306,25.1419902 134.110225,25.1419902" id="Fill-5" fill="#CECED5"></path>
                <path d="M152.30901,16.7590358 C151.738554,16.1390945 151.09387,15.668159 150.226502,15.668159 C149.1337,15.668159 148.464274,16.1887173 148.464274,17.7759596 L148.464274,24.8695459 L144.000971,24.8695459 L144.000971,11.8484404 L148.464274,11.8484404 L148.464274,12.7908612 C149.232671,12.0469316 150.101414,11.5758586 151.2437,11.5758586 C152.185296,11.5758586 152.82998,11.7986801 153.350951,12.1214345 L152.30901,16.7590358" id="Fill-6" fill="#CECED5"></path>
                <path d="M162.920866,24.8695459 L162.920866,24.0002534 C162.127726,24.6200573 161.184756,25.1419902 159.672704,25.1419902 C156.820423,25.1419902 155.456827,23.2326808 155.456827,19.808845 L155.456827,11.8484404 L159.944873,11.8484404 L159.944873,19.2397635 C159.944873,20.9251518 160.515329,21.371757 161.433557,21.371757 C162.351785,21.371757 162.920866,20.9251518 162.920866,19.2881492 L162.920866,11.8484404 L167.410287,11.8484404 L167.410287,24.8695459 L162.920866,24.8695459" id="Fill-7" fill="#CECED5"></path>
                <path d="M178.096371,24.8695459 L178.096371,17.4782228 C178.096371,15.7915974 177.525915,15.345542 176.609062,15.345542 C175.666091,15.345542 175.095635,15.7915974 175.095635,17.4284625 L175.095635,24.8695459 L170.630958,24.8695459 L170.630958,11.8484404 L175.095635,11.8484404 L175.095635,12.7164958 C175.913518,12.0966919 176.831746,11.5758586 178.368541,11.5758586 C181.220821,11.5758586 182.585792,13.4853055 182.585792,16.9079042 L182.585792,24.8695459 L178.096371,24.8695459" id="Fill-8" fill="#CECED5"></path>
                <path d="M191.28559,25.1419902 C187.466971,25.1419902 185.185147,22.7121225 185.185147,18.3220853 C185.185147,14.3286182 187.219544,11.5758586 191.385935,11.5758586 C193.840958,11.5758586 195.255414,12.7164958 196.394951,14.5518521 L193.319987,16.8831616 C192.700046,15.7419746 192.278046,15.1966736 191.311707,15.1966736 C190.16942,15.1966736 189.598964,16.3377231 189.598964,18.395901 C189.598964,20.455316 190.218906,21.5206254 191.43542,21.5206254 C192.278046,21.5206254 192.873244,21.0496899 193.691127,19.8342749 L196.518664,22.0413212 C195.006612,24.2737974 193.592156,25.1419902 191.28559,25.1419902" id="Fill-9" fill="#CECED5"></path>
                <g id="Group-14">
                    <mask id="mask-2" fill="white">
                        <use xlink:href="#path-1"></use>
                    </mask>
                    <g id="Clip-11"></g>
                    <path d="M206.51058,24.8695459 L206.51058,17.4782228 C206.51058,15.7915974 205.940124,15.345542 205.02327,15.345542 C204.078925,15.345542 203.509844,15.7915974 203.509844,17.4284625 L203.509844,24.8695459 L199.045166,24.8695459 L199.045166,8.57512248 L203.509844,6.78938893 L203.509844,12.7164958 C204.327726,12.0966919 205.245954,11.5758586 206.782749,11.5758586 C209.635029,11.5758586 211,13.4853055 211,16.9079042 L211,24.8695459 L206.51058,24.8695459" id="Fill-10" fill="#CECED5" mask="url(#mask-2)"></path>
                    <polyline id="Fill-12" fill="#CECED5" mask="url(#mask-2)" points="0 0.074228013 0 9.99232769 9.91809967 9.99232769 9.91809967 29.8286645 19.8363368 29.8286645 19.8363368 9.99232769 29.754299 9.99232769 29.754299 0.074228013 0 0.074228013"></polyline>
                    <polyline id="Fill-13" fill="#CECED5" mask="url(#mask-2)" points="39.6725362 19.9104274 39.6725362 9.99232769 29.754299 9.99232769 29.754299 29.8286645 59.5087355 29.8286645 59.5087355 19.9104274 39.6725362 19.9104274"></polyline>
                </g>
                <polygon id="Fill-15" fill="#CECED5" points="39.6725362 9.99232769 59.5087355 9.99232769 59.5087355 0.074228013 39.6725362 0.074228013"></polygon>
            </g>
        </g>
    </g>
</svg>