<?xml version="1.0" encoding="UTF-8"?>
<svg width="104px" height="25px" viewBox="0 0 104 25" version="1.1" xmlns="http://www.w3.org/2000/svg" xmlns:xlink="http://www.w3.org/1999/xlink">
    <!-- Generator: Sketch 54.1 (76490) - https://sketchapp.com -->
    <title>tnw</title>
    <desc>Created with Sketch.</desc>
    <g id="Homepage-+-responsive" stroke="none" stroke-width="1" fill="none" fill-rule="evenodd">
        <g id="home" transform="translate(-637.000000, -3463.000000)" fill="#CECED5">
            <g id="tnw" transform="translate(637.000000, 3463.000000)">
                <path d="M45.3040063,2.7459125 C43.5458455,0.987731287 41.1612542,-4.40342297e-06 38.674825,0 L25,0 L25,25 L34.375,25 L34.375,9.375 L37.3804063,9.375 C38.2098436,9.3749564 39.0053837,9.70414006 39.5922812,10.2902438 L42.8304062,13.52625 C43.417686,14.1118499 43.7484458,14.9066557 43.75,15.7360063 L43.75,25 L53.125,25 L53.125,14.4415875 C53.1233744,11.9546833 52.1341644,9.57022461 50.374875,7.8125 L45.3040063,2.7459125 Z" id="Path"></path>
                <path d="M93.75,0 L93.75,9.26399375 C93.7484186,10.0933187 93.4176457,10.8880898 92.8303688,11.4736562 L89.59,14.7096687 C89.0039901,15.2957736 88.2091228,15.625036 87.3803125,15.625 L82.8769688,15.625 C83.8524151,14.1149637 84.3724725,12.3560114 84.375,10.5583187 L84.375,0 L75,0 L75,9.26399375 C74.9984186,10.0933187 74.6676457,10.8880898 74.0803687,11.4736562 L70.84,14.7096687 C70.2539901,15.2957736 69.4591228,15.625036 68.6303125,15.625 L65.625,15.625 L65.625,0 L56.25,0 L56.25,25 L69.9248375,25 C72.4118905,25.0000389 74.7971475,24.0123404 76.5561187,22.2540875 L79.6875,19.1240313 L79.6875,25 L88.6748312,25 C91.1618843,25.0000389 93.5471413,24.0123404 95.3061125,22.2540875 L100.374863,17.1874062 C102.134188,15.4297051 103.123409,13.0452323 103.125,10.5583187 L103.125,0 L93.75,0 Z" id="Path"></path>
                <polygon id="Path" points="0 9.375 6.25 9.375 6.25 25 15.625 25 15.625 9.375 21.875 9.375 21.875 0 0 0"></polygon>
            </g>
        </g>
    </g>
</svg>