<?xml version="1.0" encoding="UTF-8"?>
<svg width="29px" height="8px" viewBox="0 0 29 8" version="1.1" xmlns="http://www.w3.org/2000/svg" xmlns:xlink="http://www.w3.org/1999/xlink">
    <!-- Generator: Sketch 49.3 (51167) - http://www.bohemiancoding.com/sketch -->
    <title>Icon/More</title>
    <desc>Created with Sketch.</desc>
    <defs>
        <path d="M3.36617177,6.81154758 C2.44212,6.81154758 1.6500875,6.48153404 0.99005052,5.82149706 C0.33001354,5.16146008 0,4.35622704 0,3.40577379 C0,2.45532054 0.33001354,1.6500875 0.99005052,0.99005052 C1.6500875,0.33001354 2.44212,0 3.36617177,0 C4.29022354,0 5.08225604,0.33001354 5.74229302,0.99005052 C6.40233,1.6500875 6.73234354,2.45532054 6.73234354,3.40577379 C6.73234354,4.35622704 6.40233,5.16146008 5.74229302,5.82149706 C5.08225604,6.48153404 4.29022354,6.81154758 3.36617177,6.81154758 Z M3.36617177,10.1381173 C4.29022354,10.1381173 5.08225604,10.4681309 5.74229302,11.1281678 C6.40233,11.7882048 6.73234354,12.5934379 6.73234354,13.5438911 C6.73234354,14.4943444 6.40233,15.2995774 5.74229302,15.9596144 C5.08225604,16.6196514 4.29022354,16.9496649 3.36617177,16.9496649 C2.44212,16.9496649 1.6500875,16.6196514 0.99005052,15.9596144 C0.33001354,15.2995774 0,14.4943444 0,13.5438911 C0,12.5934379 0.33001354,11.7882048 0.99005052,11.1281678 C1.6500875,10.4681309 2.44212,10.1381173 3.36617177,10.1381173 Z M3.36617177,20.2762346 C4.29022354,20.2762346 5.08225604,20.6062482 5.74229302,21.2662852 C6.40233,21.9263221 6.73234354,22.7315552 6.73234354,23.6820084 C6.73234354,24.6324617 6.40233,25.4376947 5.74229302,26.0977317 C5.08225604,26.7577687 4.29022354,27.0877822 3.36617177,27.0877822 C2.44212,27.0877822 1.6500875,26.7577687 0.99005052,26.0977317 C0.33001354,25.4376947 0,24.6324617 0,23.6820084 C0,22.7315552 0.33001354,21.9263221 0.99005052,21.2662852 C1.6500875,20.6062482 2.44212,20.2762346 3.36617177,20.2762346 Z" id="path-1"></path>
    </defs>
    <g id="Admin" stroke="none" stroke-width="1" fill="none" fill-rule="evenodd">
        <g id="Inspiration-(Our-Projects)-Copy" transform="translate(-560.000000, -227.000000)">
            <g id="Icon/More" transform="translate(574.538229, 231.490820) rotate(-270.000000) translate(-574.538229, -231.490820) translate(570.538229, 216.990820)">
                <g id="Group" transform="translate(0.345293, 0.741705)">
                    <mask id="mask-2" fill="white">
                        <use xlink:href="#path-1"></use>
                    </mask>
                    <use id="Mask" stroke="#979797" stroke-width="0.5" xlink:href="#path-1"></use>
                    <g id="🎨icon-color/white" mask="url(#mask-2)" fill="#354168">
                        <g transform="translate(-86.173997, -78.570409)" id="Icon-Shade">
                            <rect x="0" y="0" width="182" height="182"></rect>
                        </g>
                    </g>
                </g>
            </g>
        </g>
    </g>
</svg>