<?xml version="1.0" encoding="UTF-8"?>
<svg width="23px" height="14px" viewBox="0 0 23 14" version="1.1" xmlns="http://www.w3.org/2000/svg" xmlns:xlink="http://www.w3.org/1999/xlink">
    <!-- Generator: Sketch 53.2 (72643) - https://sketchapp.com -->
    <title>Path</title>
    <desc>Created with Sketch.</desc>
    <g id="Homepage-+-responsive" stroke="none" stroke-width="1" fill="none" fill-rule="evenodd">
        <g id="home" transform="translate(-403.000000, -498.000000)" fill="#FFFFFF">
            <g id="Group" transform="translate(98.000000, 488.000000)">
                <path d="M327.725181,16.2762641 L322.313413,10.3259746 C321.946699,9.98497004 321.243508,9.84420023 320.833634,10.2384747 C320.429917,10.6267992 320.441924,11.3799282 320.84412,11.7697926 L324.649266,15.948122 L306.014706,15.948122 C305.454318,15.948122 305,16.4182589 305,16.9981731 C305,17.5780873 305.454318,18.0482067 306.014706,18.0482067 L324.649266,18.0482067 L320.84412,22.2265361 C320.497868,22.5854606 320.433874,23.3650846 320.833634,23.757854 C321.233293,24.1505885 321.96175,24.0251137 322.313413,23.6703191 L327.725181,17.7200821 C327.910365,17.5164524 328.000606,17.2775427 327.999997,16.9981731 C327.990526,16.7479234 327.890984,16.4586838 327.725181,16.2762641 Z" id="Path"></path>
            </g>
        </g>
    </g>
</svg>