<?xml version="1.0" encoding="UTF-8"?>
<svg width="332px" height="250px" viewBox="0 0 332 250" version="1.1" xmlns="http://www.w3.org/2000/svg" xmlns:xlink="http://www.w3.org/1999/xlink">
    <!-- Generator: Sketch 53.2 (72643) - https://sketchapp.com -->
    <title>Group 20</title>
    <desc>Created with Sketch.</desc>
    <defs>
        <filter x="-38.4%" y="-53.5%" width="176.8%" height="212.7%" filterUnits="objectBoundingBox" id="filter-1">
            <feOffset dx="0" dy="5" in="SourceAlpha" result="shadowOffsetOuter1"></feOffset>
            <feGaussianBlur stdDeviation="15" in="shadowOffsetOuter1" result="shadowBlurOuter1"></feGaussianBlur>
            <feColorMatrix values="0 0 0 0 0.115802767   0 0 0 0 0.168108907   0 0 0 0 0.351801658  0 0 0 0.0734544837 0" type="matrix" in="shadowBlurOuter1" result="shadowMatrixOuter1"></feColorMatrix>
            <feMerge>
                <feMergeNode in="shadowMatrixOuter1"></feMergeNode>
                <feMergeNode in="SourceGraphic"></feMergeNode>
            </feMerge>
        </filter>
        <rect id="path-2" x="0" y="0" width="254" height="172.393574" rx="4"></rect>
        <filter x="-18.7%" y="-24.7%" width="137.4%" height="155.1%" filterUnits="objectBoundingBox" id="filter-3">
            <feOffset dx="0" dy="5" in="SourceAlpha" result="shadowOffsetOuter1"></feOffset>
            <feGaussianBlur stdDeviation="15" in="shadowOffsetOuter1" result="shadowBlurOuter1"></feGaussianBlur>
            <feColorMatrix values="0 0 0 0 0.115802767   0 0 0 0 0.168108907   0 0 0 0 0.351801658  0 0 0 0.0734544837 0" type="matrix" in="shadowBlurOuter1"></feColorMatrix>
        </filter>
    </defs>
    <g id="Homepage-+-responsive" stroke="none" stroke-width="1" fill="none" fill-rule="evenodd">
        <g id="home" transform="translate(-600.000000, -197.000000)">
            <g id="Group-20" filter="url(#filter-1)" transform="translate(639.000000, 226.000000)">
                <g id="Rectangle">
                    <use fill="black" fill-opacity="1" filter="url(#filter-3)" xlink:href="#path-2"></use>
                    <use fill="#FFFFFF" fill-rule="evenodd" xlink:href="#path-2"></use>
                </g>
                <path d="M16.3212851,23.7766618 L17.4364346,23.7766618 L19.2240359,28.9710988 L21.017241,23.7766618 L22.1211829,23.7766618 L19.7451862,30.5070113 L18.719697,30.5070113 L16.3212851,23.7766618 Z M23.3259926,24.6781756 C23.1840298,24.5668771 23.1130495,24.4285509 23.1130495,24.2631931 C23.1130495,24.0978352 23.1840298,23.960304 23.3259926,23.8505954 C23.4679554,23.7408868 23.6379346,23.6860334 23.8359353,23.6860334 C24.0376719,23.6860334 24.2085851,23.7408868 24.3486799,23.8505954 C24.4887748,23.960304 24.5588211,24.0978352 24.5588211,24.2631931 C24.5588211,24.4285509 24.4887748,24.5660821 24.3486799,24.6757907 C24.2085851,24.7854993 24.0376719,24.8403527 23.8359353,24.8403527 C23.6379346,24.8403527 23.4679554,24.7862942 23.3259926,24.6781756 Z M23.3203888,30.5070113 L23.3203888,25.9469729 L24.3514818,25.9469729 L24.3514818,30.5070113 L23.3203888,30.5070113 Z M25.735612,28.2222222 C25.735612,27.7515883 25.8588936,27.33343 26.1054605,26.9677347 C26.3520275,26.6020394 26.6779766,26.3237971 27.0833177,26.1329996 C27.4886588,25.9422021 27.9378895,25.8468047 28.4310234,25.8468047 C28.8419683,25.8468047 29.2174169,25.9143778 29.5573804,26.0495261 C29.8973439,26.1846744 30.1532466,26.377854 30.3250963,26.6290707 L30.3250963,23.4618474 L31.3730006,23.4618474 L31.3730006,30.5070113 L30.3250963,30.5070113 L30.3250963,29.8058339 C30.1532466,30.0570507 29.8936081,30.2526152 29.5461728,30.3925334 C29.1987376,30.5324516 28.8307607,30.6024096 28.4422309,30.6024096 C27.9528329,30.6024096 27.5036022,30.5062173 27.0945252,30.3138298 C26.6854483,30.1214423 26.3566973,29.8416101 26.1082624,29.4743248 C25.8598276,29.1070396 25.735612,28.6896762 25.735612,28.2222222 Z M26.8059313,28.2126824 C26.8059313,28.6546967 26.9721747,29.0187965 27.3046665,29.3049929 C27.6371582,29.5911892 28.048097,29.7342852 28.537495,29.7342852 C29.0306288,29.7342852 29.4499731,29.596754 29.7955404,29.3216876 C30.1411077,29.0466211 30.3138888,28.6769564 30.3138888,28.2126824 C30.3138888,27.9010464 30.2242294,27.628369 30.044908,27.394642 C29.8655866,27.160915 29.6442401,26.9891998 29.3808617,26.8794912 C29.1174834,26.7697827 28.836364,26.7149292 28.537495,26.7149292 C28.0443611,26.7149292 27.6324884,26.8532553 27.3018646,27.1299118 C26.9712407,27.4065682 26.8059313,27.7674881 26.8059313,28.2126824 Z M32.7571307,28.2126824 C32.7571307,27.5067315 33.0195712,26.9359374 33.5444599,26.500283 C34.0693486,26.0646286 34.7221808,25.8468047 35.5029761,25.8468047 C36.2762996,25.8468047 36.9132547,26.0630387 37.4138603,26.4955131 C37.9144659,26.9279875 38.1647649,27.5003716 38.1647649,28.2126824 C38.1647649,28.3812202 38.1610291,28.497287 38.1535574,28.5608862 L33.805035,28.5608862 C33.8685447,28.9393013 34.0590708,29.2413929 34.3766191,29.4671699 C34.6941674,29.692947 35.0808234,29.8058339 35.5365987,29.8058339 C35.8616187,29.8058339 36.1623512,29.7438256 36.438805,29.6198072 C36.7152588,29.4957888 36.9263319,29.3224837 37.0720306,29.0998865 C37.1766347,29.1348661 37.3372744,29.1881296 37.5539544,29.2596787 C37.7706345,29.3312277 37.9088593,29.3765415 37.9686331,29.3956212 C37.7444813,29.7835762 37.4110606,30.0816929 36.9683609,30.2899802 C36.5256612,30.4982675 36.0372044,30.6024096 35.5029761,30.6024096 C34.7259166,30.6024096 34.0740184,30.3814058 33.5472618,29.9393915 C33.0205051,29.4973772 32.7571307,28.9218133 32.7571307,28.2126824 Z M33.805035,27.8692485 L37.1280682,27.8692485 C37.0645585,27.4908334 36.8861738,27.1927167 36.5929086,26.9748895 C36.2996433,26.7570623 35.9363361,26.6481504 35.5029761,26.6481504 C35.0546726,26.6481504 34.6754882,26.7570623 34.3654116,26.9748895 C34.055335,27.1927167 33.8685447,27.4908334 33.805035,27.8692485 Z M39.5152725,29.4671699 C39.2612339,29.0982947 39.1342164,28.6801364 39.1342164,28.2126824 C39.1342164,27.7452284 39.2621678,27.329455 39.5180744,26.9653497 C39.773981,26.6012444 40.1130054,26.3237971 40.5351579,26.1329996 C40.9573104,25.9422021 41.4242862,25.8468047 41.9360994,25.8468047 C42.4479126,25.8468047 42.9158224,25.9422021 43.3398428,26.1329996 C43.7638632,26.3237971 44.1047556,26.6012444 44.3625301,26.9653497 C44.6203046,27.329455 44.7491899,27.7452284 44.7491899,28.2126824 C44.7491899,28.6801364 44.6203046,29.0982947 44.3625301,29.4671699 C44.1047556,29.8360452 43.7629293,30.1174673 43.3370409,30.3114448 C42.9111526,30.5054223 42.4441767,30.6024096 41.9360994,30.6024096 C41.4280221,30.6024096 40.9619802,30.5054223 40.5379598,30.3114448 C40.1139394,30.1174673 39.773047,29.8360452 39.5152725,29.4671699 Z M40.1653094,28.2126824 C40.1653094,28.6674165 40.3362225,29.0362862 40.678054,29.3193026 C41.0198854,29.6023189 41.4392297,29.743825 41.9360994,29.743825 C42.4292333,29.743825 42.8467097,29.6023189 43.1885411,29.3193026 C43.5303725,29.0362862 43.7012857,28.6674165 43.7012857,28.2126824 C43.7012857,27.7643082 43.5313065,27.4025933 43.191343,27.1275268 C42.8513795,26.8524604 42.4329692,26.7149292 41.9360994,26.7149292 C41.4392297,26.7149292 41.0198854,26.8524604 40.678054,27.1275268 C40.3362225,27.4025933 40.1653094,27.7643082 40.1653094,28.2126824 Z M48.8007127,27.1585313 C48.8007127,26.5288994 48.9781636,25.9493605 49.3330705,25.4198974 C49.6879775,24.8904342 50.1726984,24.4714809 50.7872478,24.1630248 C51.4017972,23.8545688 52.0751763,23.7003431 52.8074054,23.7003431 C53.4051434,23.7003431 53.9608447,23.8013053 54.4745258,24.0032327 C54.9882069,24.2051601 55.4243623,24.4841973 55.7830051,24.8403527 L54.9760628,25.4079726 C54.6958731,25.1503959 54.369924,24.9476765 53.9982057,24.7998085 C53.6264873,24.6519404 53.2295579,24.5780074 52.8074054,24.5780074 C52.2657053,24.5780074 51.769777,24.6932792 51.3196055,24.9238262 C50.8694341,25.1543733 50.5154664,25.4667995 50.2576919,25.8611145 C49.9999174,26.2554294 49.871032,26.6878973 49.871032,27.1585313 C49.871032,27.6259852 49.9999174,28.0568632 50.2576919,28.4511781 C50.5154664,28.845493 50.8694341,29.1563294 51.3196055,29.3836964 C51.769777,29.6110635 52.2657053,29.7247453 52.8074054,29.7247453 C53.2445013,29.7247453 53.6517043,29.6492224 54.0290264,29.4981744 C54.4063485,29.3471263 54.7294958,29.1364572 54.9984779,28.8661607 L55.8054202,29.4433204 C55.4505133,29.8058357 55.0134239,30.0896428 54.494139,30.2947501 C53.9748541,30.4998575 53.4126152,30.6024096 52.8074054,30.6024096 C52.2582336,30.6024096 51.7361546,30.5117822 51.2411528,30.3305245 C50.746151,30.1492668 50.3202691,29.9044137 49.9634942,29.5959576 C49.6067193,29.2875016 49.3237319,28.9210168 49.1145236,28.4964923 C48.9053153,28.0719678 48.8007127,27.6259852 48.8007127,27.1585313 Z M56.9710035,29.4671699 C56.7169649,29.0982947 56.5899474,28.6801364 56.5899474,28.2126824 C56.5899474,27.7452284 56.7178988,27.329455 56.9738054,26.9653497 C57.229712,26.6012444 57.5687365,26.3237971 57.9908889,26.1329996 C58.4130414,25.9422021 58.8800172,25.8468047 59.3918304,25.8468047 C59.9036436,25.8468047 60.3715534,25.9422021 60.7955738,26.1329996 C61.2195942,26.3237971 61.5604866,26.6012444 61.8182611,26.9653497 C62.0760356,27.329455 62.204921,27.7452284 62.204921,28.2126824 C62.204921,28.6801364 62.0760356,29.0982947 61.8182611,29.4671699 C61.5604866,29.8360452 61.2186603,30.1174673 60.7927719,30.3114448 C60.3668836,30.5054223 59.8999078,30.6024096 59.3918304,30.6024096 C58.8837531,30.6024096 58.4177112,30.5054223 57.9936908,30.3114448 C57.5696704,30.1174673 57.2287781,29.8360452 56.9710035,29.4671699 Z M57.6210404,28.2126824 C57.6210404,28.6674165 57.7919535,29.0362862 58.133785,29.3193026 C58.4756164,29.6023189 58.8949607,29.743825 59.3918304,29.743825 C59.8849643,29.743825 60.3024407,29.6023189 60.6442721,29.3193026 C60.9861036,29.0362862 61.1570167,28.6674165 61.1570167,28.2126824 C61.1570167,27.7643082 60.9870375,27.4025933 60.647074,27.1275268 C60.3071105,26.8524604 59.8887002,26.7149292 59.3918304,26.7149292 C58.8949607,26.7149292 58.4756164,26.8524604 58.133785,27.1275268 C57.7919535,27.4025933 57.6210404,27.7643082 57.6210404,28.2126824 Z M63.5890512,30.5070113 L63.5890512,25.9469729 L64.6313516,25.9469729 L64.6313516,26.6290707 C64.7807861,26.374674 65.0161419,26.1806994 65.3374261,26.0471411 C65.6587103,25.9135829 65.9818576,25.8468047 66.3068776,25.8468047 C66.9718612,25.8468047 67.4827328,26.0232898 67.8395076,26.3762652 C68.1962825,26.7292407 68.3746673,27.2268968 68.3746673,27.8692485 L68.3746673,30.5070113 L67.3267631,30.5070113 L67.3267631,27.9264875 C67.3267631,27.5448924 67.2221605,27.2475707 67.0129522,27.0345135 C66.8037439,26.8214562 66.5142188,26.7149292 66.1443684,26.7149292 C65.9463677,26.7149292 65.7605113,26.7395735 65.5867937,26.7888629 C65.4130761,26.8381522 65.2533704,26.9136751 65.1076717,27.0154338 C64.9619731,27.1171925 64.8461631,27.2563136 64.7602382,27.4328013 C64.6743134,27.6092891 64.6313516,27.8135984 64.6313516,28.0457354 L64.6313516,30.5070113 L63.5890512,30.5070113 Z M69.3721376,25.9469729 L70.4704758,25.9469729 L72.1011717,29.3717717 L73.72066,25.9469729 L74.8358095,25.9469729 L71.5968327,30.5070113 L69.3721376,25.9469729 Z M75.541884,28.2126824 C75.541884,27.5067315 75.8043244,26.9359374 76.3292131,26.500283 C76.8541018,26.0646286 77.506934,25.8468047 78.2877293,25.8468047 C79.0610529,25.8468047 79.6980079,26.0630387 80.1986135,26.4955131 C80.6992191,26.9279875 80.9495181,27.5003716 80.9495181,28.2126824 C80.9495181,28.3812202 80.9457823,28.497287 80.9383106,28.5608862 L76.5897882,28.5608862 C76.6532979,28.9393013 76.843824,29.2413929 77.1613723,29.4671699 C77.4789207,29.692947 77.8655767,29.8058339 78.3213519,29.8058339 C78.646372,29.8058339 78.9471044,29.7438256 79.2235582,29.6198072 C79.5000121,29.4957888 79.7110851,29.3224837 79.8567838,29.0998865 C79.9613879,29.1348661 80.1220276,29.1881296 80.3387077,29.2596787 C80.5553877,29.3312277 80.6936125,29.3765415 80.7533863,29.3956212 C80.5292346,29.7835762 80.1958138,30.0816929 79.7531141,30.2899802 C79.3104144,30.4982675 78.8219577,30.6024096 78.2877293,30.6024096 C77.5106699,30.6024096 76.8587716,30.3814058 76.332015,29.9393915 C75.8052583,29.4973772 75.541884,28.9218133 75.541884,28.2126824 Z M76.5897882,27.8692485 L79.9128214,27.8692485 C79.8493118,27.4908334 79.670927,27.1927167 79.3776618,26.9748895 C79.0843966,26.7570623 78.7210894,26.6481504 78.2877293,26.6481504 C77.8394258,26.6481504 77.4602414,26.7570623 77.1501648,26.9748895 C76.8400882,27.1927167 76.6532979,27.4908334 76.5897882,27.8692485 Z M82.2776107,30.5070113 L82.2776107,25.9469729 L83.3199112,25.9469729 L83.3199112,26.9725046 C83.5776857,26.2220343 84.074548,25.8468047 84.8105129,25.8468047 C84.9935702,25.8468047 85.1738228,25.8650892 85.3512763,25.9016587 C85.5287298,25.9382283 85.6585491,25.9787721 85.7407381,26.0232916 L85.5782288,26.8532567 C85.327926,26.7483181 85.0645517,26.6958495 84.7880978,26.6958495 C84.4556061,26.6958495 84.1772885,26.7928368 83.9531367,26.9868143 C83.7289849,27.1807918 83.5674113,27.4351847 83.468411,27.7500007 C83.3694106,28.0648166 83.3199112,28.4305064 83.3199112,28.847081 L83.3199112,30.5070113 L82.2776107,30.5070113 Z M86.41319,29.1380458 L87.3658302,29.1380458 C87.3845095,29.2398045 87.432141,29.3383818 87.5087262,29.4337805 C87.5853114,29.5291793 87.6833763,29.6039072 87.8029239,29.6579665 C88.0420191,29.7819849 88.3240725,29.8344535 88.6490926,29.8153737 C88.8919237,29.7994739 89.0880535,29.7374657 89.237488,29.629347 C89.3869225,29.5212284 89.4635066,29.3844923 89.4672424,29.2191344 C89.4709783,29.0633164 89.4074696,28.9385049 89.2767144,28.8446961 C89.1459592,28.7508873 88.9722442,28.6833142 88.7555642,28.6419747 L88.0214708,28.4941074 C87.5096576,28.3764489 87.1314072,28.2007588 86.8867082,27.9670318 C86.6420092,27.7333048 86.5420764,27.4145187 86.5869067,27.0106639 C86.6242653,26.6799482 86.824131,26.4032959 87.1865097,26.1806987 C87.5488884,25.9581016 87.9691666,25.8468047 88.447357,25.8468047 C88.6827164,25.8468047 88.903129,25.8706541 89.1086014,25.9183534 C89.3140739,25.9660528 89.503666,26.0399858 89.6773837,26.1401545 C89.8511013,26.2403232 89.9930619,26.3746744 90.1032699,26.5432123 C90.2134778,26.7117501 90.2797884,26.9089046 90.3022036,27.1346817 L89.3047332,27.1346817 C89.2785822,26.9693238 89.1870549,26.8421274 89.0301487,26.7530885 C88.8732425,26.6640497 88.6864521,26.6195309 88.4697721,26.6195309 C88.2717714,26.6195309 88.0971224,26.6576898 87.94582,26.7340088 C87.7945175,26.8103279 87.7001884,26.9089051 87.6628298,27.0297436 C87.6179994,27.1728417 87.6217352,27.2936783 87.6740373,27.3922571 C87.7562263,27.5417151 87.9672994,27.6577819 88.3072629,27.7404608 L89.0973939,27.9074079 C90.0238878,28.1013854 90.4871278,28.544983 90.4871278,29.238214 C90.4871278,29.6484288 90.2853943,29.9783446 89.8819211,30.2279713 C89.4784479,30.4775981 88.9871894,30.6024096 88.4081307,30.6024096 C88.0793747,30.6024096 87.7674349,30.5475562 87.4723017,30.4378476 C87.1771686,30.328139 86.9296714,30.1588087 86.7298027,29.9298517 C86.5299341,29.7008946 86.4243976,29.436962 86.41319,29.1380458 Z M91.848843,24.6781756 C91.7068802,24.5668771 91.6358999,24.4285509 91.6358999,24.2631931 C91.6358999,24.0978352 91.7068802,23.960304 91.848843,23.8505954 C91.9908058,23.7408868 92.160785,23.6860334 92.3587857,23.6860334 C92.5605223,23.6860334 92.7314354,23.7408868 92.8715303,23.8505954 C93.0116251,23.960304 93.0816715,24.0978352 93.0816715,24.2631931 C93.0816715,24.4285509 93.0116251,24.5660821 92.8715303,24.6757907 C92.7314354,24.7854993 92.5605223,24.8403527 92.3587857,24.8403527 C92.160785,24.8403527 91.9908058,24.7862942 91.848843,24.6781756 Z M91.8432392,30.5070113 L91.8432392,25.9469729 L92.8743321,25.9469729 L92.8743321,30.5070113 L91.8432392,30.5070113 Z M94.6395184,29.4671699 C94.3854798,29.0982947 94.2584623,28.6801364 94.2584623,28.2126824 C94.2584623,27.7452284 94.3864137,27.329455 94.6423203,26.9653497 C94.8982269,26.6012444 95.2372514,26.3237971 95.6594038,26.1329996 C96.0815563,25.9422021 96.5485321,25.8468047 97.0603453,25.8468047 C97.5721585,25.8468047 98.0400683,25.9422021 98.4640887,26.1329996 C98.8881091,26.3237971 99.2290015,26.6012444 99.486776,26.9653497 C99.7445505,27.329455 99.8734358,27.7452284 99.8734358,28.2126824 C99.8734358,28.6801364 99.7445505,29.0982947 99.486776,29.4671699 C99.2290015,29.8360452 98.8871752,30.1174673 98.4612868,30.3114448 C98.0353985,30.5054223 97.5684226,30.6024096 97.0603453,30.6024096 C96.552268,30.6024096 96.0862261,30.5054223 95.6622057,30.3114448 C95.2381853,30.1174673 94.8972929,29.8360452 94.6395184,29.4671699 Z M95.2895553,28.2126824 C95.2895553,28.6674165 95.4604684,29.0362862 95.8022999,29.3193026 C96.1441313,29.6023189 96.5634756,29.743825 97.0603453,29.743825 C97.5534792,29.743825 97.9709556,29.6023189 98.312787,29.3193026 C98.6546185,29.0362862 98.8255316,28.6674165 98.8255316,28.2126824 C98.8255316,27.7643082 98.6555524,27.4025933 98.3155889,27.1275268 C97.9756254,26.8524604 97.5572151,26.7149292 97.0603453,26.7149292 C96.5634756,26.7149292 96.1441313,26.8524604 95.8022999,27.1275268 C95.4604684,27.4025933 95.2895553,27.7643082 95.2895553,28.2126824 Z M101.257566,30.5070113 L101.257566,25.9469729 L102.299867,25.9469729 L102.299867,26.6290707 C102.449301,26.374674 102.684657,26.1806994 103.005941,26.0471411 C103.327225,25.9135829 103.650372,25.8468047 103.975393,25.8468047 C104.640376,25.8468047 105.151248,26.0232898 105.508023,26.3762652 C105.864797,26.7292407 106.043182,27.2268968 106.043182,27.8692485 L106.043182,30.5070113 L104.995278,30.5070113 L104.995278,27.9264875 C104.995278,27.5448924 104.890675,27.2475707 104.681467,27.0345135 C104.472259,26.8214562 104.182734,26.7149292 103.812883,26.7149292 C103.614883,26.7149292 103.429026,26.7395735 103.255309,26.7888629 C103.081591,26.8381522 102.921885,26.9136751 102.776187,27.0154338 C102.630488,27.1171925 102.514678,27.2563136 102.428753,27.4328013 C102.342828,27.6092891 102.299867,27.8135984 102.299867,28.0457354 L102.299867,30.5070113 L101.257566,30.5070113 Z M110.907251,30.5070113 L110.907251,23.7766618 L113.944492,23.7766618 C114.34423,23.7766618 114.699131,23.8362851 115.009208,23.9555336 C115.319284,24.074782 115.56398,24.2353675 115.743301,24.4372949 C115.922622,24.6392223 116.058045,24.8626111 116.149574,25.1074679 C116.241103,25.3523248 116.286866,25.6114876 116.286866,25.884964 C116.286866,26.1425407 116.24764,26.3858039 116.169187,26.614761 C116.090734,26.843718 115.971188,27.0551821 115.810546,27.2491596 C115.649904,27.4431371 115.434161,27.6029277 115.163311,27.7285361 C114.892461,27.8541444 114.57772,27.9296673 114.219077,27.955107 L116.331697,30.5070113 L115.037227,30.5070113 L112.991852,27.9884964 L111.983174,27.9884964 L111.983174,30.5070113 L110.907251,30.5070113 Z M111.983174,27.1346817 L113.866039,27.1346817 C114.097663,27.1346817 114.301264,27.0997027 114.47685,27.0297436 C114.652436,26.9597845 114.789726,26.8643871 114.888727,26.7435487 C114.987727,26.6227102 115.061509,26.4899489 115.110076,26.3452608 C115.158642,26.2005727 115.182924,26.0471419 115.182924,25.884964 C115.182924,25.6655469 115.142765,25.4644175 115.062444,25.2815698 C114.982122,25.0987222 114.842964,24.9437015 114.644963,24.8165032 C114.446962,24.6893048 114.202267,24.6257066 113.91087,24.6257066 L111.983174,24.6257066 L111.983174,27.1346817 Z M117.441242,28.2222222 C117.441242,27.7515883 117.566392,27.33343 117.816695,26.9677347 C118.066997,26.6020394 118.397616,26.3237971 118.808561,26.1329996 C119.219506,25.9422021 119.671539,25.8468047 120.164672,25.8468047 C120.556938,25.8468047 120.925849,25.9143778 121.271416,26.0495261 C121.616984,26.1846744 121.87382,26.377854 122.041934,26.6290707 L122.041934,25.9469729 L123.078631,25.9469729 L123.078631,30.5070113 L122.041934,30.5070113 L122.041934,29.8058339 C121.870084,30.0570507 121.61138,30.2526152 121.265812,30.3925334 C120.920245,30.5324516 120.553202,30.6024096 120.164672,30.6024096 C119.410028,30.6024096 118.767469,30.3814058 118.236977,29.9393915 C117.706484,29.4973772 117.441242,28.9249932 117.441242,28.2222222 Z M118.511561,28.2126824 C118.511561,28.6546967 118.679673,29.0187965 119.0159,29.3049929 C119.352128,29.5911892 119.764935,29.7342852 120.254333,29.7342852 C120.751202,29.7342852 121.171481,29.597549 121.51518,29.3240725 C121.858879,29.050596 122.030727,28.6801364 122.030727,28.2126824 C122.030727,27.9010464 121.941067,27.628369 121.761746,27.394642 C121.582424,27.160915 121.361078,26.9891998 121.097699,26.8794912 C120.834321,26.7697827 120.553202,26.7149292 120.254333,26.7149292 C119.761199,26.7149292 119.347458,26.8532553 119.013099,27.1299118 C118.678739,27.4065682 118.511561,27.7674881 118.511561,28.2126824 Z M124.255422,26.6958495 L124.255422,25.9469729 L125.219269,25.9469729 L125.219269,24.2250337 L126.267174,24.2250337 L126.267174,25.9469729 L127.399134,25.9469729 L127.399134,26.6958495 L126.267174,26.6958495 L126.267174,30.5070113 L125.219269,30.5070113 L125.219269,26.6958495 L124.255422,26.6958495 Z M128.222888,28.2126824 C128.222888,27.5067315 128.485328,26.9359374 129.010217,26.500283 C129.535106,26.0646286 130.187938,25.8468047 130.968733,25.8468047 C131.742057,25.8468047 132.379012,26.0630387 132.879617,26.4955131 C133.380223,26.9279875 133.630522,27.5003716 133.630522,28.2126824 C133.630522,28.3812202 133.626786,28.497287 133.619315,28.5608862 L129.270792,28.5608862 C129.334302,28.9393013 129.524828,29.2413929 129.842376,29.4671699 C130.159925,29.692947 130.546581,29.8058339 131.002356,29.8058339 C131.327376,29.8058339 131.628108,29.7438256 131.904562,29.6198072 C132.181016,29.4957888 132.392089,29.3224837 132.537788,29.0998865 C132.642392,29.1348661 132.803032,29.1881296 133.019712,29.2596787 C133.236392,29.3312277 133.374616,29.3765415 133.43439,29.3956212 C133.210239,29.7835762 132.876818,30.0816929 132.434118,30.2899802 C131.991418,30.4982675 131.502962,30.6024096 130.968733,30.6024096 C130.191674,30.6024096 129.539776,30.3814058 129.013019,29.9393915 C128.486262,29.4973772 128.222888,28.9218133 128.222888,28.2126824 Z M129.270792,27.8692485 L132.593825,27.8692485 C132.530316,27.4908334 132.351931,27.1927167 132.058666,26.9748895 C131.765401,26.7570623 131.402093,26.6481504 130.968733,26.6481504 C130.52043,26.6481504 130.141245,26.7570623 129.831169,26.9748895 C129.521092,27.1927167 129.334302,27.4908334 129.270792,27.8692485 Z" id="VideoConversionRate" fill="#798192" fill-rule="nonzero"></path>
                <path d="M17.3413655,50.8618899 L23.748221,48.0663484 L23.748221,66.0338091 L20.3660612,66.0338091 L20.3660612,52.6532077 L17.3413655,53.8474196 L17.3413655,50.8618899 Z M33.3172585,58.1357259 L31.3924521,58.1357259 L31.3924521,55.1773374 L33.3172585,55.1773374 C34.0505218,55.1954316 34.572964,54.9737808 34.8846009,54.5123785 C35.1962377,54.0509761 35.3520538,53.6212451 35.3520538,53.2231725 C35.3520538,52.7889114 35.2283175,52.3727508 34.9808412,51.9746782 C34.7333648,51.5766056 34.3254933,51.3232904 33.7572143,51.2147252 C32.6023247,51.0699715 31.6765937,51.4318503 30.9799936,52.3003724 L28.3402591,50.5904781 C28.8535434,49.7400502 29.6005441,49.0705745 30.5812837,48.5820308 C31.5620233,48.0934871 32.6298219,47.8854068 33.7847115,47.9577837 C35.3062327,48.0301605 36.5527615,48.5413143 37.5243353,49.4912603 C38.4959091,50.4412063 38.9816888,51.5856479 38.9816888,52.9246195 C38.9816888,53.6302937 38.7800444,54.2907224 38.3767496,54.9059256 C37.9734548,55.5211287 37.4326813,56.018712 36.7544128,56.3986904 C37.6893234,56.7424804 38.4454898,57.3938622 39.0229346,58.3528553 C39.6003794,59.3118485 39.8432692,60.2708272 39.7516113,61.2298204 C39.5866271,62.8221108 38.8350435,64.09321 37.4968381,65.043156 C36.1586327,65.9931021 34.6004717,66.4047392 32.8223083,66.2780797 C31.5940924,66.2057029 30.4804655,65.8257302 29.4813943,65.1381502 C28.4823232,64.4505702 27.7353225,63.5820611 27.2403698,62.532597 C27.3320277,62.4964085 27.8223901,62.2566639 28.7114718,61.8133557 C29.6005535,61.3700476 30.0909159,61.1212559 30.1825738,61.0669733 C30.4575475,61.6278938 30.8654191,62.0983362 31.4062007,62.4783146 C31.9469824,62.858293 32.51067,63.0482794 33.0972806,63.0482794 C33.958865,63.0482794 34.6783687,62.7994877 35.2558135,62.3018969 C35.8332583,61.8043062 36.1219764,61.1755418 36.1219764,60.415585 C36.1219764,60.2527371 36.0853138,60.0627507 36.0119875,59.8456202 C35.9386611,59.6284897 35.8149248,59.3751745 35.6407748,59.0856672 C35.4666248,58.7961598 35.1779067,58.5609386 34.7746119,58.3799965 C34.3713171,58.1990544 33.8855375,58.1176317 33.3172585,58.1357259 Z M47.0383784,66.0338091 L45.1685664,66.0338091 L54.1051675,48.0934896 L55.9749795,48.0934896 L47.0383784,66.0338091 Z M43.2712573,54.1731137 C42.5746572,53.4674395 42.2263624,52.6079775 42.2263624,51.5947017 C42.2263624,50.5814259 42.57924,49.7219638 43.2850059,49.0162897 C43.9907718,48.3106155 44.856926,47.9577837 45.8834945,47.9577837 C46.8917315,47.9577837 47.7578857,48.3106155 48.4819832,49.0162897 C49.2060806,49.7219638 49.5681239,50.5814259 49.5681239,51.5947017 C49.5681239,52.6079775 49.2106634,53.4629161 48.4957318,54.1595431 C47.7808001,54.8561702 46.9100631,55.2044785 45.8834945,55.2044785 C44.856926,55.2044785 43.9861889,54.8606937 43.2712573,54.1731137 Z M44.7836052,50.5090545 C44.4902999,50.7985619 44.3436494,51.1604407 44.3436494,51.5947017 C44.3436494,52.0289627 44.4902999,52.3908415 44.7836052,52.6803489 C45.0769105,52.9698562 45.4435366,53.1146077 45.8834945,53.1146077 C46.3234525,53.1146077 46.6946614,52.9698562 46.9971325,52.6803489 C47.2996036,52.3908415 47.4508369,52.0289627 47.4508369,51.5947017 C47.4508369,51.1785349 47.2950208,50.8166561 46.9833839,50.5090545 C46.671747,50.2014529 46.3051209,50.0476545 45.8834945,50.0476545 C45.4435366,50.0476545 45.0769105,50.2014529 44.7836052,50.5090545 Z M52.867792,65.2738561 C52.1711919,64.5681819 51.8228971,63.7087198 51.8228971,62.695444 C51.8228971,61.6821683 52.1757748,60.8227062 52.8815406,60.117032 C53.5873065,59.4113578 54.4534607,59.058526 55.4800293,59.058526 C56.5065978,59.058526 57.3773348,59.4158813 58.0922665,60.1306026 C58.8071982,60.8453239 59.1646586,61.7002625 59.1646586,62.695444 C59.1646586,63.7087198 58.8071982,64.5636584 58.0922665,65.2602855 C57.3773348,65.9569126 56.5065978,66.3052209 55.4800293,66.3052209 C54.4534607,66.3052209 53.5827237,65.9614361 52.867792,65.2738561 Z M54.3801399,61.6097969 C54.0868346,61.8993042 53.9401841,62.261183 53.9401841,62.695444 C53.9401841,63.1297051 54.0868346,63.4915838 54.3801399,63.7810912 C54.6734452,64.0705986 55.0400713,64.2153501 55.4800293,64.2153501 C55.9199872,64.2153501 56.2911962,64.0705986 56.5936672,63.7810912 C56.8961383,63.4915838 57.0473716,63.1297051 57.0473716,62.695444 C57.0473716,62.2792772 56.8915555,61.9173984 56.5799186,61.6097969 C56.2682817,61.3021953 55.9016556,61.1483968 55.4800293,61.1483968 C55.0400713,61.1483968 54.6734452,61.3021953 54.3801399,61.6097969 Z" id="13%" fill="#354168" fill-rule="nonzero"></path>
                <g id="Group-18" transform="translate(193.815261, 56.104418)" fill="#00E098" fill-rule="nonzero">
                    <path d="M17.465283,8.54660387 L17.465283,10.3927638 L16.355347,10.3927638 L16.355347,8.54660387 L14.5588525,8.54660387 L14.5588525,7.4132019 L16.355347,7.4132019 L16.355347,5.5904111 L17.465283,5.5904111 L17.465283,7.4132019 L19.2617775,7.4132019 L19.2617775,8.54660387 L17.465283,8.54660387 Z M25.2462783,11.0354144 L20.4632548,11.0354144 L20.4632548,10.2992873 L23.5184397,6.56022928 C23.8235783,6.19411135 23.9761453,5.85915742 23.9761453,5.55535743 C23.9761453,5.2982959 23.8750696,5.08213377 23.6729153,4.90686455 C23.470761,4.73159533 23.2133042,4.64396203 22.9005371,4.64396203 C22.5953985,4.64396203 22.3360346,4.74717458 22.1224376,4.95360277 C21.9088406,5.16003097 21.7791586,5.42682567 21.7333878,5.75399489 L20.4289268,5.5086192 C20.5357253,4.81533206 20.8179743,4.2661634 21.2756822,3.86109675 C21.7333901,3.4560301 22.2940739,3.25349982 22.9577503,3.25349982 C23.6290552,3.25349982 24.1992744,3.46966195 24.668425,3.9019927 C25.1375756,4.33432345 25.3721474,4.88543951 25.3721474,5.55535743 C25.3721474,6.24085483 25.1051551,6.89128864 24.5711626,7.50667835 L22.7174549,9.66832129 L25.2462783,9.66832129 L25.2462783,11.0354144 Z M26.9397891,10.8951997 C26.7643344,10.7238254 26.6766083,10.5135054 26.6766083,10.2642337 C26.6766083,10.0149619 26.7643344,9.80464197 26.9397891,9.63326762 C27.1152438,9.46189327 27.3250234,9.37620737 27.5691343,9.37620737 C27.8208736,9.37620737 28.0363745,9.45994586 28.2156434,9.62742534 C28.3949124,9.79490482 28.4845455,10.0071721 28.4845455,10.2642337 C28.4845455,10.5212952 28.3949124,10.7335625 28.2156434,10.901042 C28.0363745,11.0685215 27.8208736,11.1522599 27.5691343,11.1522599 C27.3250234,11.1522599 27.1152438,11.0665741 26.9397891,10.8951997 Z M31.425304,8.12595984 L33.0844868,8.12595984 L33.0844868,5.46188098 L31.425304,8.12595984 Z M35.4759986,9.37620737 L34.4804889,9.37620737 L34.4804889,11.0354144 L33.0844868,11.0354144 L33.0844868,9.37620737 L29.3885141,9.37620737 L33.1188147,3.39371449 L34.4804889,3.39371449 L34.4804889,8.12595984 L35.4759986,8.12595984 L35.4759986,9.37620737 Z M38.4053145,11.0354144 L37.6272149,11.0354144 L41.346073,3.3119226 L42.1241725,3.3119226 L38.4053145,11.0354144 Z M36.8376728,5.92926323 C36.5477911,5.62546325 36.4028525,5.255456 36.4028525,4.81923038 C36.4028525,4.38300476 36.5496982,4.0129975 36.8433941,3.70919752 C37.13709,3.40539753 37.4975296,3.25349982 37.9247236,3.25349982 C38.3442892,3.25349982 38.7047287,3.40539753 39.0060531,3.70919752 C39.3073774,4.0129975 39.4580374,4.38300476 39.4580374,4.81923038 C39.4580374,5.255456 39.3092845,5.62351584 39.0117744,5.92342096 C38.7142643,6.22332607 38.3519176,6.37327638 37.9247236,6.37327638 C37.4975296,6.37327638 37.1351829,6.22527348 36.8376728,5.92926323 Z M37.467018,4.35184812 C37.3449625,4.47648401 37.2839357,4.63227654 37.2839357,4.81923038 C37.2839357,5.00618421 37.3449625,5.16197674 37.467018,5.28661263 C37.5890734,5.41124852 37.7416404,5.47356553 37.9247236,5.47356553 C38.1078067,5.47356553 38.2622808,5.41124852 38.3881505,5.28661263 C38.5140202,5.16197674 38.5769541,5.00618421 38.5769541,4.81923038 C38.5769541,4.64006628 38.5121131,4.48427375 38.3824292,4.35184812 C38.2527453,4.21942249 38.1001783,4.15321066 37.9247236,4.15321066 C37.7416404,4.15321066 37.5890734,4.21942249 37.467018,4.35184812 Z M40.8311542,10.7082468 C40.5412725,10.4044468 40.3963339,10.0344396 40.3963339,9.59821395 C40.3963339,9.16198833 40.5431796,8.79198107 40.8368755,8.48818109 C41.1305714,8.1843811 41.491011,8.03248339 41.918205,8.03248339 C42.345399,8.03248339 42.7077457,8.18632851 43.0052558,8.49402337 C43.3027659,8.80171822 43.4515188,9.16977807 43.4515188,9.59821395 C43.4515188,10.0344396 43.3027659,10.4024994 43.0052558,10.7024045 C42.7077457,11.0023096 42.345399,11.1522599 41.918205,11.1522599 C41.491011,11.1522599 41.1286643,11.004257 40.8311542,10.7082468 Z M41.4604994,9.13083169 C41.338444,9.25546758 41.2774171,9.41126011 41.2774171,9.59821395 C41.2774171,9.78516778 41.338444,9.94096031 41.4604994,10.0655962 C41.5825548,10.1902321 41.7351218,10.2525491 41.918205,10.2525491 C42.1012882,10.2525491 42.2557622,10.1902321 42.3816319,10.0655962 C42.5075016,9.94096031 42.5704355,9.78516778 42.5704355,9.59821395 C42.5704355,9.41904985 42.5055945,9.26325733 42.3759106,9.13083169 C42.2462267,8.99840606 42.0936597,8.93219423 41.918205,8.93219423 C41.7351218,8.93219423 41.5825548,8.99840606 41.4604994,9.13083169 Z" id="+2.4%"></path>
                    <g id="noun_Arrow_2251299" transform="translate(0.000000, 3.245710)">
                        <polygon id="Path" points="5.82733538 0.977678986 6.6267574 1.79400183 6.22704649 2.20216357 1.45827016 7.07175956 1.05863367 7.47984503 0.259062743 6.66391075 0.483891877 6.43432833 0.6588428 6.25567863 5.42762447 1.38584045"></polygon>
                        <polygon id="Path" points="6.0235476 1.59390576 2.16060116 1.59390576 2.16060116 0.380567896 7.21150581 0.380567896 7.21150581 5.538257 6.0235476 5.538257"></polygon>
                    </g>
                </g>
                <path d="M95.8875502,159.01595 L95.9830689,158.056809 C96.0500999,158.081538 96.1648887,158.102735 96.3274388,158.120398 C96.489989,158.138062 96.6014263,158.146894 96.6617542,158.146894 C96.9466359,158.146894 97.1837544,158.078889 97.3731169,157.942878 C97.5624795,157.806867 97.6957015,157.634647 97.7727872,157.426214 C97.8498728,157.217781 97.888415,156.97579 97.888415,156.700235 L97.888415,148.931727 L98.8436018,148.931727 L98.8436018,156.700235 C98.8436018,156.972257 98.8193034,157.225729 98.770706,157.460658 C98.7221085,157.695587 98.6425104,157.916381 98.5319093,158.123048 C98.4213081,158.329715 98.2838967,158.507233 98.1196708,158.655609 C97.9554449,158.803986 97.7493277,158.920565 97.5013131,159.005351 C97.2532984,159.090138 96.9734483,159.13253 96.6617542,159.13253 C96.5075829,159.13253 96.2495175,159.09367 95.8875502,159.01595 Z M100.271355,153.870505 C100.271355,153.347656 100.38363,152.883105 100.608184,152.476837 C100.832737,152.070569 101.129345,151.761457 101.498015,151.549491 C101.866686,151.337526 102.272217,151.231544 102.714622,151.231544 C103.066534,151.231544 103.397495,151.306614 103.707513,151.456757 C104.017531,151.606899 104.247947,151.821511 104.398767,152.1006 L104.398767,151.342826 L105.328817,151.342826 L105.328817,156.408783 L104.398767,156.408783 L104.398767,155.629813 C104.244595,155.908901 104.012504,156.126163 103.702486,156.281604 C103.392468,156.437046 103.063183,156.514766 102.714622,156.514766 C102.037609,156.514766 101.461151,156.269242 100.985231,155.778188 C100.509311,155.287134 100.271355,154.651246 100.271355,153.870505 Z M101.231569,153.859907 C101.231569,154.350961 101.382386,154.755457 101.684025,155.073405 C101.985665,155.391354 102.356006,155.550326 102.795058,155.550326 C103.240815,155.550326 103.617858,155.398419 103.926201,155.094602 C104.234543,154.790784 104.388712,154.379223 104.388712,153.859907 C104.388712,153.513696 104.308276,153.210766 104.147402,152.951108 C103.986527,152.69145 103.787951,152.500684 103.551667,152.378804 C103.315383,152.256923 103.063182,152.195984 102.795058,152.195984 C102.352654,152.195984 101.981475,152.349657 101.681512,152.657007 C101.381548,152.964358 101.231569,153.36532 101.231569,153.859907 Z M106.892307,156.408783 L106.892307,151.342826 L107.827384,151.342826 L107.827384,152.1006 C107.961446,151.817979 108.172591,151.602483 108.460824,151.454107 C108.749057,151.305731 109.038962,151.231544 109.330547,151.231544 C109.927122,151.231544 110.38544,151.42761 110.705513,151.819747 C111.025586,152.211883 111.18562,152.764752 111.18562,153.478371 L111.18562,156.408783 L110.245515,156.408783 L110.245515,153.54196 C110.245515,153.118028 110.151673,152.78772 109.963986,152.551025 C109.7763,152.31433 109.516558,152.195984 109.184755,152.195984 C109.007123,152.195984 108.840386,152.223362 108.684539,152.27812 C108.528692,152.332878 108.385415,152.41678 108.254705,152.529828 C108.123994,152.642877 108.020098,152.797433 107.943012,152.993501 C107.865927,153.18957 107.827384,153.416546 107.827384,153.674438 L107.827384,156.408783 L106.892307,156.408783 Z M112.623427,154.273238 L112.623427,151.342826 L113.563532,151.342826 L113.563532,154.20435 C113.563532,154.628281 113.656536,154.95859 113.842547,155.195285 C114.028558,155.43198 114.285786,155.550326 114.614238,155.550326 C114.79187,155.550326 114.958607,155.523831 115.114454,155.470839 C115.270301,155.417848 115.413577,155.335712 115.544288,155.22443 C115.674998,155.113148 115.778895,154.959475 115.85598,154.763407 C115.933066,154.567339 115.971608,154.338596 115.971608,154.077171 L115.971608,151.342826 L116.906686,151.342826 L116.906686,156.408783 L115.971608,156.408783 L115.971608,155.651009 C115.837546,155.93363 115.628077,156.148242 115.343196,156.294852 C115.058314,156.441462 114.770085,156.514766 114.4785,156.514766 C113.878573,156.514766 113.417742,156.319583 113.095993,155.929213 C112.774245,155.538843 112.616724,154.986857 112.623427,154.273238 Z M118.148428,153.870505 C118.148428,153.347656 118.260704,152.883105 118.485257,152.476837 C118.709811,152.070569 119.006419,151.761457 119.375089,151.549491 C119.74376,151.337526 120.149291,151.231544 120.591696,151.231544 C120.943608,151.231544 121.274569,151.306614 121.584587,151.456757 C121.894605,151.606899 122.125021,151.821511 122.275841,152.1006 L122.275841,151.342826 L123.205891,151.342826 L123.205891,156.408783 L122.275841,156.408783 L122.275841,155.629813 C122.121669,155.908901 121.889578,156.126163 121.57956,156.281604 C121.269541,156.437046 120.940257,156.514766 120.591696,156.514766 C119.914683,156.514766 119.338225,156.269242 118.862305,155.778188 C118.386385,155.287134 118.148428,154.651246 118.148428,153.870505 Z M119.108642,153.859907 C119.108642,154.350961 119.25946,154.755457 119.561099,155.073405 C119.862739,155.391354 120.233079,155.550326 120.672132,155.550326 C121.117888,155.550326 121.494932,155.398419 121.803275,155.094602 C122.111617,154.790784 122.265786,154.379223 122.265786,153.859907 C122.265786,153.513696 122.18535,153.210766 122.024476,152.951108 C121.863601,152.69145 121.665025,152.500684 121.428741,152.378804 C121.192457,152.256923 120.940256,152.195984 120.672132,152.195984 C120.229728,152.195984 119.858549,152.349657 119.558586,152.657007 C119.258622,152.964358 119.108642,153.36532 119.108642,153.859907 Z M124.769381,156.408783 L124.769381,151.342826 L125.704458,151.342826 L125.704458,152.482136 C125.935715,151.648404 126.381464,151.231544 127.04172,151.231544 C127.205946,151.231544 127.367655,151.251857 127.526854,151.292484 C127.686053,151.333111 127.802517,151.378153 127.876251,151.427612 L127.73046,152.349658 C127.505906,152.233077 127.269625,152.174787 127.02161,152.174787 C126.723323,152.174787 126.473636,152.282535 126.272543,152.498034 C126.07145,152.713532 125.926498,152.996149 125.837682,153.345893 C125.748866,153.695636 125.704458,154.101898 125.704458,154.56469 L125.704458,156.408783 L124.769381,156.408783 Z M128.233189,151.342826 L129.233622,151.342826 L130.671429,155.009816 L132.114264,151.342826 L133.114696,151.342826 L130.128481,158.872873 L129.148158,158.872873 L130.158645,156.255109 L128.233189,151.342826 Z M136.493041,151.104366 C136.580181,150.539123 136.820651,150.086053 137.214458,149.745142 C137.608265,149.40423 138.07161,149.233777 138.604506,149.233777 C139.201082,149.233777 139.702131,149.429842 140.107669,149.821979 C140.513206,150.214116 140.715972,150.717527 140.715972,151.332228 C140.715972,151.971658 140.472988,152.582817 139.987014,153.165723 C139.661913,153.564925 139.334304,153.971187 139.004177,154.38452 C138.674049,154.797853 138.393361,155.147592 138.162104,155.433745 L140.726026,155.433745 L140.726026,156.408783 L136.578505,156.408783 L136.578505,155.974255 L139.308328,152.492735 C139.63678,152.082934 139.801004,151.696102 139.801004,151.332228 C139.801004,150.996615 139.686215,150.726363 139.456634,150.521462 C139.227052,150.316562 138.943013,150.214114 138.604506,150.214114 C138.292812,150.214114 138.023855,150.313913 137.797625,150.513514 C137.571395,150.713115 137.436498,150.986017 137.392928,151.332228 L136.493041,151.104366 Z M142.063288,152.87957 C142.063288,152.526294 142.079208,152.201285 142.111047,151.904532 C142.142887,151.60778 142.194835,151.318981 142.266894,151.038127 C142.338952,150.757272 142.436983,150.509982 142.56099,150.29625 C142.684998,150.082518 142.834977,149.894401 143.010934,149.731894 C143.18689,149.569387 143.401386,149.445742 143.654428,149.360956 C143.90747,149.276169 144.191509,149.233777 144.506555,149.233777 C144.88528,149.233777 145.217916,149.296482 145.504474,149.421895 C145.791031,149.547308 146.02396,149.716879 146.203268,149.930611 C146.382576,150.144343 146.527529,150.410179 146.63813,150.728128 C146.748731,151.046077 146.825815,151.377268 146.869385,151.721713 C146.912956,152.066157 146.93474,152.452106 146.93474,152.87957 C146.93474,153.303502 146.912956,153.685918 146.869385,154.026829 C146.825815,154.367741 146.748731,154.696283 146.63813,155.012465 C146.527529,155.328648 146.382576,155.593601 146.203268,155.807333 C146.02396,156.021065 145.791031,156.190636 145.504474,156.316049 C145.217916,156.441462 144.88528,156.504167 144.506555,156.504167 C144.131182,156.504167 143.799383,156.441462 143.51115,156.316049 C143.222917,156.190636 142.988312,156.021065 142.807328,155.807333 C142.626344,155.593601 142.479716,155.329531 142.367439,155.015115 C142.255163,154.700699 142.176402,154.371274 142.131156,154.026829 C142.085911,153.682385 142.063288,153.299969 142.063288,152.87957 Z M142.988311,152.87957 C142.988311,153.190453 143.001717,153.471304 143.028529,153.72213 C143.055342,153.972956 143.103938,154.214064 143.174321,154.44546 C143.244703,154.676856 143.335194,154.871155 143.445795,155.028363 C143.556396,155.185571 143.701348,155.310099 143.880656,155.401951 C144.059964,155.493803 144.268595,155.539728 144.506555,155.539728 C144.744515,155.539728 144.952308,155.492919 145.12994,155.399301 C145.307572,155.305683 145.452525,155.181155 145.564801,155.025713 C145.677078,154.870272 145.767569,154.676856 145.836276,154.44546 C145.904982,154.214064 145.952741,153.972956 145.979554,153.72213 C146.006366,153.471304 146.019772,153.190453 146.019772,152.87957 C146.019772,152.565154 146.006366,152.282537 145.979554,152.031711 C145.952741,151.780885 145.904982,151.538894 145.836276,151.305732 C145.767569,151.07257 145.677078,150.878271 145.564801,150.722829 C145.452525,150.567387 145.307572,150.443743 145.12994,150.351891 C144.952308,150.260039 144.744515,150.214114 144.506555,150.214114 C144.268595,150.214114 144.059964,150.260039 143.880656,150.351891 C143.701348,150.443743 143.556396,150.567387 143.445795,150.722829 C143.335194,150.878271 143.244703,151.07257 143.174321,151.305732 C143.103938,151.538894 143.055342,151.780885 143.028529,152.031711 C143.001717,152.282537 142.988311,152.565154 142.988311,152.87957 Z M148.045773,150.961289 L148.045773,150.028644 L150.06172,149.254973 L150.06172,156.408783 L149.136697,156.408783 L149.136697,150.558556 L148.045773,150.961289 Z M151.650346,151.491201 C151.68051,150.844705 151.912602,150.302434 152.346627,149.864372 C152.780653,149.426309 153.299297,149.219646 153.902576,149.244375 C154.502503,149.272637 154.995174,149.502263 155.380602,149.93326 C155.76603,150.364257 155.987229,150.945388 156.044205,151.67667 C156.104533,152.591656 156.067667,153.485432 155.933605,154.358024 C155.833058,155.011586 155.574155,155.539726 155.156887,155.942461 C154.739619,156.345196 154.229354,156.535962 153.626075,156.514766 C153.424982,156.5077 153.240649,156.482088 153.073072,156.437928 C152.905494,156.393769 152.735406,156.323115 152.562801,156.225964 C152.390196,156.128813 152.231,155.989271 152.085208,155.807333 C151.939415,155.625396 151.81122,155.405485 151.700619,155.147593 L152.525096,154.781954 C152.652455,155.053977 152.817517,155.257107 153.020285,155.391352 C153.223054,155.525597 153.438388,155.592719 153.666293,155.592719 C154.13551,155.592719 154.509202,155.35956 154.787381,154.893235 C155.065559,154.426911 155.172807,153.835182 155.109128,153.118031 C155.00523,153.393586 154.830952,153.596717 154.586289,153.727429 C154.341626,153.858141 154.055073,153.923497 153.726621,153.923497 C153.327786,153.923497 152.965824,153.808683 152.640724,153.579054 C152.315624,153.349424 152.065937,153.048261 151.891657,152.675554 C151.717376,152.302848 151.63694,151.908067 151.650346,151.491201 Z M152.565315,151.533594 C152.548557,151.918665 152.654967,152.247207 152.884548,152.51923 C153.114129,152.791253 153.406548,152.934328 153.761812,152.948459 C154.120428,152.959057 154.432955,152.838945 154.699403,152.588119 C154.965851,152.337293 155.105776,152.022881 155.119182,151.644876 C155.119182,151.252739 154.997691,150.92243 154.754703,150.65394 C154.511716,150.38545 154.21427,150.245908 153.862358,150.23531 C153.510445,150.221179 153.210486,150.338642 152.962471,150.587701 C152.714457,150.836761 152.582072,151.152056 152.565315,151.533594 Z" id="January2019" fill="#798192" fill-rule="nonzero"></path>
                <g id="Group-15" transform="translate(14.281124, 107.108434)">
                    <path d="M119.158243,8.52651283e-14 L120.30473,8.52651283e-14 C121.409299,8.50622222e-14 122.30473,0.8954305 122.30473,2 L122.30473,32.3814694 L117.158243,32.3814694 L117.158243,2 C117.158243,0.8954305 118.053674,8.54680344e-14 119.158243,8.52651283e-14 Z" id="Rectangle" fill="#E6E7EF"></path>
                    <path d="M126.423871,10.1770332 L127.570357,10.1770332 C128.674927,10.1770332 129.570357,11.0724637 129.570357,12.1770332 L129.570357,32.3814694 L124.423871,32.3814694 L124.423871,12.1770332 C124.423871,11.0724637 125.319301,10.1770332 126.423871,10.1770332 Z" id="Rectangle" fill="#5579F3"></path>
                    <path d="M141.25786,16.0365372 L142.404346,16.0365372 C143.508916,16.0365372 144.404346,16.9319677 144.404346,18.0365372 L144.404346,32.3814694 L139.25786,32.3814694 L139.25786,18.0365372 C139.25786,16.9319677 140.153291,16.0365372 141.25786,16.0365372 Z" id="Rectangle" fill="#E6E7EF"></path>
                    <path d="M133.689498,21.5876463 L134.835985,21.5876463 C135.940554,21.5876463 136.835985,22.4830768 136.835985,23.5876463 L136.835985,32.3814694 L131.689498,32.3814694 L131.689498,23.5876463 C131.689498,22.4830768 132.584929,21.5876463 133.689498,21.5876463 Z" id="Rectangle" fill="#E6E7EF"></path>
                    <path d="M148.523488,19.1204867 L149.669974,19.1204867 C150.774543,19.1204867 151.669974,20.0159172 151.669974,21.1204867 L151.669974,32.3814694 L146.523488,32.3814694 L146.523488,21.1204867 C146.523488,20.0159172 147.418918,19.1204867 148.523488,19.1204867 Z" id="Rectangle" fill="#E6E7EF"></path>
                    <path d="M155.789115,8.32666356 L156.935601,8.32666356 C158.040171,8.32666356 158.935601,9.22209406 158.935601,10.3266636 L158.935601,32.3814694 L153.789115,32.3814694 L153.789115,10.3266636 C153.789115,9.22209406 154.684546,8.32666356 155.789115,8.32666356 Z" id="Rectangle" fill="#E6E7EF"></path>
                    <path d="M170.623105,8.52651283e-14 L171.769591,8.52651283e-14 C172.87416,8.50622222e-14 173.769591,0.8954305 173.769591,2 L173.769591,32.3814694 L168.623105,32.3814694 L168.623105,2 C168.623105,0.8954305 169.518535,8.54680344e-14 170.623105,8.52651283e-14 Z" id="Rectangle" fill="#E6E7EF"></path>
                    <path d="M163.054743,13.5693776 L164.201229,13.5693776 C165.305798,13.5693776 166.201229,14.4648081 166.201229,15.5693776 L166.201229,32.3814694 L161.054743,32.3814694 L161.054743,15.5693776 C161.054743,14.4648081 161.950173,13.5693776 163.054743,13.5693776 Z" id="Rectangle" fill="#E6E7EF"></path>
                    <path d="M177.888732,24.3632008 L179.035218,24.3632008 C180.139788,24.3632008 181.035218,25.2586313 181.035218,26.3632008 L181.035218,32.3814694 L175.888732,32.3814694 L175.888732,26.3632008 C175.888732,25.2586313 176.784163,24.3632008 177.888732,24.3632008 Z" id="Rectangle" fill="#E6E7EF"></path>
                    <path d="M185.15436,17.578512 L186.300846,17.578512 C187.405415,17.578512 188.300846,18.4739425 188.300846,19.578512 L188.300846,32.3814694 L183.15436,32.3814694 L183.15436,19.578512 C183.15436,18.4739425 184.04979,17.578512 185.15436,17.578512 Z" id="Rectangle" fill="#E6E7EF"></path>
                    <path d="M199.685615,20.6624614 L200.832101,20.6624614 C201.93667,20.6624614 202.832101,21.5578919 202.832101,22.6624614 L202.832101,32.3814694 L197.685615,32.3814694 L197.685615,22.6624614 C197.685615,21.5578919 198.581045,20.6624614 199.685615,20.6624614 Z" id="Rectangle" fill="#E6E7EF"></path>
                    <path d="M192.419987,28.3723351 L193.566473,28.3723351 C194.671043,28.3723351 195.566473,29.2677656 195.566473,30.3723351 L195.566473,32.3814694 L190.419987,32.3814694 L190.419987,30.3723351 C190.419987,29.2677656 191.315418,28.3723351 192.419987,28.3723351 Z" id="Rectangle" fill="#E6E7EF"></path>
                    <path d="M206.951242,16.0365372 L208.097728,16.0365372 C209.202298,16.0365372 210.097728,16.9319677 210.097728,18.0365372 L210.097728,32.3814694 L204.951242,32.3814694 L204.951242,18.0365372 C204.951242,16.9319677 205.846673,16.0365372 206.951242,16.0365372 Z" id="Rectangle" fill="#E6E7EF"></path>
                    <path d="M214.519604,21.5876463 L215.66609,21.5876463 C216.77066,21.5876463 217.66609,22.4830768 217.66609,23.5876463 L217.66609,32.3814694 L212.519604,32.3814694 L212.519604,23.5876463 C212.519604,22.4830768 213.415035,21.5876463 214.519604,21.5876463 Z" id="Rectangle" fill="#E6E7EF"></path>
                    <path d="M221.785232,4.31752925 L222.931718,4.31752925 C224.036287,4.31752925 224.931718,5.21295975 224.931718,6.31752925 L224.931718,32.3814694 L219.785232,32.3814694 L219.785232,6.31752925 C219.785232,5.21295975 220.680662,4.31752925 221.785232,4.31752925 Z" id="Rectangle" fill="#E6E7EF"></path>
                    <path d="M2,7.40147872 L3.14648614,7.40147872 C4.25105564,7.40147872 5.14648614,8.29690922 5.14648614,9.40147872 L5.14648614,32.3814694 L-1.26298971e-12,32.3814694 L-1.2634338e-12,9.40147872 C-1.26356907e-12,8.29690922 0.8954305,7.40147872 2,7.40147872 Z" id="Rectangle" fill="#E6E7EF"></path>
                    <path d="M9.2656275,12.6441928 L10.4121136,12.6441928 C11.5166831,12.6441928 12.4121136,13.5396233 12.4121136,14.6441928 L12.4121136,32.3814694 L7.2656275,32.3814694 L7.2656275,14.6441928 C7.2656275,13.5396233 8.161058,12.6441928 9.2656275,12.6441928 Z" id="Rectangle" fill="#E6E7EF"></path>
                    <path d="M24.099617,16.0365372 L25.2461031,16.0365372 C26.3506726,16.0365372 27.2461031,16.9319677 27.2461031,18.0365372 L27.2461031,32.3814694 L22.099617,32.3814694 L22.099617,18.0365372 C22.099617,16.9319677 22.9950475,16.0365372 24.099617,16.0365372 Z" id="Rectangle" fill="#E6E7EF"></path>
                    <path d="M16.531255,21.5876463 L17.6777411,21.5876463 C18.7823106,21.5876463 19.6777411,22.4830768 19.6777411,23.5876463 L19.6777411,32.3814694 L14.531255,32.3814694 L14.531255,23.5876463 C14.531255,22.4830768 15.4266855,21.5876463 16.531255,21.5876463 Z" id="Rectangle" fill="#E6E7EF"></path>
                    <path d="M31.3652445,24.9799907 L32.5117306,24.9799907 C33.6163001,24.9799907 34.5117306,25.8754212 34.5117306,26.9799907 L34.5117306,32.3814694 L29.3652445,32.3814694 L29.3652445,26.9799907 C29.3652445,25.8754212 30.260675,24.9799907 31.3652445,24.9799907 Z" id="Rectangle" fill="#E6E7EF"></path>
                    <path d="M38.630872,20.6624614 L39.7773581,20.6624614 C40.8819276,20.6624614 41.7773581,21.5578919 41.7773581,22.6624614 L41.7773581,32.3814694 L36.630872,32.3814694 L36.630872,22.6624614 C36.630872,21.5578919 37.5263025,20.6624614 38.630872,20.6624614 Z" id="Rectangle" fill="#E6E7EF"></path>
                    <path d="M53.162127,21.5876463 L54.3086131,21.5876463 C55.4131826,21.5876463 56.3086131,22.4830768 56.3086131,23.5876463 L56.3086131,32.3814694 L51.162127,32.3814694 L51.162127,23.5876463 C51.162127,22.4830768 52.0575575,21.5876463 53.162127,21.5876463 Z" id="Rectangle" fill="#E6E7EF"></path>
                    <path d="M45.8964995,8.32666356 L47.0429856,8.32666356 C48.1475551,8.32666356 49.0429856,9.22209406 49.0429856,10.3266636 L49.0429856,32.3814694 L43.8964995,32.3814694 L43.8964995,10.3266636 C43.8964995,9.22209406 44.79193,8.32666356 45.8964995,8.32666356 Z" id="Rectangle" fill="#E6E7EF"></path>
                    <path d="M60.7304889,24.3632008 L61.8769751,24.3632008 C62.9815446,24.3632008 63.8769751,25.2586313 63.8769751,26.3632008 L63.8769751,32.3814694 L58.7304889,32.3814694 L58.7304889,26.3632008 C58.7304889,25.2586313 59.6259194,24.3632008 60.7304889,24.3632008 Z" id="Rectangle" fill="#E6E7EF"></path>
                    <path d="M67.9961164,28.989125 L69.1426026,28.989125 C70.2471721,28.989125 71.1426026,29.8845555 71.1426026,30.989125 L71.1426026,32.3814694 L65.9961164,32.3814694 L65.9961164,30.989125 C65.9961164,29.8845555 66.8915469,28.989125 67.9961164,28.989125 Z" id="Rectangle" fill="#E6E7EF"></path>
                    <path d="M75.2617439,17.578512 L76.4082301,17.578512 C77.5127996,17.578512 78.4082301,18.4739425 78.4082301,19.578512 L78.4082301,32.3814694 L73.2617439,32.3814694 L73.2617439,19.578512 C73.2617439,18.4739425 74.1571744,17.578512 75.2617439,17.578512 Z" id="Rectangle" fill="#E6E7EF"></path>
                    <path d="M82.5273714,20.6624614 L83.6738576,20.6624614 C84.7784271,20.6624614 85.6738576,21.5578919 85.6738576,22.6624614 L85.6738576,32.3814694 L80.5273714,32.3814694 L80.5273714,22.6624614 C80.5273714,21.5578919 81.4228019,20.6624614 82.5273714,20.6624614 Z" id="Rectangle" fill="#E6E7EF"></path>
                    <path d="M89.7929989,16.0365372 L90.9394851,16.0365372 C92.0440546,16.0365372 92.9394851,16.9319677 92.9394851,18.0365372 L92.9394851,32.3814694 L87.7929989,32.3814694 L87.7929989,18.0365372 C87.7929989,16.9319677 88.6884294,16.0365372 89.7929989,16.0365372 Z" id="Rectangle" fill="#E6E7EF"></path>
                    <path d="M97.3613609,21.5876463 L98.507847,21.5876463 C99.6124165,21.5876463 100.507847,22.4830768 100.507847,23.5876463 L100.507847,32.3814694 L95.3613609,32.3814694 L95.3613609,23.5876463 C95.3613609,22.4830768 96.2567914,21.5876463 97.3613609,21.5876463 Z" id="Rectangle" fill="#E6E7EF"></path>
                    <path d="M111.892616,8.32666356 L113.039102,8.32666356 C114.143672,8.32666356 115.039102,9.22209406 115.039102,10.3266636 L115.039102,32.3814694 L109.892616,32.3814694 L109.892616,10.3266636 C109.892616,9.22209406 110.788046,8.32666356 111.892616,8.32666356 Z" id="Rectangle" fill="#E6E7EF"></path>
                    <path d="M104.626988,4.31752925 L105.773475,4.31752925 C106.878044,4.31752925 107.773475,5.21295975 107.773475,6.31752925 L107.773475,32.3814694 L102.626988,32.3814694 L102.626988,6.31752925 C102.626988,5.21295975 103.522419,4.31752925 104.626988,4.31752925 Z" id="Rectangle" fill="#E6E7EF"></path>
                </g>
                <g id="Group-13" transform="translate(206.056225, 10.200803)">
                    <ellipse id="Oval" fill="#5579F3" opacity="0.200000003" cx="16.3573486" cy="16.3669604" rx="16.3573486" ry="16.3669604"></ellipse>
                    <g id="noun_play_1194307" transform="translate(9.814409, 9.820176)" fill-rule="nonzero" stroke="#5579F3" stroke-width="0.5">
                        <path d="M11.4316225,12.8921288 L1.45353916,12.8921288 C0.652280731,12.8921288 0.000402642427,12.2398676 0.000402642427,11.437937 L0.000402642427,1.45419184 C0.000402642427,0.652462581 0.652280731,0 1.45353916,0 L11.4316225,0 C12.2328809,0 12.8849603,0.652261141 12.8849603,1.4539904 L12.8849603,11.437937 C12.8849603,12.2398676 12.2330822,12.8921288 11.4316225,12.8921288 Z" id="Shape" fill="#5579F3"></path>
                        <path d="M1.45353916,0.604318537 C0.985266018,0.604318537 0.604366283,0.985643534 0.604366283,1.45419184 L0.604366283,11.437937 C0.604366283,11.9064853 0.985266018,12.2878103 1.45353916,12.2878103 L11.4316225,12.2878103 C11.8998956,12.2878103 12.2809967,11.9064853 12.2809967,11.437937 L12.2809967,1.45419184 C12.2809967,0.985643534 11.8998956,0.604318537 11.4316225,0.604318537 L1.45353916,0.604318537 Z" id="Path" fill="#DDE4FD"></path>
                        <path d="M9.66059974,6.41705711 C9.65959314,6.40738801 9.65778125,6.39792035 9.65596936,6.38825126 C9.65415747,6.37858216 9.65194293,6.36891306 9.64932576,6.35944541 C9.64670858,6.35078351 9.64348744,6.34232305 9.63986366,6.33366115 C9.63563591,6.32318629 9.63120685,6.31311432 9.6259725,6.30324378 C9.62395928,6.29981931 9.62295268,6.29599196 9.62114079,6.29256749 C9.61872493,6.2885387 9.61550379,6.28531566 9.61288662,6.28128687 C9.60684698,6.27181922 9.60020338,6.262553 9.59255317,6.25368966 C9.58691618,6.24663928 9.58067522,6.23999177 9.57443427,6.23354571 C9.5671867,6.22629389 9.5595365,6.2192435 9.55148365,6.212596 C9.54383344,6.20614994 9.53578059,6.20030819 9.5273251,6.19486932 C9.52289603,6.19184773 9.51907093,6.18802038 9.51444054,6.18540167 L4.33001666,3.13057146 C4.18627331,3.04616831 4.00125912,3.09390947 3.91650288,3.23753584 C3.88308356,3.29414035 3.87100429,3.35698947 3.87664128,3.41782421 C3.87623864,3.42467315 3.87482939,3.43091777 3.87482939,3.43796816 L3.87482939,9.41669288 C3.87482939,9.43180085 3.87704393,9.44630449 3.87905714,9.46100958 C3.87019901,9.5258731 3.88107035,9.59395965 3.91690553,9.65479439 C3.97327547,9.75047816 4.07393607,9.80345675 4.17741518,9.80345675 C4.22955737,9.80345675 4.28230353,9.79016174 4.3304193,9.76155733 L9.51444054,6.70652568 C9.53437134,6.69464075 9.55188629,6.68074143 9.56799199,6.66563346 C9.57181709,6.66200755 9.57483691,6.65797876 9.57846069,6.65415141 C9.59215053,6.63964777 9.60443113,6.62433836 9.61489983,6.60782032 C9.61691304,6.60479873 9.61953022,6.60278434 9.62134211,6.5995613 C9.62355664,6.59593539 9.62456325,6.59230948 9.62617382,6.58868357 C9.63140817,6.57881303 9.63603856,6.5689425 9.64006498,6.55866908 C9.64348744,6.55000718 9.6469099,6.54154672 9.64952708,6.53268339 C9.65234557,6.52321573 9.65435879,6.51354663 9.65617068,6.50387754 C9.65818389,6.49420844 9.65999578,6.48474078 9.66080107,6.47507169 C9.66160635,6.46540259 9.66180767,6.45593493 9.66180767,6.4460644 C9.66180767,6.43619386 9.66140503,6.4267262 9.66059974,6.41705711 Z M4.47879303,8.97251876 L4.47879303,3.91961003 L8.76572695,6.4460644 L4.47879303,8.97251876 Z" id="Shape" fill="#5579F3"></path>
                    </g>
                </g>
                <g id="Group-14" transform="translate(102.008032, 70.385542)">
                    <path d="M44.4236619,37.9626815 L41.0724016,40.4746201 C40.0060165,41.2739296 38.5401683,41.2739296 37.4737831,40.4746201 L34.1225229,37.9626815 L6,37.9626815 C2.6862915,37.9626815 1.87739444e-15,35.27639 0,31.9626815 L0,6 C-4.05812251e-16,2.6862915 2.6862915,6.08718376e-16 6,0 L72.5461847,0 C75.8598932,-6.08718376e-16 78.5461847,2.6862915 78.5461847,6 L78.5461847,31.9626815 C78.5461847,35.27639 75.8598932,37.9626815 72.5461847,37.9626815 L44.4236619,37.9626815 Z" id="Combined-Shape" fill="#354168"></path>
                    <path d="M25.1296285,7.23736002 L25.7992026,7.23736002 L25.7992026,8.29774137 C26.3692018,8.37323815 26.8293147,8.59629348 27.1795552,8.96691406 C27.5297957,9.33753463 27.7049133,9.80423502 27.7049133,10.3670292 L26.6129926,10.3670292 C26.6129926,10.0444521 26.4996812,9.78536471 26.273055,9.58975941 C26.0464288,9.3941541 25.7476987,9.29635292 25.3768559,9.29635292 C25.0403503,9.29635292 24.7519213,9.38729086 24.5115602,9.56916948 C24.2711991,9.75104809 24.1510203,9.9861141 24.1510203,10.2743745 C24.1510203,10.7273552 24.4669188,11.0362011 25.0987251,11.2009213 L26.0052254,11.4377055 C26.7057063,11.6230158 27.2138908,11.9061245 27.5297939,12.2870401 C27.8456971,12.6679557 27.9761769,13.1192138 27.9212372,13.6408279 C27.873165,14.1624421 27.6568432,14.5965421 27.2722655,14.9431409 C26.8876877,15.2897398 26.3966716,15.487058 25.7992026,15.5351014 L25.7992026,16.6778424 L25.1296285,16.6778424 L25.1296285,15.5248064 C24.4978222,15.456173 23.9844872,15.2176754 23.5896083,14.8093064 C23.1947293,14.4009374 22.9972928,13.925658 22.9972928,13.3834538 L24.0892135,13.3834538 C24.1029484,13.6854409 24.2402956,13.9548232 24.5012591,14.1916085 C24.7622226,14.4283939 25.0952894,14.5467848 25.5004696,14.5467848 C25.8987822,14.5467848 26.211247,14.454131 26.4378732,14.2688208 C26.6644994,14.0835105 26.7984129,13.8535919 26.8396176,13.5790581 C26.8739549,12.9956739 26.4996839,12.6113324 25.7167935,12.4260221 L24.8205944,12.1995329 C23.6462587,11.8838191 23.0590996,11.2489693 23.0590996,10.2949645 C23.0590996,9.7527603 23.258253,9.29807058 23.6565657,8.93088168 C24.0548784,8.56369278 24.5458944,8.3492165 25.1296285,8.2874464 L25.1296285,7.23736002 Z M30.9343254,14.5158949 C31.3438391,14.5150959 31.6563021,14.4190122 31.871724,14.2276409 C32.088049,14.0354673 32.1962099,13.7883906 32.1962099,13.4864035 C32.1962099,13.198143 32.088049,12.935624 31.871724,12.6988387 C31.655399,12.4620533 31.3618195,12.347094 30.9909766,12.3539574 L30.2389935,12.3539574 L30.2389935,11.3759357 L30.9909766,11.3759357 C31.2382052,11.3827991 31.4356417,11.3073034 31.5832921,11.1494465 C31.7309425,10.9915896 31.821935,10.8131453 31.8562723,10.6141084 C31.9180794,10.188581 31.7532629,9.8968933 31.3618176,9.73903639 C31.2519383,9.69099298 31.0974227,9.66697164 30.8982664,9.66697164 C30.5068211,9.6601083 30.1909227,9.83512094 29.9505616,10.1920148 L29.1470728,9.60520185 C29.3324942,9.28262469 29.6037548,9.03040058 29.9608627,8.84852196 C30.3179707,8.66664335 30.7059764,8.58943189 31.1248914,8.61688526 C31.6742883,8.64433864 32.1275338,8.83994101 32.4846418,9.20369824 C32.8417497,9.56745547 33.020301,9.99297641 33.020301,10.4802738 C33.020301,10.7410809 32.9464769,10.9915892 32.7988265,11.2318062 C32.6511761,11.4720233 32.4537396,11.664194 32.206511,11.8083243 C32.5361491,11.9318644 32.7988255,12.161783 32.9945482,12.4980869 C33.1902708,12.8343907 33.2881306,13.1912793 33.2881306,13.5687632 C33.2881306,14.1796008 33.0683752,14.6617435 32.6288577,15.0152057 C32.1893403,15.3686679 31.626217,15.5453964 30.9394709,15.5453964 C30.4312789,15.5453964 29.9849006,15.4201422 29.6003229,15.1696302 C29.2157451,14.9191181 28.9307498,14.5913983 28.7453283,14.186461 L29.6724308,13.6923027 C29.7617078,13.9050664 29.9368254,14.0955214 30.1977889,14.2636733 C30.4568353,14.4305899 30.7023442,14.5146601 30.9343229,14.5158863 L30.9343254,14.5158949 Z M38.0163534,13.3525689 C38.0163534,13.0162651 37.9116262,12.7297248 37.7021687,12.4929394 C37.4927111,12.256154 37.226601,12.1343315 36.9038304,12.1274681 C36.5741923,12.1137415 36.2840465,12.2218375 36.0333842,12.4517595 C35.7827219,12.6816816 35.6573926,12.9544954 35.6573926,13.2702092 C35.6573926,13.6133764 35.770704,13.9016325 35.9973302,14.1349862 C36.2239564,14.3683399 36.4986507,14.4884466 36.8214213,14.49531 C37.1510594,14.5090367 37.432621,14.4043722 37.6661147,14.1813136 C37.8996083,13.9582549 38.0163534,13.6820094 38.0163534,13.3525689 Z M37.0068418,11.1082667 C37.5905759,11.1082667 38.081592,11.3261746 38.4799047,11.7619969 C38.8782174,12.1978193 39.0773707,12.7451627 39.0773707,13.4040437 C39.0567683,14.0217447 38.8284287,14.5330562 38.392345,14.9379935 C37.9562613,15.3429307 37.4188905,15.5453964 36.7802167,15.5453964 C36.1758802,15.5453964 35.6694126,15.3343517 35.2607987,14.912256 C34.8521848,14.4901604 34.6204115,13.9290904 34.5654719,13.2290293 C34.5242671,12.8789988 34.5139661,12.5203945 34.5345684,12.1532056 C34.5551708,11.7860167 34.5860739,11.4308439 34.6272787,11.0876767 C34.6684835,10.7445095 34.7526086,10.4202214 34.8796566,10.1148026 C35.0067046,9.80938379 35.1595033,9.54514901 35.3380573,9.32209033 C35.5166112,9.09903165 35.7535351,8.92401901 36.0488359,8.79704714 C36.3441367,8.67007528 36.6806372,8.61345354 37.0583475,8.62718023 C37.4978649,8.64777026 37.882437,8.75243469 38.2120751,8.94117665 C38.5417131,9.1299186 38.8129738,9.45763836 39.025865,9.92434575 L38.0678591,10.3361443 C37.8343655,9.85571025 37.4841302,9.61549682 37.0171429,9.61549682 C36.5501556,9.61549682 36.1793183,9.83168891 35.9046199,10.2640796 C35.6299215,10.6964702 35.5200438,11.231803 35.5749835,11.870094 C35.8565493,11.3622066 36.3338307,11.1082667 37.0068418,11.1082667 Z M40.4989279,16.7602022 L39.7778482,16.513123 C40.2791728,15.8130619 40.5195303,15.0237892 40.4989279,14.1452812 L41.6114509,14.1452812 C41.5771136,14.7698455 41.4517843,15.3068941 41.2354593,15.7564431 C41.0191343,16.2059922 40.7736263,16.5405752 40.4989279,16.7602022 Z M44.433963,10.3876192 C44.433963,10.6141095 44.5129376,10.8011328 44.6708892,10.9486947 C44.8288408,11.0962566 45.0348615,11.1700365 45.2889575,11.1700365 C45.5293186,11.1631731 45.7250383,11.0842458 45.8761225,10.9332523 C46.0272066,10.7822587 46.1027475,10.6003828 46.1027475,10.3876192 C46.1027475,10.1817188 46.0237729,10.0049904 45.8658213,9.85742848 C45.7078697,9.70986659 45.5087164,9.63608675 45.2683553,9.63608675 C45.0279941,9.63608675 44.8288408,9.70986659 44.6708892,9.85742848 C44.5129376,10.0049904 44.433963,10.1817188 44.433963,10.3876192 Z M43.9395083,13.3010941 C43.9395083,13.6442613 44.0682713,13.9342332 44.325801,14.1710186 C44.5833308,14.407804 44.8975124,14.5261949 45.2683553,14.5261949 C45.6391981,14.5261949 45.9516629,14.407804 46.2057589,14.1710186 C46.4598549,13.9342332 46.586901,13.6442613 46.586901,13.3010941 C46.586901,12.9716536 46.4632886,12.6868291 46.21606,12.446612 C45.9688315,12.206395 45.6632341,12.0862883 45.2992587,12.0862883 L45.1859461,12.0862883 C44.8357057,12.0931516 44.5404093,12.21669 44.3000482,12.456907 C44.0596871,12.6971241 43.9395083,12.9785169 43.9395083,13.3010941 Z M43.4038491,10.3773242 C43.4038491,9.89002677 43.5824004,9.47480069 43.9395083,9.13163349 C44.2966163,8.78846629 44.7395608,8.61688526 45.2683553,8.61688526 C45.7971497,8.61688526 46.2435279,8.78846629 46.6075033,9.13163349 C46.9714787,9.47480069 47.1534637,9.89002677 47.1534637,10.3773242 C47.1534637,10.8440316 46.9783461,11.2352363 46.6281056,11.5509501 C46.9440088,11.7431238 47.1929505,11.9936321 47.3749382,12.3024825 C47.5569259,12.611333 47.6479184,12.9476318 47.6479184,13.3113891 C47.6479184,13.9359534 47.4178619,14.4644229 46.9577421,14.8968136 C46.4976222,15.3292043 45.9344989,15.5453964 45.2683553,15.5453964 C44.6022116,15.5453964 44.0390883,15.3292043 43.5789685,14.8968136 C43.1188486,14.4644229 42.8887922,13.9359534 42.8887922,13.3113891 C42.8887922,12.9407685 42.9780678,12.6010381 43.1566218,12.2921876 C43.3351757,11.9833371 43.5824006,11.7362604 43.8983038,11.5509501 C43.5686657,11.2352363 43.4038491,10.8440316 43.4038491,10.3773242 Z M50.3056122,10.3876192 C50.3056122,10.6141095 50.3845868,10.8011328 50.5425384,10.9486947 C50.70049,11.0962566 50.9065107,11.1700365 51.1606068,11.1700365 C51.4009679,11.1631731 51.5966875,11.0842458 51.7477717,10.9332523 C51.8988558,10.7822587 51.9743967,10.6003828 51.9743967,10.3876192 C51.9743967,10.1817188 51.8954221,10.0049904 51.7374705,9.85742848 C51.579519,9.70986659 51.3803656,9.63608675 51.1400045,9.63608675 C50.8996434,9.63608675 50.70049,9.70986659 50.5425384,9.85742848 C50.3845868,10.0049904 50.3056122,10.1817188 50.3056122,10.3876192 Z M49.8111575,13.3010941 C49.8111575,13.6442613 49.9399205,13.9342332 50.1974503,14.1710186 C50.45498,14.407804 50.7691616,14.5261949 51.1400045,14.5261949 C51.5108473,14.5261949 51.8233121,14.407804 52.0774081,14.1710186 C52.3315042,13.9342332 52.4585503,13.6442613 52.4585503,13.3010941 C52.4585503,12.9716536 52.3349378,12.6868291 52.0877093,12.446612 C51.8404807,12.206395 51.5348833,12.0862883 51.1709079,12.0862883 L51.0575954,12.0862883 C50.7073549,12.0931516 50.4120585,12.21669 50.1716974,12.456907 C49.9313363,12.6971241 49.8111575,12.9785169 49.8111575,13.3010941 Z M49.2754983,10.3773242 C49.2754983,9.89002677 49.4540496,9.47480069 49.8111575,9.13163349 C50.1682655,8.78846629 50.61121,8.61688526 51.1400045,8.61688526 C51.6687989,8.61688526 52.1151771,8.78846629 52.4791525,9.13163349 C52.8431279,9.47480069 53.0251129,9.89002677 53.0251129,10.3773242 C53.0251129,10.8440316 52.8499953,11.2352363 52.4997548,11.5509501 C52.815658,11.7431238 53.0645997,11.9936321 53.2465874,12.3024825 C53.4285751,12.611333 53.5195676,12.9476318 53.5195676,13.3113891 C53.5195676,13.9359534 53.2895111,14.4644229 52.8293913,14.8968136 C52.3692714,15.3292043 51.8061481,15.5453964 51.1400045,15.5453964 C50.4738608,15.5453964 49.9107375,15.3292043 49.4506177,14.8968136 C48.9904978,14.4644229 48.7604414,13.9359534 48.7604414,13.3113891 C48.7604414,12.9407685 48.849717,12.6010381 49.028271,12.2921876 C49.206825,11.9833371 49.4540498,11.7362604 49.769953,11.5509501 C49.4403149,11.2352363 49.2754983,10.8440316 49.2754983,10.3773242 Z M54.7248008,12.0965833 C54.7248008,11.691646 54.7471198,11.3244626 54.7917582,10.9950221 C54.8363967,10.6655815 54.9170882,10.3498725 55.033835,10.0478853 C55.1505818,9.74589819 55.2999469,9.49367408 55.4819346,9.29120544 C55.6639223,9.08873679 55.8991292,8.92745063 56.1875626,8.80734211 C56.4759959,8.68723359 56.8090627,8.62718023 57.1867731,8.62718023 C57.5644834,8.62718023 57.8975502,8.68723359 58.1859835,8.80734211 C58.4744169,8.92745063 58.7096239,9.08873679 58.8916116,9.29120544 C59.0735993,9.49367408 59.2212474,9.74589819 59.3345605,10.0478853 C59.4478736,10.3498725 59.5268482,10.6655815 59.5714867,10.9950221 C59.6161252,11.3244626 59.6384441,11.691646 59.6384441,12.0965833 C59.6384441,12.5015206 59.6161252,12.8669881 59.5714867,13.192997 C59.5268482,13.5190058 59.4478736,13.8312833 59.3345605,14.1298387 C59.2212474,14.4283942 59.0735993,14.6789025 58.8916116,14.8813711 C58.7096239,15.0838398 58.4744169,15.245126 58.1859835,15.3652345 C57.8975502,15.485343 57.5644834,15.5453964 57.1867731,15.5453964 C56.7129183,15.5453964 56.3111779,15.45789 55.9815398,15.2828748 C55.6519017,15.1078595 55.3978095,14.8556354 55.2192555,14.5261949 C55.0407015,14.1967544 54.9136554,13.8364342 54.8381134,13.4452236 C54.7625713,13.054013 54.7248008,12.6044707 54.7248008,12.0965833 Z M57.1867731,9.6772666 C56.245931,9.6772666 55.775517,10.4836974 55.775517,12.0965833 C55.775517,13.7094691 56.245931,14.5158999 57.1867731,14.5158999 C58.1207477,14.5158999 58.587728,13.7094691 58.587728,12.0965833 C58.587728,10.4836974 58.1207477,9.6772666 57.1867731,9.6772666 Z" id="$36,880" fill="#FFFFFF" fill-rule="nonzero"></path>
                    <ellipse id="Oval" fill="#FFFFFF" cx="14.4859767" cy="11.9035527" rx="1.60955297" ry="1.6085882"></ellipse>
                    <path d="M13.3089911,25.0738686 L13.3089911,24.189145 L15.3259621,23.4552267 L15.3259621,30.2414581 L14.4004692,30.2414581 L14.4004692,24.6918289 L13.3089911,25.0738686 Z M16.8952763,28.1402398 C16.8952763,27.7682519 16.9858127,27.423917 17.1668884,27.1072246 C17.347964,26.7905322 17.5961009,26.5350038 17.9113066,26.3406318 C17.5826879,26.0222638 17.418381,25.6268231 17.418381,25.154298 C17.418381,24.6750703 17.5893943,24.2687383 17.931426,23.9352897 C18.2734577,23.6018411 18.6993144,23.4351193 19.2090087,23.4351193 C19.7220563,23.4351193 20.1529427,23.6026789 20.5016809,23.9378031 C20.8504191,24.2729274 21.0247856,24.6784216 21.0247856,25.154298 C21.0247856,25.3855337 20.9778408,25.6041989 20.8839497,25.8103003 C20.7900587,26.0164017 20.6609604,26.1931771 20.4966511,26.3406318 C20.8185633,26.538355 21.0708917,26.7947212 21.2536439,27.109738 C21.4363962,27.4247548 21.5277709,27.7682519 21.5277709,28.1402398 C21.5277709,28.7535171 21.304783,29.2721141 20.8588005,29.6960462 C20.4128179,30.1199783 19.8628928,30.3319412 19.2090087,30.3319412 C18.5517713,30.3319412 18.0018462,30.1208161 17.5592169,29.6985596 C17.1165876,29.2763031 16.8952763,28.7568684 16.8952763,28.1402398 Z M17.8207692,28.1402398 C17.8207692,28.4988227 17.9532207,28.8012678 18.2181276,29.0475841 C18.4830346,29.2939004 18.8133249,29.4170567 19.2090087,29.4170567 C19.6046924,29.4170567 19.9358211,29.2930626 20.2024046,29.0450707 C20.4689882,28.7970787 20.602278,28.4954715 20.602278,28.1402398 C20.602278,27.7850081 20.4681499,27.4800497 20.1998897,27.2253553 C19.9316296,26.9706609 19.6013392,26.8433156 19.2090087,26.8433156 L19.1385907,26.8433156 C18.7663798,26.8533693 18.4536937,26.9857414 18.2005231,27.2404358 C17.9473526,27.4951302 17.8207692,27.7950619 17.8207692,28.1402398 Z M18.5853069,24.5963189 C18.4176443,24.7471248 18.3338143,24.933116 18.3338143,25.154298 C18.3338143,25.3754799 18.4126145,25.5656601 18.5702173,25.7248441 C18.7278202,25.8840281 18.9239825,25.9686457 19.1587101,25.9786994 L19.2442176,25.9786994 C19.4890051,25.9686457 19.6927121,25.8840281 19.8553448,25.7248441 C20.0179775,25.5656601 20.0992927,25.3754799 20.0992927,25.154298 C20.0992927,24.933116 20.013786,24.746287 19.8427702,24.5938055 C19.6717543,24.441324 19.4605026,24.3650844 19.2090087,24.3650844 C18.9642213,24.3650844 18.7563228,24.4421618 18.5853069,24.5963189 Z M23.7459361,32.7146625 L23.8415033,31.8048048 C23.9085684,31.8282635 24.0234155,31.8483706 24.1860482,31.8651269 C24.348681,31.8818831 24.4601749,31.890261 24.5205335,31.890261 C24.8055599,31.890261 25.0427989,31.8257506 25.2322577,31.6967278 C25.4217164,31.567705 25.5550062,31.4043343 25.632131,31.2066111 C25.7092558,31.0088878 25.7478176,30.7793311 25.7478176,30.5179342 L25.7478176,23.1485896 L26.7034897,23.1485896 L26.7034897,30.5179342 C26.7034897,30.7759799 26.679179,31.0164279 26.6305568,31.2392855 C26.5819347,31.4621431 26.5022961,31.6715926 26.3916388,31.8676403 C26.2809815,32.0636879 26.1435002,32.2320853 25.9791908,32.3728375 C25.8148815,32.5135897 25.6086596,32.624179 25.3605189,32.7046088 C25.1123783,32.7850386 24.8323859,32.8252529 24.5205335,32.8252529 C24.3662839,32.8252529 24.1080873,32.7883898 23.7459361,32.7146625 Z M28.1319679,27.8336027 C28.1319679,27.3376188 28.2443002,26.8969371 28.4689681,26.5115443 C28.693636,26.1261514 28.9903943,25.8329221 29.3592521,25.6318476 C29.7281098,25.4307731 30.1338472,25.3302373 30.5764765,25.3302373 C30.928568,25.3302373 31.2596967,25.4014501 31.5698725,25.5438779 C31.8800483,25.6863057 32.1105809,25.8898906 32.2614773,26.1546387 L32.2614773,25.4358009 L33.1920001,25.4358009 L33.1920001,30.2414581 L32.2614773,30.2414581 L32.2614773,29.5025129 C32.1072277,29.7672611 31.8750184,29.9733594 31.5648426,30.120814 C31.2546668,30.2682687 30.9252147,30.3419949 30.5764765,30.3419949 C29.8991196,30.3419949 29.3223689,30.1090871 28.8462071,29.6432644 C28.3700453,29.1774417 28.1319679,28.5742272 28.1319679,27.8336027 Z M29.0926699,27.823549 C29.0926699,28.2893717 29.2435639,28.6730831 29.5453566,28.9746949 C29.8471493,29.2763067 30.2176781,29.4271104 30.6569541,29.4271104 C31.1029367,29.4271104 31.4801719,29.2830091 31.7886711,28.9948023 C32.0971703,28.7065955 32.2514176,28.3161816 32.2514176,27.823549 C32.2514176,27.4951273 32.1709407,27.2077626 32.0099846,26.9614463 C31.8490285,26.71513 31.6503513,26.5341656 31.413947,26.4185477 C31.1775428,26.3029299 30.9252143,26.2451218 30.6569541,26.2451218 C30.2143249,26.2451218 29.8429578,26.3908987 29.5428417,26.6824568 C29.2427256,26.9740148 29.0926699,27.3543751 29.0926699,27.823549 Z M34.7562844,30.2414581 L34.7562844,25.4358009 L35.691837,25.4358009 L35.691837,26.1546387 C35.8259671,25.8865394 36.0372188,25.6821167 36.3255985,25.5413645 C36.6139782,25.4006123 36.9040301,25.3302373 37.1957631,25.3302373 C37.7926419,25.3302373 38.2511923,25.5162284 38.5714279,25.8882163 C38.8916635,26.2602042 39.0517788,26.7846657 39.0517788,27.4616167 L39.0517788,30.2414581 L38.1111963,30.2414581 L38.1111963,27.5219387 C38.1111963,27.1197897 38.0173067,26.8064532 37.8295246,26.58192 C37.6417424,26.3573868 37.3818693,26.2451218 37.0498973,26.2451218 C36.872175,26.2451218 36.7053532,26.2710936 36.549427,26.3230378 C36.3935007,26.3749821 36.2501514,26.4545729 36.1193745,26.5618126 C35.9885977,26.6690524 35.8846484,26.815667 35.8075236,27.001661 C35.7303988,27.1876549 35.691837,27.402969 35.691837,27.6476097 L35.691837,30.2414581 L34.7562844,30.2414581 Z M40.4903168,28.2156424 L40.4903168,25.4358009 L41.4308993,25.4358009 L41.4308993,28.1502935 C41.4308993,28.5524425 41.5239507,28.865779 41.7100562,29.0903122 C41.8961616,29.3148454 42.1535199,29.4271104 42.4821386,29.4271104 C42.659861,29.4271104 42.8266827,29.4019764 42.982609,29.3517078 C43.1385352,29.3014392 43.2818846,29.2235239 43.4126614,29.1179598 C43.5434382,29.0123957 43.6473875,28.8666188 43.7245123,28.6806249 C43.8016371,28.494631 43.8401989,28.2776413 43.8401989,28.0296494 L43.8401989,25.4358009 L44.7757516,25.4358009 L44.7757516,30.2414581 L43.8401989,30.2414581 L43.8401989,29.5226203 C43.7060688,29.7907197 43.4964937,29.9943046 43.2114673,30.1333811 C42.9264409,30.2724577 42.6380655,30.3419949 42.3463326,30.3419949 C41.7461004,30.3419949 41.2850352,30.1568416 40.963123,29.7865293 C40.6412108,29.416217 40.4836103,28.8925933 40.4903168,28.2156424 Z M46.0181253,27.8336027 C46.0181253,27.3376188 46.1304575,26.8969371 46.3551254,26.5115443 C46.5797933,26.1261514 46.8765517,25.8329221 47.2454094,25.6318476 C47.6142671,25.4307731 48.0200046,25.3302373 48.4626338,25.3302373 C48.8147253,25.3302373 49.145854,25.4014501 49.4560298,25.5438779 C49.7662056,25.6863057 49.9967383,25.8898906 50.1476346,26.1546387 L50.1476346,25.4358009 L51.0781574,25.4358009 L51.0781574,30.2414581 L50.1476346,30.2414581 L50.1476346,29.5025129 C49.993385,29.7672611 49.7611758,29.9733594 49.451,30.120814 C49.1408241,30.2682687 48.8113721,30.3419949 48.4626338,30.3419949 C47.7852769,30.3419949 47.2085262,30.1090871 46.7323644,29.6432644 C46.2562026,29.1774417 46.0181253,28.5742272 46.0181253,27.8336027 Z M46.9788272,27.823549 C46.9788272,28.2893717 47.1297213,28.6730831 47.431514,28.9746949 C47.7333067,29.2763067 48.1038355,29.4271104 48.5431115,29.4271104 C48.989094,29.4271104 49.3663292,29.2830091 49.6748284,28.9948023 C49.9833276,28.7065955 50.1375749,28.3161816 50.1375749,27.823549 C50.1375749,27.4951273 50.057098,27.2077626 49.8961419,26.9614463 C49.7351858,26.71513 49.5365086,26.5341656 49.3001044,26.4185477 C49.0637001,26.3029299 48.8113717,26.2451218 48.5431115,26.2451218 C48.1004822,26.2451218 47.7291151,26.3908987 47.428999,26.6824568 C47.128883,26.9740148 46.9788272,27.3543751 46.9788272,27.823549 Z M52.6424417,30.2414581 L52.6424417,25.4358009 L53.5779944,25.4358009 L53.5779944,26.5165711 C53.8093688,25.7256779 54.2553446,25.3302373 54.9159353,25.3302373 C55.0802446,25.3302373 55.2420366,25.3495066 55.4013161,25.3880459 C55.5605955,25.4265852 55.6771193,25.4693129 55.7508909,25.5162303 L55.6050251,26.3909001 C55.3803572,26.2803091 55.1439565,26.2250145 54.8958158,26.2250145 C54.5973764,26.2250145 54.3475629,26.3272258 54.1463677,26.5316516 C53.9451726,26.7360774 53.8001466,27.0041727 53.7112855,27.3359457 C53.6224243,27.6677187 53.5779944,28.0531057 53.5779944,28.4921185 L53.5779944,30.2414581 L52.6424417,30.2414581 Z M56.1080104,25.4358009 L57.1089512,25.4358009 L58.5474891,28.9143729 L59.991057,25.4358009 L60.9919977,25.4358009 L58.004265,32.5789379 L57.0234437,32.5789379 L58.0344441,30.0956798 L56.1080104,25.4358009 Z" id="18January" fill="#FFFFFF" fill-rule="nonzero" opacity="0.600000024"></path>
                </g>
            </g>
        </g>
    </g>
</svg>