<?xml version="1.0" encoding="utf-8" ?>
<svg xmlns="http://www.w3.org/2000/svg" xmlns:xlink="http://www.w3.org/1999/xlink" width="149" height="30">
	<defs>
		<clipPath id="clip_0">
			<rect x="-835.76172" y="-3447.6536" width="1360.8092" height="3727.7805" clip-rule="evenodd"/>
		</clipPath>
	</defs>
	<g clip-path="url(#clip_0)">
		<path fill="rgb(206,206,213)" stroke="none" transform="matrix(0.9962 0 0 0.9962 0.0507813 0.19458)" d="M0.216931 19.7136L2.08796 19.4153L2.08796 2.1422L0 1.87103L0.108466 0L13.1786 0L12.8532 5.23347L10.25 5.15212L10.0873 1.87103L6.04696 1.87103L6.04696 9.65344L7.80952 9.65344L8.21627 7.86376L10.0331 7.91799L10.0331 13.287L8.21627 13.287L7.78241 11.4431L6.01984 11.4431L6.01984 19.6865L10.0873 19.6865L10.4669 16.1071L13.2057 16.1885L13.4226 21.6389L0.135582 21.6389L0.216931 19.7136Z"/>
	</g>
	<defs>
		<clipPath id="clip_1">
			<rect x="-835.76172" y="-3447.6536" width="1360.8092" height="3727.7805" clip-rule="evenodd"/>
		</clipPath>
	</defs>
	<g clip-path="url(#clip_1)">
		<path fill="rgb(206,206,213)" stroke="none" transform="matrix(0.9962 0 0 0.9962 14.4766 6.43481)" d="M0.162698 15.4021L0.244048 13.8022L1.70833 13.504L1.70833 2.60317L0 2.44048L0 0.813492L4.28439 0.189815L4.60979 1.11177L4.60979 1.73545C5.64021 0.650794 6.88757 0 8.48743 0C10.8194 0 12.5549 1.41005 12.5549 4.20304L12.5549 13.4769L14.1005 13.7751L14.0192 15.375L8.9213 15.375L8.9213 5.01653C8.9213 3.52513 8.37897 2.68452 7.02315 2.68452C6.56217 2.68452 6.23677 2.76587 5.88426 2.90145C5.66733 3.09127 5.4504 3.36243 5.26058 3.60648L5.26058 13.5311L6.80622 13.8294L6.69775 15.4292L0.162698 15.4292L0.162698 15.4021Z"/>
	</g>
	<defs>
		<clipPath id="clip_2">
			<rect x="-835.76172" y="-3447.6536" width="1360.8092" height="3727.7805" clip-rule="evenodd"/>
		</clipPath>
	</defs>
	<g clip-path="url(#clip_2)">
		<path fill="rgb(206,206,213)" stroke="none" transform="matrix(0.9962 0 0 0.9962 96.0547 6.43481)" d="M0.189815 15.4021L0.244048 13.8022L1.70833 13.504L1.70833 2.60317L0 2.44048L0 0.813492L4.28439 0.189815L4.60979 1.11177L4.60979 1.73545C5.64021 0.650794 6.88757 0 8.48744 0C10.8194 0 12.5549 1.41005 12.5549 4.20304L12.5549 13.4769L14.1005 13.7751L14.0192 15.375L8.94841 15.375L8.94841 5.01653C8.94841 3.52513 8.40609 2.68452 7.05027 2.68452C6.58929 2.68452 6.26389 2.76587 5.91138 2.90145C5.69445 3.09127 5.47751 3.36243 5.2877 3.60648L5.2877 13.5311L6.83333 13.8294L6.72487 15.4292L0.189815 15.4292L0.189815 15.4021Z"/>
	</g>
	<defs>
		<clipPath id="clip_3">
			<rect x="-835.76172" y="-3447.6536" width="1360.8092" height="3727.7805" clip-rule="evenodd"/>
		</clipPath>
	</defs>
	<g clip-path="url(#clip_3)">
		<path fill="rgb(206,206,213)" stroke="none" transform="matrix(0.9962 0 0 0.9962 28.332 3.78735)" d="M8.2705 17.7612C7.67394 18.0053 6.6164 18.2765 5.23347 18.2765C3.41667 18.2765 1.73545 17.463 1.73545 14.8056L1.73545 5.26058L0 4.98942L0.0813492 3.09127L2.03373 3.00992L2.87434 0.108466L5.36905 0L5.36905 3.11839L8.05357 3.11839L7.86376 5.01653L5.39616 5.2877L5.39616 14.8327C5.39616 15.619 5.83003 16.1343 6.64352 16.1343L8.10781 16.1343L8.2705 17.7612Z"/>
	</g>
	<defs>
		<clipPath id="clip_4">
			<rect x="-835.76172" y="-3447.6536" width="1360.8092" height="3727.7805" clip-rule="evenodd"/>
		</clipPath>
	</defs>
	<g clip-path="url(#clip_4)">
		<path fill="rgb(206,206,213)" stroke="none" transform="matrix(0.9962 0 0 0.9962 137.496 6.59668)" d="M0.189815 15.2394L0.244048 13.6667L1.62698 13.3413L1.62698 2.44048L0 2.27778L0 0.650794L4.44709 0.0271164L4.74537 1.08466L4.74537 1.43717C5.91137 0.569444 7.48412 0 9.38227 0L10.0331 0.569444L9.57209 4.69114L7.13161 4.60979L6.88756 2.41336C6.31812 2.49471 5.77579 2.65741 5.31481 2.9828L5.31481 13.3684L6.86045 13.6938L6.75198 15.2665L0.189815 15.2665L0.189815 15.2394Z"/>
	</g>
	<defs>
		<clipPath id="clip_5">
			<rect x="-835.76172" y="-3447.6536" width="1360.8092" height="3727.7805" clip-rule="evenodd"/>
		</clipPath>
	</defs>
	<g clip-path="url(#clip_5)">
		<path fill="rgb(206,206,213)" stroke="none" transform="matrix(0.9962 0 0 0.9962 73.9063 6.59668)" d="M0.162698 15.2394L0.244048 13.6667L1.62698 13.3413L1.62698 2.44048L0 2.27778L0 0.650794L4.44709 0.0271164L4.74537 1.08466L4.74537 1.43717C5.91137 0.569444 7.48412 0 9.38227 0L10.0331 0.569444L9.51785 4.69114L7.07738 4.60979L6.83333 2.41336C6.26389 2.49471 5.72156 2.65741 5.26058 2.9828L5.26058 13.3684L6.80622 13.6938L6.69775 15.2665L0.162698 15.2665L0.162698 15.2394Z"/>
	</g>
	<defs>
		<clipPath id="clip_6">
			<rect x="-835.76172" y="-3447.6536" width="1360.8092" height="3727.7805" clip-rule="evenodd"/>
		</clipPath>
	</defs>
	<g clip-path="url(#clip_6)">
		<path fill="rgb(206,206,213)" stroke="none" transform="matrix(0.9962 0 0 0.9962 37.4883 6.59668)" d="M0.162698 15.2394L0.244048 13.6667L1.62698 13.3413L1.62698 2.44048L0 2.27778L0 0.650794L4.44709 0.0271164L4.74537 1.08466L4.74537 1.43717C5.91138 0.569444 7.48413 0 9.35516 0L10.006 0.569444L9.54498 4.69114L7.1045 4.60979L6.86045 2.41336C6.29101 2.49471 5.74868 2.65741 5.2877 2.9828L5.2877 13.3684L6.83333 13.6938L6.72487 15.2665L0.162698 15.2665L0.162698 15.2394Z"/>
	</g>
	<defs>
		<clipPath id="clip_7">
			<rect x="-835.76172" y="-3447.6536" width="1360.8092" height="3727.7805" clip-rule="evenodd"/>
		</clipPath>
	</defs>
	<g clip-path="url(#clip_7)">
		<path fill="rgb(206,206,213)" stroke="none" transform="matrix(0.9962 0 0 0.9962 47.8359 6.40771)" d="M7.21296 13.3955C4.9623 13.3955 3.82341 11.3889 3.82341 8.78571L11.2533 8.70437L11.6329 7.72817C11.6329 3.66071 10.1415 0 6.18254 0C1.6541 0 0 4.09458 0 7.83664C0 12.2295 2.27778 15.6462 6.23677 15.6462C8.2705 15.6462 9.89749 14.9683 11.0093 14.0734L10.3856 12.6362C9.30093 13.1515 8.37897 13.3955 7.21296 13.3955ZM8.32474 6.83333L3.76918 7.05026C3.76918 5.99272 4.06746 3.74206 4.7996 2.49471C5.34193 2.22354 5.64021 2.1422 6.07407 2.1422C7.86376 2.1422 8.24339 5.01653 8.32474 6.83333Z" fill-rule="evenodd"/>
	</g>
	<defs>
		<clipPath id="clip_8">
			<rect x="-835.76172" y="-3447.6536" width="1360.8092" height="3727.7805" clip-rule="evenodd"/>
		</clipPath>
	</defs>
	<g clip-path="url(#clip_8)">
		<path fill="rgb(206,206,213)" stroke="none" transform="matrix(0.9962 0 0 0.9962 110.617 6.40771)" d="M7.21296 13.3955C4.9623 13.3955 3.82341 11.3889 3.82341 8.78571L11.2533 8.70437L11.6329 7.72817C11.6329 3.66071 10.1415 0 6.18254 0C1.6541 0 0 4.09458 0 7.83664C0 12.2295 2.27778 15.6462 6.23677 15.6462C8.2705 15.6462 9.89749 14.9683 11.0093 14.0734L10.3856 12.6362C9.30093 13.1515 8.37897 13.3955 7.21296 13.3955ZM8.32474 6.83333L3.76918 7.05026C3.76918 5.99272 4.06746 3.74206 4.7996 2.49471C5.34193 2.22354 5.64021 2.1422 6.07407 2.1422C7.86376 2.1422 8.24339 5.01653 8.32474 6.83333Z" fill-rule="evenodd"/>
	</g>
	<defs>
		<clipPath id="clip_9">
			<rect x="-835.76172" y="-3447.6536" width="1360.8092" height="3727.7805" clip-rule="evenodd"/>
		</clipPath>
	</defs>
	<g clip-path="url(#clip_9)">
		<path fill="rgb(206,206,213)" stroke="none" transform="matrix(0.9962 0 0 0.9962 84.2539 6.40771)" d="M7.21296 13.3955C4.9623 13.3955 3.82341 11.3889 3.82341 8.78571L11.2533 8.70437L11.6329 7.72817C11.6329 3.66071 10.1415 0 6.18254 0C1.6541 0 0 4.09458 0 7.83664C0 12.2295 2.27778 15.6462 6.23677 15.6462C8.2705 15.6462 9.89749 14.9683 11.0093 14.0734L10.3856 12.6362C9.30093 13.1515 8.37897 13.3955 7.21296 13.3955ZM8.32474 6.83333L3.76918 7.05026C3.74206 5.99272 4.06746 3.74206 4.7996 2.49471C5.34193 2.22354 5.64021 2.1422 6.07407 2.1422C7.86376 2.1422 8.24339 5.01653 8.32474 6.83333Z" fill-rule="evenodd"/>
	</g>
	<defs>
		<clipPath id="clip_10">
			<rect x="-835.76172" y="-3447.6536" width="1360.8092" height="3727.7805" clip-rule="evenodd"/>
		</clipPath>
	</defs>
	<g clip-path="url(#clip_10)">
		<path fill="rgb(206,206,213)" stroke="none" transform="matrix(0.9962 0 0 0.9962 122.445 6.48877)" d="M10.006 15.3479L9.62632 14.0463C8.62302 14.9954 7.64682 15.5648 6.12831 15.5648C3.7963 15.5648 1.70833 14.3988 1.70833 11.172L1.70833 2.16931L0 2.00661L0 0.569444L4.93518 9.63368e-16L5.31481 1.30159L5.31481 10.7381C5.31481 12.3922 5.99272 13.2599 7.32143 13.2599C7.70106 13.2599 8.18915 13.2057 8.62302 13.043C8.86706 12.7989 9.11111 12.5007 9.30093 12.2024L9.30093 2.16931L7.53836 2.00661L7.53836 0.569444L12.5278 0L12.9074 1.30159L12.9074 13.4497L14.453 13.748L14.2632 15.3479L10.006 15.3479L10.006 15.3479Z"/>
	</g>
	<defs>
		<clipPath id="clip_11">
			<rect x="-835.76172" y="-3447.6536" width="1360.8092" height="3727.7805" clip-rule="evenodd"/>
		</clipPath>
	</defs>
	<g clip-path="url(#clip_11)">
		<path fill="rgb(206,206,213)" stroke="none" transform="matrix(0.9962 0 0 0.9962 59.6172 6.43481)" d="M8.54167 0C11.9312 0 13.287 2.87434 13.287 7.45701C13.287 10.0331 13.2328 15.6462 7.70106 15.6462C6.75198 15.6462 5.88426 15.4292 5.26058 15.0767L5.26058 20.9339L6.80622 21.2321L6.69775 22.7778L0.162698 22.7778L0.244048 21.2321L1.70833 20.9339L1.70833 2.44048L0 2.22355L0 0.650794L4.41997 0.0271164L4.7996 1.3287L4.7996 1.84392C5.23347 1.30159 6.29101 0 8.54167 0ZM5.31482 13.043C5.80291 13.3142 6.42659 13.4497 7.21296 13.4497C7.91799 13.4497 8.51455 13.3142 9.084 13.043C9.21958 12.6362 9.76191 11.6601 9.76191 8.10781C9.76191 4.41997 9.40939 2.35913 7.37566 2.35913C6.88757 2.35913 6.48082 2.41336 6.01984 2.57606C5.77579 2.84722 5.53175 3.1455 5.31482 3.4709L5.31482 13.043Z" fill-rule="evenodd"/>
	</g>

</svg>