<?xml version="1.0" encoding="UTF-8"?>
<svg width="60px" height="60px" viewBox="0 0 60 60" version="1.1" xmlns="http://www.w3.org/2000/svg" xmlns:xlink="http://www.w3.org/1999/xlink">
    <!-- Generator: Sketch 53.2 (72643) - https://sketchapp.com -->
    <title>Group 11</title>
    <desc>Created with Sketch.</desc>
    <g id="Homepage-+-responsive" stroke="none" stroke-width="1" fill="none" fill-rule="evenodd">
        <g id="home" transform="translate(-798.000000, -2244.000000)" fill="#FF9A00">
            <g id="Group-5" transform="translate(798.000000, 2244.000000)">
                <g id="Group-11">
                    <circle id="Oval" opacity="0.200000003" cx="30" cy="30" r="30"></circle>
                    <path d="M27.9428571,18.7142857 C28.4285714,18.8571429 28.7142857,19.4 28.5714286,19.8857143 L26.8571429,25.6285714 C26.7142857,26.1428571 26.1714286,26.4285714 25.6571429,26.2857143 C25.1428571,26.1428571 24.8571429,25.6 25,25.0857143 L26.1142857,21.4285714 C22.5714286,22.9428571 20.1142857,26.4571429 20.1142857,30.5142857 C20.1142857,34.7428571 22.8,38.3714286 26.5428571,39.7714286 C26.9142857,39.9142857 27.1714286,40.2857143 27.1714286,40.6857143 C27.1714286,41.3428571 26.4857143,41.8 25.8571429,41.5714286 C21.4,39.8857143 18.2,35.5714286 18.2,30.5142857 C18.2,25.8 20.9714286,21.7142857 25,19.8571429 L21.6571429,18.8571429 C21.1428571,18.7142857 20.8571429,18.1714286 21,17.6571429 C21.1428571,17.1428571 21.6857143,16.8571429 22.2,17 L27.9428571,18.7142857 Z M38.3714286,42.2 C38.8857143,42.3428571 39.1714286,42.8857143 39.0285714,43.4 C38.8857143,43.9142857 38.3428571,44.2 37.8285714,44.0571429 L32.0857143,42.3428571 C31.5714286,42.2 31.2857143,41.6571429 31.4285714,41.1428571 L33.1428571,35.4 C33.2857143,34.8857143 33.8285714,34.6 34.3428571,34.7428571 C34.8571429,34.8857143 35.1428571,35.4285714 35,35.9428571 L33.8857143,39.6 C37.4285714,38.0857143 39.8857143,34.5714286 39.8857143,30.5142857 C39.8857143,26.2857143 37.2,22.6571429 33.4571429,21.2571429 C33.0857143,21.1142857 32.8285714,20.7428571 32.8285714,20.3428571 C32.8285714,19.6857143 33.5142857,19.2285714 34.1428571,19.4571429 C38.6,21.1428571 41.8,25.4571429 41.8,30.5142857 C41.8,35.2285714 39.0285714,39.3142857 35.0285714,41.2 L38.3714286,42.2 Z" id="Combined-Shape"></path>
                </g>
            </g>
        </g>
    </g>
</svg>