<?xml version="1.0" encoding="UTF-8"?>
<svg width="60px" height="60px" viewBox="0 0 60 60" version="1.1" xmlns="http://www.w3.org/2000/svg" xmlns:xlink="http://www.w3.org/1999/xlink">
    <!-- Generator: Sketch 53.2 (72643) - https://sketchapp.com -->
    <title>Group 11</title>
    <desc>Created with Sketch.</desc>
    <g id="Homepage-+-responsive" stroke="none" stroke-width="1" fill="none" fill-rule="evenodd">
        <g id="contact" transform="translate(-798.000000, -1160.000000)" fill="#FF9A00">
            <g id="Group-13" transform="translate(798.000000, 738.000000)">
                <g id="Group-11" transform="translate(0.000000, 422.000000)">
                    <g>
                        <circle id="Oval" opacity="0.200000003" cx="30" cy="30" r="30"></circle>
                        <g id="noun_like_2434650" transform="translate(17.000000, 18.000000)" fill-rule="nonzero">
                            <g id="Group">
                                <path d="M12.9511798,20.7808513 L22.4562201,11.2758109 C24.6183242,9.11370686 24.6183242,5.60824354 22.4562201,3.44613946 C20.294116,1.28403538 16.7886528,1.28403538 14.6265487,3.44613946 L12.9511798,5.12150835 L11.2758109,3.44613946 C9.11370682,1.28403538 5.60824355,1.28403538 3.44613947,3.44613946 C1.2840354,5.60824354 1.2840354,9.11370686 3.44613947,11.2758109 L12.9511798,20.7808513 Z M12.9511798,23.2547363 L11.6078028,22.0177938 L12.8979626,23.3079535 L12.9511798,23.2547363 Z M12.5659707,2.15597973 L12.9511798,2.54118884 L13.3363889,2.15597973 C16.2110285,-0.718659911 20.8717402,-0.718659911 23.7463799,2.15597973 C26.6210195,5.03061937 26.6210195,9.69133107 23.7463799,12.5659707 L13.004397,23.3079535 L12.9511798,23.2547363 L12.8979626,23.3079535 L2.1559797,12.5659707 C-0.718659899,9.69133107 -0.718659899,5.03061937 2.1559797,2.15597973 C5.03061934,-0.718659911 9.69133103,-0.718659911 12.5659707,2.15597973 Z" id="Shape"></path>
                            </g>
                        </g>
                    </g>
                </g>
            </g>
        </g>
    </g>
</svg>