<?xml version="1.0" encoding="UTF-8"?>
<svg width="60px" height="60px" viewBox="0 0 60 60" version="1.1" xmlns="http://www.w3.org/2000/svg" xmlns:xlink="http://www.w3.org/1999/xlink">
    <!-- Generator: Sketch 53.2 (72643) - https://sketchapp.com -->
    <title>Group 11</title>
    <desc>Created with Sketch.</desc>
    <g id="Homepage-+-responsive" stroke="none" stroke-width="1" fill="none" fill-rule="evenodd">
        <g id="home" transform="translate(-653.000000, -1314.000000)" fill="#00C4D1">
            <g id="Group-11" transform="translate(653.000000, 1314.000000)">
                <circle id="Oval" opacity="0.200000003" cx="30" cy="30" r="30"></circle>
                <path d="M29.9928433,36.0716312 C26.4445929,36.0716312 23.5737358,33.1996454 23.5737358,29.65 C23.5737358,26.1003546 26.4768498,23.2283688 29.9928433,23.2283688 C33.5088369,23.2283688 36.4119508,26.1003546 36.4119508,29.65 C36.4119508,33.1996454 33.5410937,36.0716312 29.9928433,36.0716312 Z M29.9928433,24.5191489 C27.154243,24.5191489 24.8640087,26.8102837 24.8640087,29.65 C24.8640087,32.4897163 27.1864998,34.7808511 29.9928433,34.7808511 C32.7991868,34.7808511 35.1216779,32.4897163 35.1216779,29.65 C35.1216779,26.8102837 32.8314436,24.5191489 29.9928433,24.5191489 Z M17.2836556,34.8776596 C16.7675465,33.9741135 16.9933442,32.8769504 17.8320216,32.2638298 L18.9932672,31.4570922 C18.8964967,30.8439716 18.831983,30.2631206 18.831983,29.65 C18.831983,29.0368794 18.8964967,28.4237589 18.9932672,27.8429078 L17.8320216,27.0361702 C16.9933442,26.4230496 16.7675465,25.3258865 17.2513988,24.4223404 L19.0900376,21.2599291 C19.6061468,20.356383 20.7028787,20.0336879 21.6383265,20.4531915 L22.9285994,21.0340426 C23.8640472,20.2595745 24.9285223,19.6464539 26.0575111,19.2269504 L26.1865384,17.8070922 C26.2833088,16.7744681 27.1219862,16 28.1542045,16 L31.7992253,16 C32.8314436,16 33.670121,16.7744681 33.7668914,17.8070922 L33.8959187,19.2269504 C35.0249075,19.6464539 36.0893826,20.2595745 37.0248304,21.0340426 L38.3151033,20.4531915 C39.2505511,20.0336879 40.347283,20.356383 40.8633922,21.2599291 L42.702031,24.4223404 C43.2181402,25.3258865 42.9600856,26.4553191 42.1214082,27.0361702 L40.9601626,27.8429078 C41.0569331,28.4560284 41.1214468,29.0368794 41.1214468,29.65 C41.1214468,30.2631206 41.0569331,30.8762411 40.9601626,31.4570922 L42.153665,32.2638298 C42.9923424,32.8446809 43.250397,33.9741135 42.7342878,34.8776596 L40.895649,38.0400709 C40.3795399,38.943617 39.2828079,39.2663121 38.3473601,38.8468085 L37.0570872,38.2659574 C36.1216394,39.0404255 35.0571643,39.6535461 33.9281755,40.0730496 L33.7991483,41.4929078 C33.7023778,42.5255319 32.8637004,43.3 31.8314821,43.3 L28.1864613,43.3 C27.154243,43.3 26.3155657,42.5255319 26.2187952,41.4929078 L26.0897679,40.0730496 C24.9607791,39.6535461 23.896304,39.0404255 22.9608562,38.2659574 L21.6705833,38.8468085 C20.7351355,39.2663121 19.6384036,38.943617 19.1222944,38.0400709 L17.2836556,34.8776596 Z M18.6061853,33.3287234 C18.2836171,33.5223404 18.2191034,33.941844 18.3803875,34.2322695 L20.2512832,37.3946809 C20.4448241,37.7173759 20.831906,37.8464539 21.1544742,37.6851064 L23.186654,36.7492908 L23.5092222,37.0397163 C24.5091836,37.9109929 25.6381724,38.5886525 26.8961884,39.008156 L27.2832703,39.137234 L27.4768112,41.3960993 C27.509068,41.7833333 27.7993794,42.0414894 28.1542045,42.0414894 L31.863739,42.0414894 C32.218564,42.0414894 32.5088754,41.7510638 32.5411322,41.3960993 L32.7346731,39.137234 L33.121755,39.008156 C34.379771,38.5886525 35.5087598,37.9109929 36.5087213,37.0397163 L36.8312895,36.7492908 L38.8634692,37.6851064 C39.2182943,37.8141844 39.5731193,37.7173759 39.7666602,37.3946809 L41.5407854,34.2322695 C41.7343264,33.941844 41.6375559,33.5223404 41.3472445,33.3287234 L39.5086057,32.0379433 L39.6053761,31.6184397 C39.7344034,30.9730496 39.7989171,30.3276596 39.7989171,29.65 C39.7989171,28.9723404 39.7344034,28.3269504 39.6053761,27.6815603 L39.5086057,27.2620567 L41.3472445,25.9712766 C41.6375559,25.7776596 41.7343264,25.3904255 41.5407854,25.0677305 L39.7021466,21.9053191 C39.5086057,21.5826241 39.1215238,21.4535461 38.7989556,21.6148936 L36.7667758,22.5507092 L36.4442076,22.2602837 C35.4442462,21.3890071 34.3152574,20.7113475 33.0572414,20.291844 L32.6701595,20.162766 L32.4766186,17.9039007 C32.4443617,17.5166667 32.1540504,17.2585106 31.7992253,17.2585106 L28.1542045,17.2585106 C27.7993794,17.2585106 27.509068,17.5489362 27.4768112,17.9039007 L27.2832703,20.162766 L26.8961884,20.291844 C25.6381724,20.7113475 24.5091836,21.3890071 23.5092222,22.2602837 L23.186654,22.5507092 L21.1544742,21.6148936 C20.7996492,21.4858156 20.4448241,21.5826241 20.2512832,21.9053191 L18.4126444,25.0677305 C18.2191034,25.358156 18.3158739,25.7776596 18.6061853,25.9712766 L20.4448241,27.2620567 L20.3480537,27.6815603 C20.2190264,28.3269504 20.1545127,28.9723404 20.1545127,29.65 C20.1545127,30.3276596 20.2190264,30.9730496 20.3480537,31.6184397 L20.4448241,32.0379433 L18.6061853,33.3287234 Z" id="Combined-Shape" fill-rule="nonzero"></path>
            </g>
        </g>
    </g>
</svg>