<?xml version="1.0" encoding="UTF-8"?>
<svg width="90px" height="90px" viewBox="0 0 90 90" version="1.1" xmlns="http://www.w3.org/2000/svg" xmlns:xlink="http://www.w3.org/1999/xlink">
    <!-- Generator: Sketch 53.2 (72643) - https://sketchapp.com -->
    <title>noun_video play_2389249</title>
    <desc>Created with Sketch.</desc>
    <defs>
        <path d="M35.0000438,8.74999998e-05 C15.691725,8.74999998e-05 4.37500042e-05,15.7063667 4.37500042e-05,35.0000875 C4.37500042e-05,54.3085812 15.691725,69.9999125 35.0000438,69.9999125 C54.2937646,69.9999125 70.0000438,54.3085812 70.0000438,35.0000875 C70.0000438,15.7063667 54.2937646,8.74999998e-05 35.0000438,8.74999998e-05 Z M48.6210083,36.7647875 L27.6061917,48.1106646 C26.2646417,48.8248833 24.6457313,47.8625 24.6457313,46.3461396 L24.6457313,23.6688083 C24.6457313,22.1522583 26.2646417,21.1751167 27.6061917,21.9042833 L48.6210083,33.2353875 C50.02095,33.99375 50.02095,36.006425 48.6210083,36.7647875 Z" id="path-1"></path>
        <filter x="-22.9%" y="-20.0%" width="145.7%" height="145.7%" filterUnits="objectBoundingBox" id="filter-2">
            <feOffset dx="0" dy="2" in="SourceAlpha" result="shadowOffsetOuter1"></feOffset>
            <feGaussianBlur stdDeviation="5" in="shadowOffsetOuter1" result="shadowBlurOuter1"></feGaussianBlur>
            <feColorMatrix values="0 0 0 0 0.00770266099   0 0 0 0 0.0310461206   0 0 0 0 0.106912364  0 0 0 0.0320968094 0" type="matrix" in="shadowBlurOuter1"></feColorMatrix>
        </filter>
    </defs>
    <g id="Homepage-+-responsive" stroke="none" stroke-width="1" fill="none" fill-rule="evenodd">
        <g id="home" transform="translate(-888.000000, -1796.000000)" fill-rule="nonzero">
            <g id="noun_video-play_2389249" transform="translate(898.000000, 1804.000000)">
                <g id="Shape">
                    <use fill="black" fill-opacity="1" filter="url(#filter-2)" xlink:href="#path-1"></use>
                    <use fill="#FFFFFF" xlink:href="#path-1"></use>
                </g>
            </g>
        </g>
    </g>
</svg>
