<?xml version="1.0" encoding="UTF-8"?>
<svg width="60px" height="60px" viewBox="0 0 60 60" version="1.1" xmlns="http://www.w3.org/2000/svg" xmlns:xlink="http://www.w3.org/1999/xlink">
    <!-- Generator: Sketch 53.2 (72643) - https://sketchapp.com -->
    <title>Group 11</title>
    <desc>Created with Sketch.</desc>
    <g id="Homepage-+-responsive" stroke="none" stroke-width="1" fill="none" fill-rule="evenodd">
        <g id="contact" transform="translate(-798.000000, -949.000000)" fill="#5579F3">
            <g id="Group-13" transform="translate(798.000000, 738.000000)">
                <g id="Group-6" transform="translate(0.000000, 211.000000)">
                    <g id="Group-11">
                        <circle id="Oval" opacity="0.200000003" cx="30" cy="30" r="30"></circle>
                        <path d="M23.0625,35.784375 L25.9722656,35.784375 C25.9925782,36.7695362 26.4419878,37.6505821 27.3205078,38.4275391 C28.1990278,39.2044961 29.2882748,39.5929687 30.5882813,39.5929687 C31.8781314,39.5929687 32.8886682,39.2908233 33.6199219,38.6865234 C34.3511755,38.0822235 34.7828118,37.3332076 34.9148438,36.4394531 C34.9960942,35.3831978 34.6863316,34.5402375 33.9855469,33.9105469 C33.2847621,33.2808562 32.3808649,32.8492199 31.2738281,32.615625 L28.5011719,31.9148438 C25.0074044,31.0312456 23.2605469,29.1625143 23.2605469,26.3085938 C23.2605469,24.6734293 23.8622987,23.3074274 25.0658203,22.2105469 C26.269342,21.1136664 27.7343664,20.4839852 29.4609375,20.3214844 L29.4609375,17.1984375 L31.3957031,17.1984375 L31.3957031,20.3519531 C33.1019617,20.5753917 34.4857369,21.2406195 35.5470703,22.3476562 C36.6084037,23.454693 37.1390625,24.8562415 37.1390625,26.5523437 L34.2292969,26.5523437 C34.2292969,25.4960885 33.8509803,24.645511 33.0943359,24.0005859 C32.3376915,23.3556608 31.3652403,23.0332031 30.1769531,23.0332031 C29.0902289,23.0332031 28.1482462,23.3353485 27.3509766,23.9396484 C26.553707,24.5439483 26.1550781,25.3234327 26.1550781,26.278125 C26.1550781,27.7711012 27.175771,28.7664038 29.2171875,29.2640625 L32.0203125,29.9496094 C34.061729,30.477737 35.5826122,31.3130802 36.5830078,32.4556641 C37.5834034,33.5982479 37.9769542,35.0124916 37.7636719,36.6984375 C37.5808585,38.20157 36.9232478,39.4736276 35.7908203,40.5146484 C34.6583928,41.5556693 33.1933684,42.1421868 31.3957031,42.2742188 L31.3957031,45.7171875 L29.4609375,45.7171875 L29.4609375,42.24375 C27.5921782,42.0101551 26.0585997,41.2712953 24.8601562,40.0271484 C23.6617128,38.7830016 23.0625,37.3687579 23.0625,35.784375 Z" id="$"></path>
                    </g>
                </g>
            </g>
        </g>
    </g>
</svg>