<?xml version="1.0" encoding="UTF-8"?>
<svg width="175px" height="50px" viewBox="0 0 175 50" version="1.1" xmlns="http://www.w3.org/2000/svg" xmlns:xlink="http://www.w3.org/1999/xlink">
    <!-- Generator: Sketch 53.2 (72643) - https://sketchapp.com -->
    <title>shopify_logo_whitebg</title>
    <desc>Created with Sketch.</desc>
    <g id="Homepage-+-responsive" stroke="none" stroke-width="1" fill="none" fill-rule="evenodd">
        <g id="home" transform="translate(-446.000000, -2785.000000)">
            <g id="Group-37" transform="translate(446.000000, 2783.000000)">
                <g id="shopify_logo_whitebg" transform="translate(0.000000, 2.000000)">
                    <g id="Group">
                        <path d="M37.5524476,9.51048951 C37.5174825,9.26573427 37.3076923,9.12587413 37.1328671,9.12587413 C36.958042,9.12587413 33.2167832,8.84615385 33.2167832,8.84615385 C33.2167832,8.84615385 30.6293706,6.25874126 30.3146853,5.97902098 C30.034965,5.6993007 29.4755245,5.76923077 29.2657343,5.83916084 C29.2307692,5.83916084 28.7062937,6.01398601 27.7972028,6.29370629 C26.9230769,3.74125874 25.3846154,1.43356643 22.6923077,1.43356643 C22.6223776,1.43356643 22.5524476,1.43356643 22.4475524,1.43356643 C21.7132867,0.454545455 20.7342657,0 19.9300699,0 C13.6363636,0 10.6293706,7.86713287 9.68531469,11.8531469 C7.23776224,12.6223776 5.48951049,13.1468531 5.27972028,13.2167832 C3.91608392,13.6363636 3.88111888,13.6713287 3.70629371,14.965035 C3.56643357,15.9440559 0,43.5664336 0,43.5664336 L27.7972028,48.7762238 L42.8671329,45.5244755 C42.8671329,45.4895105 37.5874126,9.75524476 37.5524476,9.51048951 Z M26.2587413,6.71328671 C25.5594406,6.92307692 24.7552448,7.16783217 23.9160839,7.44755245 C23.9160839,7.27272727 23.9160839,7.13286713 23.9160839,6.92307692 C23.9160839,5.38461538 23.7062937,4.12587413 23.3566434,3.11188811 C24.7552448,3.32167832 25.6643357,4.8951049 26.2587413,6.71328671 Z M21.6083916,3.46153846 C21.993007,4.44055944 22.2377622,5.8041958 22.2377622,7.69230769 C22.2377622,7.7972028 22.2377622,7.86713287 22.2377622,7.97202797 C20.6993007,8.46153846 19.0559441,8.95104895 17.3776224,9.47552448 C18.3216783,5.87412587 20.1048951,4.12587413 21.6083916,3.46153846 Z M19.7552448,1.67832168 C20.034965,1.67832168 20.3146853,1.78321678 20.5594406,1.95804196 C18.5314685,2.9020979 16.3986014,5.27972028 15.4895105,10.0699301 C14.1608392,10.4895105 12.8671329,10.8741259 11.6433566,11.2587413 C12.6923077,7.62237762 15.2447552,1.67832168 19.7552448,1.67832168 Z" id="Shape" fill="#95BF47" fill-rule="nonzero"></path>
                        <path d="M37.1328671,9.09090909 C36.958042,9.09090909 33.2167832,8.81118881 33.2167832,8.81118881 C33.2167832,8.81118881 30.6293706,6.22377622 30.3146853,5.94405594 C30.2097902,5.83916084 30.0699301,5.76923077 29.9300699,5.76923077 L27.8321678,48.7762238 L42.9020979,45.5244755 C42.9020979,45.5244755 37.6223776,9.75524476 37.5874126,9.51048951 C37.5174825,9.26573427 37.3076923,9.12587413 37.1328671,9.09090909 Z" id="Path" fill="#5E8E3E"></path>
                        <path d="M22.6923077,17.4125874 L20.8391608,22.9370629 C20.8391608,22.9370629 19.1958042,22.0629371 17.2027972,22.0629371 C14.2657343,22.0629371 14.1258741,23.9160839 14.1258741,24.3706294 C14.1258741,26.8881119 20.6993007,27.8671329 20.6993007,33.7762238 C20.6993007,38.4265734 17.7622378,41.4335664 13.7762238,41.4335664 C8.98601399,41.4335664 6.57342657,38.4615385 6.57342657,38.4615385 L7.86713287,34.2307692 C7.86713287,34.2307692 10.3846154,36.3986014 12.4825175,36.3986014 C13.8811189,36.3986014 14.4405594,35.3146853 14.4405594,34.5104895 C14.4405594,31.2237762 9.05594406,31.0839161 9.05594406,25.6643357 C9.05594406,21.1188811 12.3076923,16.7132867 18.9160839,16.7132867 C21.4335664,16.6783217 22.6923077,17.4125874 22.6923077,17.4125874 Z" id="Path" fill="#FFFFFF"></path>
                    </g>
                    <path d="M60.4545455,27.7972028 C58.951049,26.993007 58.1818182,26.2937063 58.1818182,25.3496503 C58.1818182,24.1608392 59.2657343,23.3916084 60.9440559,23.3916084 C62.9020979,23.3916084 64.6503497,24.1958042 64.6503497,24.1958042 L66.013986,20 C66.013986,20 64.7552448,19.020979 61.048951,19.020979 C55.8741259,19.020979 52.2727273,21.993007 52.2727273,26.1538462 C52.2727273,28.5314685 53.951049,30.3146853 56.1888112,31.6083916 C58.006993,32.6223776 58.6363636,33.3566434 58.6363636,34.4405594 C58.6363636,35.5594406 57.7272727,36.4685315 56.048951,36.4685315 C53.5664336,36.4685315 51.1888112,35.1748252 51.1888112,35.1748252 L49.7202797,39.3706294 C49.7202797,39.3706294 51.8881119,40.8391608 55.5594406,40.8391608 C60.8741259,40.8391608 64.7202797,38.2167832 64.7202797,33.4965035 C64.6853147,30.9090909 62.7622378,29.1258741 60.4545455,27.7972028 Z" id="s" fill="#000000"></path>
                    <path d="M81.6433566,18.951049 C79.020979,18.951049 76.958042,20.2097902 75.3846154,22.0979021 L75.3146853,22.0629371 L77.5874126,10.1748252 L71.6783217,10.1748252 L65.9090909,40.4545455 L71.8181818,40.4545455 L73.7762238,30.1048951 C74.5454545,26.1888112 76.5734266,23.7762238 78.4615385,23.7762238 C79.7902098,23.7762238 80.3146853,24.6853147 80.3146853,25.979021 C80.3146853,26.7832168 80.2447552,27.7972028 80.0699301,28.6013986 L77.8321678,40.4545455 L83.7412587,40.4545455 L86.048951,28.2167832 C86.2937063,26.9230769 86.4685315,25.3846154 86.4685315,24.3356643 C86.5034965,20.9440559 84.7552448,18.951049 81.6433566,18.951049 Z" id="h" fill="#000000"></path>
                    <path d="M99.8951049,18.951049 C92.7622378,18.951049 88.041958,25.3846154 88.041958,32.5524476 C88.041958,37.1328671 90.8741259,40.8391608 96.1888112,40.8391608 C103.181818,40.8391608 107.902098,34.5804196 107.902098,27.2377622 C107.937063,22.972028 105.454545,18.951049 99.8951049,18.951049 Z M96.993007,36.2937063 C94.965035,36.2937063 94.1258741,34.5804196 94.1258741,32.4125874 C94.1258741,29.020979 95.8741259,23.4965035 99.0909091,23.4965035 C101.188811,23.4965035 101.888112,25.3146853 101.888112,27.0629371 C101.888112,30.6993007 100.104895,36.2937063 96.993007,36.2937063 Z" id="o" fill="#000000" fill-rule="nonzero"></path>
                    <path d="M123.076923,18.951049 C119.090909,18.951049 116.818182,22.4825175 116.818182,22.4825175 L116.748252,22.4825175 L117.097902,19.3006993 L111.853147,19.3006993 C111.608392,21.4335664 111.118881,24.7202797 110.664336,27.1678322 L106.538462,48.8461538 L112.447552,48.8461538 L114.090909,40.0699301 L114.230769,40.0699301 C114.230769,40.0699301 115.454545,40.8391608 117.692308,40.8391608 C124.65035,40.8391608 129.195804,33.7062937 129.195804,26.5034965 C129.195804,22.5174825 127.412587,18.951049 123.076923,18.951049 Z M117.412587,36.3636364 C115.874126,36.3636364 114.965035,35.4895105 114.965035,35.4895105 L115.944056,29.965035 C116.643357,26.2587413 118.566434,23.8111888 120.629371,23.8111888 C122.447552,23.8111888 123.006993,25.4895105 123.006993,27.0629371 C123.006993,30.9090909 120.734266,36.3636364 117.412587,36.3636364 Z" id="p" fill="#000000" fill-rule="nonzero"></path>
                    <path d="M137.657343,10.4545455 C135.769231,10.4545455 134.265734,11.958042 134.265734,13.8811189 C134.265734,15.6293706 135.384615,16.8531469 137.062937,16.8531469 L137.132867,16.8531469 C138.986014,16.8531469 140.559441,15.5944056 140.594406,13.4265734 C140.594406,11.6783217 139.440559,10.4545455 137.657343,10.4545455 Z" id="dot" fill="#000000"></path>
                    <polygon id="i" fill="#000000" points="129.370629 40.4195804 135.27972 40.4195804 139.300699 19.4055944 133.356643 19.4055944"></polygon>
                    <path d="M154.370629,19.3706294 L150.244755,19.3706294 L150.454545,18.3916084 C150.804196,16.3636364 151.993007,14.5804196 153.986014,14.5804196 C155.034965,14.5804196 155.874126,14.8951049 155.874126,14.8951049 L157.027972,10.2447552 C157.027972,10.2447552 156.013986,9.72027972 153.811189,9.72027972 C151.713287,9.72027972 149.615385,10.3146853 148.006993,11.6783217 C145.979021,13.3916084 145.034965,15.8741259 144.58042,18.3916084 L144.405594,19.3706294 L141.643357,19.3706294 L140.769231,23.8461538 L143.531469,23.8461538 L140.384615,40.4195804 L146.293706,40.4195804 L149.440559,23.8461538 L153.531469,23.8461538 L154.370629,19.3706294 Z" id="f" fill="#000000"></path>
                    <path d="M168.636364,19.4055944 C168.636364,19.4055944 164.93007,28.7412587 163.286713,33.8461538 L163.216783,33.8461538 C163.111888,32.2027972 161.748252,19.4055944 161.748252,19.4055944 L155.524476,19.4055944 L159.090909,38.6713287 C159.160839,39.0909091 159.125874,39.3706294 158.951049,39.6503497 C158.251748,40.979021 157.097902,42.2727273 155.734266,43.2167832 C154.615385,44.020979 153.356643,44.5454545 152.377622,44.8951049 L154.020979,49.9300699 C155.20979,49.6853147 157.727273,48.6713287 159.825175,46.7132867 C162.517483,44.1958042 165.034965,40.2797203 167.587413,34.965035 L174.825175,19.4055944 L168.636364,19.4055944 Z" id="y" fill="#000000"></path>
                </g>
            </g>
        </g>
    </g>
</svg>