<?xml version="1.0" encoding="utf-8" ?>
<svg xmlns="http://www.w3.org/2000/svg" xmlns:xlink="http://www.w3.org/1999/xlink" width="237" height="50">
	<defs>
		<clipPath id="clip_0">
			<rect x="-98" y="-3591" width="1366" height="3742" clip-rule="evenodd"/>
		</clipPath>
	</defs>
	<g clip-path="url(#clip_0)">
		<path fill="rgb(85,121,243)" fill-opacity="0.43921569" stroke="none" transform="translate(76.1836 26.196)" d="M0 0L11.3846 0L11.3846 11.3846L0 11.3846L0 0Z"/>
	</g>
	<defs>
		<clipPath id="clip_1">
			<rect x="-98" y="-3591" width="1366" height="3742" clip-rule="evenodd"/>
		</clipPath>
	</defs>
	<g clip-path="url(#clip_1)">
		<path fill="rgb(85,121,243)" stroke="none" transform="translate(37.2695 12.4307)" d="M0 0L6.49808 0L6.49808 11.3846L0 11.3846L0 0Z"/>
	</g>
	<defs>
		<clipPath id="clip_2">
			<rect x="-98" y="-3591" width="1366" height="3742" clip-rule="evenodd"/>
		</clipPath>
	</defs>
	<g clip-path="url(#clip_2)">
		<path fill="rgb(85,121,243)" stroke="none" transform="translate(37.375 0.0114746)" d="M0 0L11.3846 0L11.3846 11.3846L0 11.3846L0 0Z"/>
	</g>
	<defs>
		<clipPath id="clip_3">
			<rect x="-98" y="-3591" width="1366" height="3742" clip-rule="evenodd"/>
		</clipPath>
	</defs>
	<g clip-path="url(#clip_3)">
		<path fill="rgb(85,121,243)" stroke="none" transform="translate(63.7656 12.4307)" d="M0 0L11.3846 0L11.3846 11.3846L0 11.3846L0 0Z"/>
	</g>
	<defs>
		<clipPath id="clip_4">
			<rect x="-98" y="-3591" width="1366" height="3742" clip-rule="evenodd"/>
		</clipPath>
	</defs>
	<g clip-path="url(#clip_4)">
		<path fill="rgb(85,121,243)" fill-opacity="0.43921569" stroke="none" transform="translate(0.0117188 12.4307)" d="M0 0L11.3846 0L11.3846 11.3846L0 11.3846L0 0Z"/>
	</g>
	<defs>
		<clipPath id="clip_5">
			<rect x="-98" y="-3591" width="1366" height="3742" clip-rule="evenodd"/>
		</clipPath>
	</defs>
	<g clip-path="url(#clip_5)">
		<path fill="rgb(85,121,243)" stroke="none" transform="translate(12.4297 24.8501)" d="M0 0L11.3846 0L11.3846 11.3846L0 11.3846L0 0Z"/>
	</g>
	<defs>
		<clipPath id="clip_6">
			<rect x="-98" y="-3591" width="1366" height="3742" clip-rule="evenodd"/>
		</clipPath>
	</defs>
	<g clip-path="url(#clip_6)">
		<path fill="rgb(85,121,243)" fill-opacity="0.29803923" stroke="none" transform="translate(24.8516 12.4307)" d="M0 0L11.3846 0L11.3846 11.3846L0 11.3846L0 0Z"/>
	</g>
	<defs>
		<clipPath id="clip_7">
			<rect x="-98" y="-3591" width="1366" height="3742" clip-rule="evenodd"/>
		</clipPath>
	</defs>
	<g clip-path="url(#clip_7)">
		<path fill="rgb(85,121,243)" stroke="none" transform="translate(24.8516 24.8501)" d="M0 0L11.3846 0L11.3846 11.3846L0 11.3846L0 0Z"/>
	</g>
	<defs>
		<clipPath id="clip_8">
			<rect x="-98" y="-3591" width="1366" height="3742" clip-rule="evenodd"/>
		</clipPath>
	</defs>
	<g clip-path="url(#clip_8)">
		<path fill="rgb(85,121,243)" fill-opacity="0.43921569" stroke="none" transform="translate(24.8516 37.2693)" d="M0 0L11.3846 0L11.3846 11.3846L0 11.3846L0 0Z"/>
	</g>
	<defs>
		<clipPath id="clip_9">
			<rect x="-98" y="-3591" width="1366" height="3742" clip-rule="evenodd"/>
		</clipPath>
	</defs>
	<g clip-path="url(#clip_9)">
		<path fill="rgb(85,121,243)" stroke="none" transform="translate(63.7656 38.6155)" d="M0 0L11.3846 0L11.3846 11.3846L0 11.3846L0 0Z"/>
	</g>
	<defs>
		<clipPath id="clip_10">
			<rect x="-98" y="-3591" width="1366" height="3742" clip-rule="evenodd"/>
		</clipPath>
	</defs>
	<g clip-path="url(#clip_10)">
		<path fill="rgb(85,121,243)" fill-opacity="0.43921569" stroke="none" transform="translate(76.082 0.0114746)" d="M0 0L11.3846 0L11.3846 11.3846L0 11.3846L0 0Z"/>
	</g>
	<defs>
		<clipPath id="clip_11">
			<rect x="-98" y="-3591" width="1366" height="3742" clip-rule="evenodd"/>
		</clipPath>
	</defs>
	<g clip-path="url(#clip_11)">
		<path fill="rgb(85,121,243)" fill-opacity="0.29803923" stroke="none" transform="translate(88.6055 13.6731)" d="M0 0L11.3846 0L11.3846 11.3846L0 11.3846L0 0Z"/>
	</g>
	<defs>
		<clipPath id="clip_12">
			<rect x="-98" y="-3591" width="1366" height="3742" clip-rule="evenodd"/>
		</clipPath>
	</defs>
	<g clip-path="url(#clip_12)">
		<path fill="rgb(85,121,243)" fill-opacity="0.15686275" stroke="none" transform="translate(88.6055 26.196)" d="M0 0L11.3846 0L11.3846 11.3846L0 11.3846L0 0Z"/>
	</g>
	<defs>
		<clipPath id="clip_13">
			<rect x="-98" y="-3591" width="1366" height="3742" clip-rule="evenodd"/>
		</clipPath>
	</defs>
	<g clip-path="url(#clip_13)">
		<path fill="rgb(255,255,255)" stroke="none" transform="translate(44.7031 4.16626)" d="M37.4346 22.03C37.125 23.4473 36.2269 24.6666 34.9654 25.3819L30.7596 27.8108L19.2615 34.4492L18.3404 34.9819L7.77692 41.0819C4.31923 43.0781 0 40.5819 0 36.5916L0 5.19348C0 2.28194 2.3 0.164629 4.88654 0.00886011C5.89808 -0.0507553 6.90385 0.191552 7.77692 0.703091L23.2058 9.61078L29.7269 13.3762L34.9673 16.4012C36.9365 17.53 37.9385 19.8146 37.4346 22.03Z"/>
	</g>
	<defs>
		<clipPath id="clip_14">
			<rect x="-98" y="-3591" width="1366" height="3742" clip-rule="evenodd"/>
		</clipPath>
	</defs>
	<g clip-path="url(#clip_14)">
		<path fill="rgb(255,255,255)" stroke="none" transform="translate(43.9258 3.39014)" d="M2.98077 42.5292C3.91346 43.0676 4.93846 43.3369 5.96154 43.3369C6.98654 43.3369 8.00961 43.0676 8.94231 42.5292L36.1269 26.833C37.5769 26.01 38.6115 24.6042 38.9692 22.9753C39.55 20.4119 38.4096 17.8119 36.1308 16.5061L24.3712 9.7138L8.94615 0.808029C7.93654 0.217644 6.78654 -0.057356 5.61731 0.00995173C2.46731 0.200336 0 2.81764 0 5.96957L0 37.3657C0 39.5215 1.11346 41.4523 2.98077 42.5292ZM5.70769 1.55995C5.79423 1.55418 5.87885 1.55226 5.96346 1.55226C6.73654 1.55226 7.49231 1.75803 8.16538 2.15034L35.3558 17.8503C37.0423 18.8157 37.8846 20.7388 37.4538 22.633L37.4519 22.6388C37.1904 23.8388 36.4269 24.8753 35.3538 25.485L8.16538 41.183C6.78461 41.9811 5.13654 41.9792 3.75577 41.183C2.37692 40.3869 1.55192 38.96 1.55192 37.3657L1.55192 5.96957C1.55192 3.36572 3.66538 1.68303 5.70769 1.55995Z" fill-rule="evenodd"/>
	</g>
	<defs>
		<clipPath id="clip_15">
			<rect x="-98" y="-3591" width="1366" height="3742" clip-rule="evenodd"/>
		</clipPath>
		<linearGradient id="gradient_0" gradientUnits="userSpaceOnUse" x1="-9.1058655" y1="6.1248412" x2="16.352385" y2="26.771494">
			<stop offset="0" stop-color="rgb(230,236,253)" stop-opacity="0.32941177"/>
			<stop offset="0.36219999" stop-color="rgb(139,164,247)" stop-opacity="0.61960787"/>
			<stop offset="0.62120003" stop-color="rgb(115,145,245)" stop-opacity="0.84705883"/>
			<stop offset="0.75029999" stop-color="rgb(108,139,245)" stop-opacity="0.96078432"/>
			<stop offset="0.8664" stop-color="rgb(95,129,244)" stop-opacity="0.99607843"/>
			<stop offset="1" stop-color="rgb(85,121,243)"/>
		</linearGradient>
	</defs>
	<g clip-path="url(#clip_15)">
		<path fill="url(#gradient_0)" stroke="none" transform="translate(44.7031 4.16626)" d="M37.4346 22.03C37.125 23.4473 36.2269 24.6666 34.9654 25.3819L30.7596 27.8108L19.2615 34.4492L18.3404 34.9819L7.77692 41.0819C4.31923 43.0781 0 40.5819 0 36.5916L0 5.19348C0 2.28194 2.3 0.164629 4.88654 0.00886011C5.89808 -0.0507553 6.90385 0.191552 7.77692 0.703091L23.2058 9.61078L29.7269 13.3762L34.9673 16.4012C36.9365 17.53 37.9385 19.8146 37.4346 22.03Z"/>
	</g>
	<defs>
		<clipPath id="clip_16">
			<rect x="-98" y="-3591" width="1366" height="3742" clip-rule="evenodd"/>
		</clipPath>
	</defs>
	<g clip-path="url(#clip_16)">
		<path fill="rgb(255,255,255)" stroke="none" transform="translate(43.9258 3.39014)" d="M2.98077 42.5292C3.91346 43.0676 4.93846 43.3369 5.96154 43.3369C6.98654 43.3369 8.00961 43.0676 8.94231 42.5292L36.1269 26.833C37.5769 26.01 38.6115 24.6042 38.9692 22.9753C39.55 20.4119 38.4096 17.8119 36.1308 16.5061L24.3712 9.7138L8.94615 0.808029C7.93654 0.217644 6.78654 -0.057356 5.61731 0.00995173C2.46731 0.200336 0 2.81764 0 5.96957L0 37.3657C0 39.5215 1.11346 41.4523 2.98077 42.5292ZM5.70769 1.55995C5.79423 1.55418 5.87885 1.55226 5.96346 1.55226C6.73654 1.55226 7.49231 1.75803 8.16538 2.15034L35.3558 17.8503C37.0423 18.8157 37.8846 20.7388 37.4538 22.633L37.4519 22.6388C37.1904 23.8388 36.4269 24.8753 35.3538 25.485L8.16538 41.183C6.78461 41.9811 5.13654 41.9792 3.75577 41.183C2.37692 40.3869 1.55192 38.96 1.55192 37.3657L1.55192 5.96957C1.55192 3.36572 3.66538 1.68303 5.70769 1.55995Z" fill-rule="evenodd"/>
	</g>
	<defs>
		<clipPath id="clip_17">
			<rect x="-98" y="-3591" width="1366" height="3742" clip-rule="evenodd"/>
		</clipPath>
	</defs>
	<g clip-path="url(#clip_17)">
		<path fill="rgb(53,65,104)" stroke="none" transform="translate(108.879 19.0645)" d="M2.93945 9.89258L0 9.89258C0 11.1426 0.460607 12.1663 1.38184 12.9639C2.30306 13.7614 3.50911 14.1602 5 14.1602C5.625 14.1602 6.22558 14.0755 6.80176 13.9063C7.37793 13.737 7.90202 13.4928 8.37402 13.1738C8.84603 12.8548 9.22689 12.4316 9.5166 11.9043C9.80632 11.377 9.95443 10.7813 9.96094 10.1172C10.0195 8.08593 8.75978 6.69922 6.18164 5.95703L4.54102 5.43945C3.55143 5.1595 3.05664 4.69076 3.05664 4.0332C3.05664 3.62956 3.22591 3.29915 3.56445 3.04199C3.903 2.78483 4.32942 2.65625 4.84375 2.65625C5.41016 2.65625 5.84798 2.79948 6.15723 3.08594C6.46647 3.3724 6.62109 3.75 6.62109 4.21875L9.54102 4.21875C9.54102 2.92968 9.10482 1.9043 8.23242 1.14258C7.36002 0.380856 6.2435 0 4.88281 0C3.54166 0 2.41537 0.382483 1.50391 1.14746C0.592443 1.91244 0.136719 2.90038 0.136719 4.11133C0.136719 6.01889 1.32486 7.34049 3.70117 8.07617L5.36133 8.53516C6.01237 8.72396 6.45508 8.94531 6.68945 9.19922C6.92383 9.45313 7.03451 9.7526 7.02148 10.0977C7.01497 10.5404 6.82617 10.8936 6.45508 11.1572C6.08398 11.4209 5.59896 11.5527 5 11.5527C4.36849 11.5527 3.87207 11.3932 3.51074 11.0742C3.14941 10.7552 2.95898 10.3613 2.93945 9.89258ZM12.373 0.15625L12.373 13.9355L15.293 13.9355L15.293 0.15625L12.373 0.15625ZM17.7637 13.9355L19.4629 0.15625L21.8848 0.15625L26.0449 9.0332L30.166 0.15625L32.627 0.15625L34.3066 13.9355L31.3672 13.9355L30.4004 5.67383L27.1875 12.3535L24.9219 12.3535L21.6797 5.67383L20.7031 13.9355L17.7637 13.9355ZM36.6406 0.15625L36.6406 9.01367C36.6406 10.0228 36.8896 10.9212 37.3877 11.709C37.8857 12.4967 38.54 13.0973 39.3506 13.5107C40.1611 13.9242 41.0417 14.1309 41.9922 14.1309C42.9362 14.1309 43.8102 13.9242 44.6143 13.5107C45.4183 13.0973 46.0693 12.4967 46.5674 11.709C47.0654 10.9212 47.3145 10.0228 47.3145 9.01367L47.3145 0.15625L44.375 0.15625L44.375 9.01367C44.375 9.69727 44.1374 10.262 43.6621 10.708C43.1868 11.154 42.6302 11.377 41.9922 11.377C41.3477 11.377 40.791 11.1556 40.3223 10.7129C39.8535 10.2702 39.6191 9.70378 39.6191 9.01367L39.6191 0.15625L36.6406 0.15625Z" fill-rule="evenodd"/>
	</g>
	<defs>
		<clipPath id="clip_18">
			<rect x="-98" y="-3591" width="1366" height="3742" clip-rule="evenodd"/>
		</clipPath>
	</defs>
	<g clip-path="url(#clip_18)">
		<path fill="rgb(85,121,243)" stroke="none" transform="translate(158.879 19.0645)" d="M2.93945 9.89258L0 9.89258C0 11.1426 0.460607 12.1663 1.38184 12.9639C2.30306 13.7614 3.50911 14.1602 5 14.1602C5.625 14.1602 6.22558 14.0755 6.80176 13.9063C7.37793 13.737 7.90202 13.4928 8.37402 13.1738C8.84603 12.8548 9.22689 12.4316 9.5166 11.9043C9.80632 11.377 9.95443 10.7813 9.96094 10.1172C10.0195 8.08593 8.75978 6.69922 6.18164 5.95703L4.54102 5.43945C3.55143 5.1595 3.05664 4.69076 3.05664 4.0332C3.05664 3.62956 3.22591 3.29915 3.56445 3.04199C3.903 2.78483 4.32942 2.65625 4.84375 2.65625C5.41016 2.65625 5.84798 2.79948 6.15723 3.08594C6.46647 3.3724 6.62109 3.75 6.62109 4.21875L9.54102 4.21875C9.54102 2.92968 9.10482 1.9043 8.23242 1.14258C7.36002 0.380856 6.2435 0 4.88281 0C3.54166 0 2.41537 0.382483 1.50391 1.14746C0.592443 1.91244 0.136719 2.90038 0.136719 4.11133C0.136719 6.01889 1.32486 7.34049 3.70117 8.07617L5.36133 8.53516C6.01237 8.72396 6.45508 8.94531 6.68945 9.19922C6.92383 9.45313 7.03451 9.7526 7.02148 10.0977C7.01497 10.5404 6.82617 10.8936 6.45508 11.1572C6.08398 11.4209 5.59896 11.5527 5 11.5527C4.36849 11.5527 3.87207 11.3932 3.51074 11.0742C3.14941 10.7552 2.95898 10.3613 2.93945 9.89258ZM11.3086 0.15625L11.3086 2.79297L15.0293 2.79297L15.0293 13.9355L17.9883 13.9355L17.9883 2.79297L21.709 2.79297L21.709 0.15625L11.3086 0.15625ZM23.8867 13.9355L23.8867 0.15625L29.5215 0.15625C30.2702 0.15625 30.944 0.284829 31.543 0.541992C32.1419 0.799155 32.6237 1.1442 32.9883 1.57715C33.3529 2.01009 33.6296 2.49023 33.8184 3.01758C34.0072 3.54492 34.1016 4.0983 34.1016 4.67773C34.1016 5.72592 33.8086 6.65852 33.2227 7.47559C32.6367 8.29265 31.7839 8.81836 30.6641 9.05273L34.082 13.9355L30.5664 13.9355L27.4902 9.17969L26.8262 9.17969L26.8262 13.9355L23.8867 13.9355ZM36.6211 13.9355L36.6211 0.15625L45.3418 0.15625L45.3418 2.73438L39.541 2.73438L39.541 5.87891L44.6191 5.87891L44.6191 8.41797L39.541 8.41797L39.541 11.3574L45.5176 11.3574L45.5176 13.9355L36.6211 13.9355ZM51.5137 0.15625L46.3965 13.9355L49.5117 13.9355L50.7324 10.6738L55.498 10.6738L56.709 13.9355L59.7949 13.9355L54.6973 0.15625L51.5137 0.15625ZM62.2461 0.15625L60.5469 13.9355L63.4863 13.9355L64.4629 5.67383L67.7051 12.3535L69.9707 12.3535L73.1836 5.67383L74.1504 13.9355L77.0898 13.9355L75.4102 0.15625L72.9492 0.15625L68.8281 9.0332L64.668 0.15625L62.2461 0.15625ZM29.3066 6.61133L26.8262 6.61133L26.8262 2.73438L29.3848 2.73438C29.8991 2.73438 30.3044 2.93782 30.6006 3.34473C30.8968 3.75163 31.0449 4.19596 31.0449 4.67773C31.0449 5.17253 30.8887 5.61849 30.5762 6.01563C30.2637 6.41276 29.8405 6.61133 29.3066 6.61133ZM51.6895 8.13477L54.5508 8.13477L53.0957 3.33984L51.6895 8.13477Z" fill-rule="evenodd"/>
	</g>

</svg>