<?xml version="1.0" encoding="UTF-8"?>
<svg width="60px" height="60px" viewBox="0 0 60 60" version="1.1" xmlns="http://www.w3.org/2000/svg" xmlns:xlink="http://www.w3.org/1999/xlink">
    <!-- Generator: Sketch 53.2 (72643) - https://sketchapp.com -->
    <title>Group 11</title>
    <desc>Created with Sketch.</desc>
    <g id="Homepage-+-responsive" stroke="none" stroke-width="1" fill="none" fill-rule="evenodd">
        <g id="contact" transform="translate(-798.000000, -738.000000)" fill="#00C4D1">
            <g id="Group-13" transform="translate(798.000000, 738.000000)">
                <g id="Group-9">
                    <g id="Group-11">
                        <circle id="Oval" opacity="0.200000003" cx="30" cy="30" r="30"></circle>
                        <g id="noun_help_2331695" transform="translate(17.000000, 17.000000)" fill-rule="nonzero">
                            <path d="M22.1975,3.8025 C17.1275,-1.2675 8.8725,-1.2675 3.8025,3.8025 C-1.2675,8.8725 -1.2675,17.1275 3.8025,22.1975 C6.3375,24.7325 9.685,26 13,26 C16.315,26 19.6625,24.7325 22.1975,22.1975 C27.2675,17.1275 27.2675,8.8725 22.1975,3.8025 Z M20.8,4.29 L17.9075,7.215 C16.5425,6.045 14.82,5.4275 13,5.4275 C11.18,5.4275 9.49,6.045 8.0925,7.215 L5.2,4.29 C7.41,2.3075 10.205,1.3 13,1.3 C15.795,1.3 18.59,2.3075 20.8,4.29 Z M17.4525,17.4525 C16.25,18.655 14.69,19.305 13,19.305 C11.31,19.305 9.75,18.655 8.5475,17.4525 C6.0775,14.9825 6.0775,11.0175 8.5475,8.5475 C9.75,7.345 11.31,6.695 13,6.695 C14.69,6.695 16.25,7.345 17.4525,8.5475 C19.9225,11.0175 19.9225,14.9825 17.4525,17.4525 Z M4.29,5.2 L7.215,8.125 C4.8425,10.9525 4.8425,15.08 7.215,17.9075 L4.29,20.8 C4.29,20.8 4.29,20.8 4.29,20.8 C0.325,16.38 0.325,9.62 4.29,5.2 Z M5.2,21.71 C5.2,21.71 5.2,21.71 5.2,21.71 L8.125,18.8175 C9.49,19.9875 11.2125,20.605 13.0325,20.605 C14.8525,20.605 16.5425,19.9875 17.94,18.8175 L20.8325,21.7425 C16.38,25.675 9.62,25.675 5.2,21.71 Z M21.71,20.8 L18.785,17.875 C21.1575,15.0475 21.1575,10.92 18.785,8.0925 L21.71,5.1675 C25.675,9.62 25.675,16.38 21.71,20.8 Z" id="Shape"></path>
                        </g>
                    </g>
                </g>
            </g>
        </g>
    </g>
</svg>