<?xml version="1.0" encoding="utf-8" ?>
<svg xmlns="http://www.w3.org/2000/svg" xmlns:xlink="http://www.w3.org/1999/xlink" width="104" height="25">
	<defs>
		<clipPath id="clip_0">
			<rect x="-637" y="-3463" width="1366" height="3742" clip-rule="evenodd"/>
		</clipPath>
	</defs>
	<g clip-path="url(#clip_0)">
		<path fill="rgb(206,206,213)" stroke="none" transform="translate(25 0)" d="M20.304 2.74591C18.5458 0.987731 16.1613 -4.40342e-06 13.6748 0L0 0L0 25L9.375 25L9.375 9.375L12.3804 9.375C13.2098 9.37496 14.0054 9.70414 14.5923 10.2902L17.8304 13.5263C18.4177 14.1118 18.7484 14.9067 18.75 15.736L18.75 25L28.125 25L28.125 14.4416C28.1234 11.9547 27.1342 9.57022 25.3749 7.8125L20.304 2.74591Z"/>
	</g>
	<defs>
		<clipPath id="clip_1">
			<rect x="-637" y="-3463" width="1366" height="3742" clip-rule="evenodd"/>
		</clipPath>
	</defs>
	<g clip-path="url(#clip_1)">
		<path fill="rgb(206,206,213)" stroke="none" transform="translate(56.25 0)" d="M37.5 0L37.5 9.26399C37.4984 10.0933 37.1676 10.8881 36.5804 11.4737L33.34 14.7097C32.754 15.2958 31.9591 15.625 31.1303 15.625L26.627 15.625C27.6024 14.115 28.1225 12.356 28.125 10.5583L28.125 0L18.75 0L18.75 9.26399C18.7484 10.0933 18.4176 10.8881 17.8304 11.4737L14.59 14.7097C14.004 15.2958 13.2091 15.625 12.3803 15.625L9.375 15.625L9.375 0L0 0L0 25L13.6748 25C16.1619 25 18.5471 24.0123 20.3061 22.2541L23.4375 19.124L23.4375 25L32.4248 25C34.9119 25 37.2971 24.0123 39.0561 22.2541L44.1249 17.1874C45.8842 15.4297 46.8734 13.0452 46.875 10.5583L46.875 0L37.5 0Z"/>
	</g>
	<defs>
		<clipPath id="clip_2">
			<rect x="-637" y="-3463" width="1366" height="3742" clip-rule="evenodd"/>
		</clipPath>
	</defs>
	<g clip-path="url(#clip_2)">
		<path fill="rgb(206,206,213)" stroke="none" d="M0 9.375L6.25 9.375L6.25 25L15.625 25L15.625 9.375L21.875 9.375L21.875 0L0 0L0 9.375L0 9.375Z"/>
	</g>

</svg>