<?xml version="1.0" encoding="UTF-8"?>
<svg width="179px" height="40px" viewBox="0 0 179 40" version="1.1" xmlns="http://www.w3.org/2000/svg" xmlns:xlink="http://www.w3.org/1999/xlink">
    <!-- Generator: Sketch 53.2 (72643) - https://sketchapp.com -->
    <title>YouTube_Logo_2017</title>
    <desc>Created with Sketch.</desc>
    <g id="Homepage-+-responsive" stroke="none" stroke-width="1" fill="none" fill-rule="evenodd">
        <g id="home" transform="translate(-742.000000, -2790.000000)">
            <g id="Group-37" transform="translate(446.000000, 2783.000000)">
                <g id="YouTube_Logo_2017" transform="translate(296.000000, 7.000000)">
                    <g id="Group">
                        <path d="M55.7274091,6.25882353 C55.0712411,3.81176471 53.1496063,1.88235294 50.7124109,1.22352941 C46.2598425,0 28.4495688,0 28.4495688,0 C28.4495688,0 10.6392951,0 6.18672666,1.17647059 C3.79640045,1.83529412 1.82789651,3.81176471 1.17172853,6.25882353 C0,10.7294118 0,20 0,20 C0,20 0,29.3176471 1.17172853,33.7411765 C1.82789651,36.1882353 3.74953131,38.1176471 6.18672666,38.7764706 C10.6861642,40 28.4495688,40 28.4495688,40 C28.4495688,40 46.2598425,40 50.7124109,38.8235294 C53.1496063,38.1647059 55.0712411,36.2352941 55.7274091,33.7882353 C56.8991376,29.3176471 56.8991376,20.0470588 56.8991376,20.0470588 C56.8991376,20.0470588 56.9460067,10.7294118 55.7274091,6.25882353 Z" id="Path" fill="#FF0000"></path>
                        <polygon id="Path" fill="#FFFFFF" points="22.7784027 28.5647059 37.5890514 20 22.7784027 11.4352941"></polygon>
                    </g>
                    <g id="Group" transform="translate(62.335958, 1.411765)" fill="#282828">
                        <path d="M20.2943382,35.0117647 C19.1694788,34.2588235 18.3727034,33.0823529 17.904012,31.4352941 C17.4353206,29.8352941 17.2009749,27.6705882 17.2009749,25.0352941 L17.2009749,21.4117647 C17.2009749,18.7294118 17.4821897,16.5647059 17.9977503,14.9176471 C18.56018,13.2705882 19.4038245,12.0941176 20.5286839,11.3411765 C21.7004124,10.5882353 23.200225,10.2117647 25.0749906,10.2117647 C26.9028871,10.2117647 28.4026997,10.5882353 29.5275591,11.3411765 C30.6524184,12.0941176 31.4491939,13.3176471 31.9647544,14.9176471 C32.480315,16.5176471 32.7615298,18.6823529 32.7615298,21.4117647 L32.7615298,25.0352941 C32.7615298,27.7176471 32.5271841,29.8352941 32.0116235,31.4823529 C31.496063,33.0823529 30.6992876,34.3058824 29.5744282,35.0588235 C28.4495688,35.8117647 26.9028871,36.1882353 24.9812523,36.1882353 C23.0127484,36.1411765 21.4191976,35.7647059 20.2943382,35.0117647 Z M26.6216723,31.0588235 C26.9497563,30.2588235 27.0903637,28.8941176 27.0903637,27.0588235 L27.0903637,19.2470588 C27.0903637,17.4588235 26.9497563,16.1411765 26.6216723,15.2941176 C26.2935883,14.4470588 25.7780277,14.0705882 24.9812523,14.0705882 C24.2313461,14.0705882 23.6689164,14.4941176 23.3877015,15.2941176 C23.0596175,16.1411765 22.9190101,17.4588235 22.9190101,19.2470588 L22.9190101,27.0588235 C22.9190101,28.8941176 23.0596175,30.2588235 23.3877015,31.0588235 C23.6689164,31.8588235 24.2313461,32.2823529 25.0281215,32.2823529 C25.7780277,32.2823529 26.2935883,31.9058824 26.6216723,31.0588235 Z" id="Shape" fill-rule="nonzero"></path>
                        <path d="M106.814773,25.0823529 L106.814773,26.3529412 C106.814773,27.9529412 106.861642,29.1764706 106.955381,29.9764706 C107.049119,30.7764706 107.236595,31.3882353 107.564679,31.7176471 C107.845894,32.0941176 108.314586,32.2823529 108.970754,32.2823529 C109.814398,32.2823529 110.376828,31.9529412 110.704912,31.2941176 C111.032996,30.6352941 111.173603,29.5529412 111.220472,28 L116.047994,28.2823529 C116.094863,28.5176471 116.094863,28.8 116.094863,29.1764706 C116.094863,31.4823529 115.485564,33.2235294 114.220097,34.3529412 C112.954631,35.4823529 111.173603,36.0470588 108.877015,36.0470588 C106.111736,36.0470588 104.190101,35.1529412 103.065242,33.4117647 C101.940382,31.6705882 101.377953,28.9882353 101.377953,25.3176471 L101.377953,20.9411765 C101.377953,17.1764706 101.940382,14.4470588 103.112111,12.7058824 C104.28384,10.9647059 106.252343,10.1176471 109.017623,10.1176471 C110.939258,10.1176471 112.43907,10.4941176 113.470191,11.2 C114.501312,11.9058824 115.204349,13.0352941 115.626172,14.4941176 C116.047994,16 116.235471,18.0705882 116.235471,20.7058824 L116.235471,24.9882353 L106.814773,24.9882353 L106.814773,25.0823529 Z M107.51781,14.5411765 C107.236595,14.9176471 107.049119,15.4823529 106.955381,16.2823529 C106.861642,17.0823529 106.814773,18.3058824 106.814773,19.9529412 L106.814773,21.7411765 L110.939258,21.7411765 L110.939258,19.9529412 C110.939258,18.3529412 110.892388,17.1294118 110.79865,16.2823529 C110.704912,15.4352941 110.470566,14.8705882 110.189351,14.5411765 C109.908136,14.2117647 109.439445,14.0235294 108.877015,14.0235294 C108.220847,13.9764706 107.799025,14.1647059 107.51781,14.5411765 Z" id="Shape" fill-rule="nonzero"></path>
                        <path d="M6.60854893,24.6117647 L0.234345707,1.41176471 L5.81177353,1.41176471 L8.06149231,11.9058824 C8.62392201,14.4941176 9.04574428,16.7058824 9.32695913,18.5411765 L9.46756655,18.5411765 C9.65504312,17.2235294 10.0768654,15.0588235 10.7330334,11.9529412 L13.0764904,1.41176471 L18.6539183,1.41176471 L12.1859768,24.6117647 L12.1859768,35.7176471 L6.65541807,35.7176471 L6.65541807,24.6117647 L6.60854893,24.6117647 Z" id="Path"></path>
                        <path d="M50.8998875,10.6823529 L50.8998875,35.7647059 L46.4941882,35.7647059 L46.0254968,32.7058824 L45.8848894,32.7058824 C44.7131609,35.0117647 42.8852643,36.1882353 40.4949381,36.1882353 C38.8545182,36.1882353 37.6359205,35.6235294 36.8391451,34.5411765 C36.0423697,33.4588235 35.6674166,31.7647059 35.6674166,29.4117647 L35.6674166,10.6823529 L41.2917135,10.6823529 L41.2917135,29.0823529 C41.2917135,30.2117647 41.432321,31.0117647 41.6666667,31.4823529 C41.9010124,31.9529412 42.3228346,32.1882353 42.8852643,32.1882353 C43.3539558,32.1882353 43.8226472,32.0470588 44.2913386,31.7176471 C44.76003,31.4352941 45.088114,31.0588235 45.2755906,30.5882353 L45.2755906,10.6823529 L50.8998875,10.6823529 Z" id="Path"></path>
                        <path d="M79.7244094,10.6823529 L79.7244094,35.7647059 L75.3187102,35.7647059 L74.8500187,32.7058824 L74.7094113,32.7058824 C73.5376828,35.0117647 71.7097863,36.1882353 69.3194601,36.1882353 C67.6790401,36.1882353 66.4604424,35.6235294 65.663667,34.5411765 C64.8668916,33.4588235 64.4919385,31.7647059 64.4919385,29.4117647 L64.4919385,10.6823529 L70.1162355,10.6823529 L70.1162355,29.0823529 C70.1162355,30.2117647 70.2568429,31.0117647 70.4911886,31.4823529 C70.7255343,31.9529412 71.1473566,32.1882353 71.7097863,32.1882353 C72.1784777,32.1882353 72.6471691,32.0470588 73.1158605,31.7176471 C73.5845519,31.4352941 73.9126359,31.0588235 74.1001125,30.5882353 L74.1001125,10.6823529 L79.7244094,10.6823529 Z" id="Path"></path>
                        <polygon id="Path" points="66.1792276 5.97647059 60.6017998 5.97647059 60.6017998 35.7176471 55.1181102 35.7176471 55.1181102 5.97647059 49.5406824 5.97647059 49.5406824 1.41176471 66.1792276 1.41176471 66.1792276 5.97647059"></polygon>
                        <path d="M98.3314586,14.6823529 C98.0033746,13.0823529 97.4409449,11.9529412 96.6910386,11.2470588 C95.9411324,10.5411765 94.8631421,10.1647059 93.5508061,10.1647059 C92.519685,10.1647059 91.5354331,10.4470588 90.6449194,11.0588235 C89.7544057,11.6235294 89.0513686,12.4235294 88.5826772,13.3647059 L88.535808,13.3647059 L88.535808,0.141176471 L83.0989876,0.141176471 L83.0989876,35.7176471 L87.7390326,35.7176471 L88.3014623,33.3647059 L88.4420697,33.3647059 C88.863892,34.2117647 89.52006,34.8705882 90.4105737,35.3882353 C91.3010874,35.8588235 92.2384702,36.1411765 93.3164604,36.1411765 C95.2380952,36.1411765 96.5973003,35.2470588 97.487814,33.5058824 C98.3783277,31.7647059 98.8470191,28.9882353 98.8470191,25.2705882 L98.8470191,21.3176471 C98.80015,18.4470588 98.6595426,16.2352941 98.3314586,14.6823529 Z M93.175853,24.8941176 C93.175853,26.7294118 93.0821147,28.1411765 92.9415073,29.1764706 C92.8008999,30.2117647 92.519685,30.9647059 92.191601,31.3882353 C91.8166479,31.8117647 91.3479565,32.0470588 90.7855268,32.0470588 C90.3168354,32.0470588 89.8950131,31.9529412 89.52006,31.7176471 C89.1451069,31.4823529 88.8170229,31.1529412 88.5826772,30.7294118 L88.5826772,16.5176471 C88.7701537,15.8588235 89.0982377,15.2941176 89.5669291,14.8235294 C90.0356205,14.4 90.5511811,14.1647059 91.0667417,14.1647059 C91.6291714,14.1647059 92.0978628,14.4 92.3790776,14.8235294 C92.7071616,15.2941176 92.8946382,16.0470588 93.0352456,17.0823529 C93.175853,18.1647059 93.2227222,19.6705882 93.2227222,21.6 L93.2227222,24.8941176 L93.175853,24.8941176 Z" id="Shape" fill-rule="nonzero"></path>
                    </g>
                </g>
            </g>
        </g>
    </g>
</svg>